<svg xmlns="http://www.w3.org/2000/svg" width="261" height="268" fill="none" viewBox="0 0 261 268">
  <path fill="#98252C" fill-rule="evenodd" d="M117.633 11.109c1.63-2.445-.391-5.669-3.302-5.267L5.899 20.799a5 5 0 0 0-4.077 6.483l35.989 111.972 8.172 18.39c.153.344.344.669.57.969l4.962 6.618a5 5 0 0 1 1 3v4.689a2.84 2.84 0 0 0 1.942 2.694c2.003.668 2.603 3.21 1.11 4.703l-1.768 1.768a4.387 4.387 0 0 0-1.284 3.101v6.617a5 5 0 0 1-1.465 3.535l-1.272 1.273a4.998 4.998 0 0 0-1.464 3.535v6.679a5 5 0 0 0 1.095 3.123l6.034 7.542a5.001 5.001 0 0 1 1.07 3.621l-1.662 16.621a4.999 4.999 0 0 0 1.44 4.033l3.792 3.793a4.996 4.996 0 0 1 1.208 1.954l1.515 4.547a5 5 0 0 0 .583 1.193l3.35 5.024a5 5 0 0 1 .69 1.561l.876 3.504a5 5 0 0 0 5.189 3.776l119.761-8.12 9.305-1.551a2.832 2.832 0 0 1 3.298 2.794c0 .559.166 1.106.476 1.571l2.372 3.558a4.56 4.56 0 0 0 8.29-1.779l1.046-6.272a3.465 3.465 0 0 0-1.867-3.667 3.461 3.461 0 0 1-1.914-3.096v-4.193c0-1.326.526-2.597 1.464-3.535l.845-.845a5 5 0 0 1 4.516-1.367l7.393 1.479c.323.064.652.097.981.097h6.329c2.471 0 3.944-2.754 2.574-4.809a3.093 3.093 0 0 1-.193-3.099l2.459-4.919a1.297 1.297 0 0 0-1.161-1.878 1.298 1.298 0 0 1-1.161-1.879l.665-1.331a2.22 2.22 0 0 0 0-1.984l-1.077-2.154a5.002 5.002 0 0 1-.528-2.236v-5.122a2.1 2.1 0 0 1 2.101-2.1h.897c.665 0 1.203.538 1.203 1.203 0 1.27 1.713 1.674 2.281.538l.929-1.858c.499-1-.088-2.2-1.183-2.419l-6.672-1.335a2.06 2.06 0 1 1 .808-4.04l4.633.927c1.386.277 2.485-1.161 1.853-2.425a1.699 1.699 0 0 1 .318-1.961l1.337-1.337c1.021-1.021-.031-2.723-1.401-2.266a1.367 1.367 0 0 1-1.4-.331l-.541-.541c-1.348-1.348-.71-3.65 1.139-4.113l.108-.026c1.801-.451 2.423-2.695 1.11-4.008a2.39 2.39 0 0 1-.448-2.758l.93-1.858a.898.898 0 0 0-.402-1.204c-.846-.423-.545-1.7.402-1.7h3.532a1.73 1.73 0 0 0 1.548-.957l.255-.509A2.651 2.651 0 0 0 249.17 174l-.772-.258a2.403 2.403 0 0 1 1.342-4.61l3.453.863a2.478 2.478 0 0 0 3.08-2.404c0-.658.261-1.288.726-1.753l.13-.13c1.537-1.537.919-4.154-1.143-4.842l-1.549-.516a4.046 4.046 0 0 1-.515-.213l-2.964-1.483a1.532 1.532 0 0 0-1.767.287 1.532 1.532 0 0 1-2.357-.233l-2.33-3.495a4.985 4.985 0 0 1-.835-2.76v-5.23a5.002 5.002 0 0 0-1-3l-5.031-6.709a4.954 4.954 0 0 1-.472-.764l-.517-1.034a5.001 5.001 0 0 0-4.473-2.764h-.121a5 5 0 0 1-4.472-2.764l-.473-.947a5.03 5.03 0 0 1-.379-1.023l-1.757-7.03a5.001 5.001 0 0 0-.691-1.561l-2.908-4.364a4.83 4.83 0 0 1-.812-2.682 4.837 4.837 0 0 0-2.348-4.146l-6.983-4.19a4.938 4.938 0 0 0-2.539-.703h-2.339a2.597 2.597 0 0 1-2.596-2.597c0-.984-.556-1.883-1.436-2.323l-1.031-.515a3.138 3.138 0 0 1-1.734-2.807c0-1.351-.865-2.55-2.146-2.977l-1.625-.542a3.701 3.701 0 0 1-2.531-3.512c0-.982-.39-1.923-1.084-2.618l-3.754-3.753a4.998 4.998 0 0 0-3.535-1.465h-1.4a4.999 4.999 0 0 1-4.287-2.427l-3.979-6.632a5 5 0 0 0-2.43-2.07l-7.278-2.911a4.71 4.71 0 0 1-2.462-2.265l-.433-.867a3.137 3.137 0 0 0-2.807-1.734 3.14 3.14 0 0 1-2.977-2.146l-.842-2.529a5.003 5.003 0 0 0-1.97-2.58l-4.463-2.974a5.012 5.012 0 0 1-.762-.625l-.916-.916a5.005 5.005 0 0 1-1.208-1.954l-1.184-3.555a5.003 5.003 0 0 0-1.97-2.58l-3.329-2.22a3.47 3.47 0 0 1-1.546-2.887 3.47 3.47 0 0 0-4.312-3.367l-1.944.486a5.002 5.002 0 0 1-3.987-.69l-4.049-2.7a5.005 5.005 0 0 1-.762-.624l-.916-.916a5.003 5.003 0 0 0-1.954-1.209l-4.887-1.628a4.386 4.386 0 0 1-2.535-6.122l2.24-4.48 2.1-4.202Z" clip-rule="evenodd"/>
  <path fill="#fff" d="M89.248 0c-6.926 0-12.541 5.615-12.541 12.542 0 2.478.72 4.774 1.96 6.718.06.095.105.188.168.281l7.781 14.445c.366 1.05 1.401 1.847 2.577 1.847 1.175 0 2.153-.797 2.519-1.847l8.679-15.677a12.512 12.512 0 0 0 1.399-5.767C101.79 5.615 96.175 0 89.248 0Zm-.055 7.11a6.27 6.27 0 1 1 0 12.542 6.27 6.27 0 0 1 0-12.541Z"/>
  <path fill="#fff" d="M110.248 6c-6.926 0-12.541 5.615-12.541 12.542 0 2.477.72 4.774 1.96 6.718.06.095.105.188.168.281l7.781 14.445c.366 1.05 1.401 1.847 2.577 1.847 1.175 0 2.153-.797 2.519-1.847l8.679-15.677a12.512 12.512 0 0 0 1.399-5.767C122.79 11.615 117.175 6 110.248 6Zm-.055 7.11a6.271 6.271 0 1 1 0 12.543 6.271 6.271 0 0 1 0-12.542ZM111.248 190c-6.926 0-12.541 5.615-12.541 12.542 0 2.478.72 4.774 1.96 6.718.06.095.105.188.168.281l7.781 14.445c.366 1.05 1.401 1.847 2.577 1.847 1.175 0 2.153-.797 2.519-1.847l8.679-15.677a12.514 12.514 0 0 0 1.399-5.767c0-6.927-5.615-12.542-12.542-12.542Zm-.055 7.111a6.27 6.27 0 1 1 0 12.542 6.27 6.27 0 0 1 0-12.542Z"/>
</svg>
