<svg xmlns="http://www.w3.org/2000/svg" width="415" height="208" fill="none" viewBox="0 0 415 208">
  <path fill="#98252C" fill-rule="evenodd" d="M117.808 67.252a5 5 0 0 1 4.102-4.92l257.994-47.096a5 5 0 0 1 4.433 1.383l6.386 6.386c.108.108.205.227.29.354l3.385 5.078c.867 1.3-.773 2.804-1.994 1.828l-.734-.588c-.849-.68-2.061.165-1.717 1.197.32.96-.728 1.801-1.596 1.28l-7.042-4.225a1.98 1.98 0 0 0-1.905-.073c-1.399.699-1.474 2.666-.134 3.47l4.061 2.437c1.45.87 1.368 2.999-.145 3.755a2.142 2.142 0 0 1-1.478.163l-4.439-1.11c-.897-.225-1.52.875-.866 1.53.731.73-.128 1.923-1.053 1.46l-4.956-2.478a1.811 1.811 0 0 0-2.621 1.62v.226c0 .653.326 1.262.869 1.624l.788.525c2.21 1.474 2.21 4.72 0 6.194l-.598.399a4.206 4.206 0 0 1-2.331.706h-3.226a5 5 0 0 1-4.851-3.788l-1.005-4.018a5.007 5.007 0 0 1-.149-1.213v-5.687a2.1 2.1 0 1 0-4.201 0v8.99a5 5 0 0 0 .84 2.774l2.666 4a4.14 4.14 0 0 1 .695 2.295 4.14 4.14 0 0 0 4.951 4.06l4.198-.84a4.556 4.556 0 0 0 2.33-1.248l.629-.628a3.672 3.672 0 0 1 5.193 0 3.67 3.67 0 0 0 3.757.887l2.812-.937a4.108 4.108 0 0 0 2.119-1.62l.251-.375c1.507-2.261 4.83-2.261 6.337 0 .651.977.815 2.201.444 3.316l-.941 2.821a2.085 2.085 0 0 0 1.045 2.522l.646.323a1.563 1.563 0 0 1 .406 2.503c-.985.985-.287 2.669 1.105 2.669h.989c.905 0 1.694-.617 1.913-1.495l1.448-5.79a3.962 3.962 0 0 0-.085-2.212l-.358-1.073c-.678-2.035.837-4.136 2.981-4.136h.834c.679 0 1.301-.384 1.604-.991.662-1.323 2.549-1.323 3.21 0l2.153 4.306c.292.583.443 1.226.443 1.878v8.364c0 1.493-1.571 2.464-2.906 1.796a2.008 2.008 0 0 0-2.318.376l-.559.559c-.341.34-.598.756-.75 1.213l-3.596 10.79a5.005 5.005 0 0 1-1.208 1.954l-1.902 1.903a5.001 5.001 0 0 1-3.536 1.464h-4.591a4.203 4.203 0 0 1-2.971-1.23l-1.211-1.212a2.488 2.488 0 0 0-3.519 0l-.256.256a2.228 2.228 0 0 1-3.568-.579l-.22-.44a1.548 1.548 0 0 1 .29-1.785c1.064-1.064.136-2.867-1.348-2.62l-4.459.744a2.218 2.218 0 0 0-1.481 3.418c.983 1.474-.074 3.448-1.845 3.448h-8.066a3.22 3.22 0 0 1-.776-.095l-1.727-.432c-2.224-.556-3.966 1.917-2.695 3.825a2.51 2.51 0 0 0 1.675 1.082l11.123 1.854c.272.046.547.068.822.068h9.593a2.598 2.598 0 0 1 1.162 4.92l-3.194 1.597c-1.393.696-1.248 2.728.229 3.22a1.748 1.748 0 0 1 .845 2.707l-3.347 4.463a5.002 5.002 0 0 1-4 2h-3.107c-.457 0-.908-.106-1.316-.311l-.782-.391c-2.638-1.319-5.221 1.876-3.378 4.179.376.47.896.804 1.48.95l6.905 1.726c.396.099.804.149 1.213.149h1.276c1.443 0 2.79-.721 3.59-1.921l.911-1.367c1.04-1.559 3.267-1.756 4.593-.431a2.926 2.926 0 0 0 3.563.451c2.493-1.496 5.395 1.191 4.095 3.792l-1.855 3.711a4.115 4.115 0 0 1-5.963 1.583l-.089-.06a4.21 4.21 0 0 0-4.669 0l-3.967 2.645-8.86 5.317a3.03 3.03 0 0 1-3.238-.077l-.257-.172c-1.902-1.268-4.45.095-4.45 2.381 0 .62-.201 1.222-.572 1.718l-1.941 2.587c-1.519 2.025-4.707 1.381-5.32-1.074l-.238-.95a1.751 1.751 0 1 0-3.265 1.208l.276.554a1.727 1.727 0 0 1-.323 1.993 1.726 1.726 0 0 0 0 2.441l.731.731a2.76 2.76 0 0 1-.296 4.159l-5.073 3.806a4.989 4.989 0 0 0-1.288 1.427l-5.592 9.32a5.013 5.013 0 0 0-.354.716l-3.951 9.877a1.43 1.43 0 0 0-.102.529v1.331c0 1.17-1.577 1.542-2.1.495-.524-1.046-2.101-.674-2.101.496v10.599a3.611 3.611 0 0 1-3.611 3.611h-11.123a4.996 4.996 0 0 0-3.535 1.464l-1.902 1.902a4.992 4.992 0 0 1-1.955 1.208l-2.747.916a5 5 0 0 1-4.514-.694l-57.175-41.405a4.993 4.993 0 0 0-3.693-.892l-48.08 7.397a4.999 4.999 0 0 1-5.611-3.729l-.565-2.259a5 5 0 0 0-1.85-2.787l-5.324-3.993a2.391 2.391 0 0 0-3.125.222c-1.256 1.257-3.396.752-3.958-.934l-.167-.502a2.718 2.718 0 0 0-2.937-1.834l-60.112 8.016c-.45.06-.891.181-1.309.36l-12.468 5.344a4.772 4.772 0 0 0-2.388 2.252l-.614 1.228a2.552 2.552 0 0 1-2.282 1.41c-.345 0-.687.07-1.005.206l-13.615 5.836a4.994 4.994 0 0 1-1.262.354l-52.455 7.494a5 5 0 0 1-5.707-4.95v-7.685a3.032 3.032 0 0 1 3.765-2.94l1.483.371a5 5 0 0 0 6.145-4.028l.905-5.432a5.002 5.002 0 0 1 1.731-3.019l9.787-8.156a5 5 0 0 1 3.201-1.159h6.424a5 5 0 0 0 3.763-1.708l11.716-13.391a5 5 0 0 1 3.763-1.707h2.034a5 5 0 0 0 4.903-4.02l.858-4.292a2.728 2.728 0 0 1 2.674-2.192 2.727 2.727 0 0 0 2.588-1.865l.71-2.133A4.858 4.858 0 0 1 76 102.228l1.395-.465a3.162 3.162 0 0 1 3.829 1.585 3.162 3.162 0 0 0 2.828 1.749h.05c1.327 0 2.52-.808 3.013-2.04l2.38-5.95a5 5 0 0 1 3.661-3.045l6.721-1.345a3.345 3.345 0 0 1 2.153.289 3.346 3.346 0 0 0 4.572-1.675l4.525-10.558a5.004 5.004 0 0 1 1.06-1.566l3.086-3.086a1.483 1.483 0 0 1 1.05-.435c.82 0 1.485-.665 1.485-1.485v-6.95Z" clip-rule="evenodd"/>
  <path fill="#fff" d="M163.705 33.214c-6.926 0-12.541 5.615-12.541 12.541 0 2.478.72 4.775 1.96 6.719.06.095.105.188.168.281l7.781 14.445c.366 1.05 1.401 1.847 2.577 1.847 1.175 0 2.153-.797 2.519-1.847l8.679-15.678a12.512 12.512 0 0 0 1.399-5.767c0-6.926-5.615-12.541-12.542-12.541Zm-.055 7.11a6.271 6.271 0 1 1 0 12.543 6.271 6.271 0 0 1 0-12.542Zm95.055 59.89c-6.926 0-12.541 5.615-12.541 12.542 0 2.477.72 4.774 1.96 6.718.06.095.105.188.168.281l7.781 14.445c.366 1.05 1.401 1.847 2.577 1.847 1.175 0 2.153-.797 2.519-1.847l8.679-15.677a12.514 12.514 0 0 0 1.399-5.767c0-6.927-5.615-12.542-12.542-12.542Zm-.055 7.111a6.27 6.27 0 1 1 0 12.541 6.27 6.27 0 0 1 0-12.541Zm61.055-46.111c-6.926 0-12.541 5.615-12.541 12.541 0 2.478.72 4.775 1.96 6.719.06.095.105.188.168.281l7.781 14.445c.366 1.05 1.401 1.847 2.577 1.847 1.175 0 2.153-.797 2.519-1.847l8.679-15.678a12.512 12.512 0 0 0 1.399-5.767c0-6.926-5.615-12.541-12.542-12.541Zm-.055 7.11a6.271 6.271 0 1 1 0 12.543 6.271 6.271 0 0 1 0-12.542Z"/>
</svg>
