<svg xmlns="http://www.w3.org/2000/svg" width="425" height="403" fill="none" viewBox="0 0 425 403">
  <path fill="#98252C" fill-rule="evenodd" d="M119.793 4.913a5 5 0 0 1 5.07-4.842l83.151 1.205a5 5 0 0 1 4.928 5v64.996a2.859 2.859 0 0 0 2.858 2.858 2.86 2.86 0 0 1 2.022.838l5.064 5.064a5 5 0 0 0 5.117 1.208l.58-.193a3.453 3.453 0 0 1 1.092-.177h1.206c.569 0 1.09-.322 1.344-.831a1.503 1.503 0 0 1 2.407-.39l3.079 3.079a2.86 2.86 0 0 1 .837 2.022 2.86 2.86 0 0 0 2.86 2.859h3.068a5 5 0 0 1 1.581.256l5.9 1.967a4.48 4.48 0 0 0 2.833 0l.295-.098a3.978 3.978 0 0 1 4.07.96 3.976 3.976 0 0 0 5.018.497l.24-.16a4.327 4.327 0 0 1 2.401-.727h4.426a2.35 2.35 0 0 1 2.349 2.35 2.35 2.35 0 0 0 1.607 2.23l1.024.34c.905.302 1.652.95 2.078 1.803a3.595 3.595 0 0 0 5.517 1.154l2.405-2.004a1.95 1.95 0 0 1 3.098.881 1.949 1.949 0 0 0 1.85 1.333h.492c.52 0 1.029.154 1.461.443l1.634 1.09a3.617 3.617 0 0 0 3.622.225l1.281-.64a2.297 2.297 0 0 1 3.161 1.202c.715 1.785 3.176 1.956 4.13.286l1.249-2.185a3.513 3.513 0 0 1 4.858-1.27l2.102 1.261a3.952 3.952 0 0 0 3.284.361 3.954 3.954 0 0 1 4.046.955l.223.223c.489.49 1.087.859 1.744 1.078l6.617 2.206a3.052 3.052 0 0 0 3.861-1.931l.051-.152a3.274 3.274 0 0 1 2.465-2.177l4.389-.878c.323-.064.652-.097.981-.097h1.389a5 5 0 0 0 1.581-.256l5.935-1.979a5.001 5.001 0 0 1 2.794-.107l2.184.546a5 5 0 0 0 3.449-.379l1.884-.942a4.999 4.999 0 0 1 3.817-.271l5.002 1.667c.736.246 1.406.66 1.954 1.208l2.859 2.859c.233.233.488.442.762.625l2.738 1.825a4.99 4.99 0 0 0 1.952.772l6.286 1.048c.492.082.968.237 1.414.46l3.636 1.818a1.68 1.68 0 0 0 1.938-.315 1.68 1.68 0 0 1 1.188-.492h5.09a2.304 2.304 0 0 1 2.301 2.301v18.579c0 .379.307.685.685.685.369 0 .672.293.685.662l1.257 36.456a5 5 0 0 0 1.462 3.363l2.398 2.399c.167.167.323.346.465.535l2.83 3.774c.649.865.999 1.918.999 3v1.818c0 1.221.485 2.391 1.348 3.254l.871.872c.306.305.477.719.477 1.15 0 .432.171.845.476 1.151l.872.871a4.6 4.6 0 0 1 1.347 3.254v.115c0 1.295.515 2.536 1.43 3.452l1.266 1.266a4.601 4.601 0 0 1 1.348 3.254v1.579c0 .357.142.7.394.953.527.526.527 1.38 0 1.906a1.351 1.351 0 0 0-.394.953v6.717c0 .538-.087 1.072-.257 1.581l-.979 2.937a4.989 4.989 0 0 1-.271.655l-2.009 4.018a5.002 5.002 0 0 0-.528 2.236v1.896c0 .636-.148 1.263-.432 1.832a4.096 4.096 0 0 0 0 3.662l.953 1.906a5 5 0 0 1 .379 3.448l-.564 2.254a4.993 4.993 0 0 1-1.315 2.323l-1.142 1.142a4.99 4.99 0 0 0-.937 1.3l-2.333 4.665-.832 1.666a1.983 1.983 0 0 0 .124 1.988c.879 1.319-.067 3.085-1.652 3.085h-1.026c-.431 0-.854.11-1.231.319l-10.423 5.791a4.992 4.992 0 0 1-2.428.629h-3.824c-.18 0-.36.018-.537.054l-1.958.391c-1.666.333-2.904-1.514-1.961-2.928.094-.141.169-.294.222-.455l.663-1.987a2.205 2.205 0 0 0-1.105-2.669 2.207 2.207 0 0 0-1.972 0l-1.049.525a4.57 4.57 0 0 0-1.183.852l-1.177 1.178a2.488 2.488 0 0 1-2.363.654c-1.823-.456-3.474 1.195-3.018 3.018l.215.86c.084.336.225.655.417.943l2.15 3.225c.17.255.364.492.581.709l.63.63a3.412 3.412 0 0 1 0 4.827l-4.444 4.444a1.089 1.089 0 0 1-1.258.204 1.09 1.09 0 0 0-1.556 1.189l.607 3.035a2.602 2.602 0 0 1-.886 2.511l-6.896 5.747-7.143 4.762a5.006 5.006 0 0 1-2.066.79l-6.943.992c-.857.122-1.6.657-1.987 1.432a2.64 2.64 0 0 1-2.36 1.459h-4.168a.94.94 0 0 1-.94-.94.94.94 0 0 0-1.461-.782l-1.349.9a1.808 1.808 0 0 1-2.281-.226l-1.648-1.648c-.807-.807-2.172-.077-1.948 1.043l.139.69a1.368 1.368 0 0 1-1.774 1.565l-1.32-.44a2.185 2.185 0 0 1-.851-.525l-1.549-1.55a1.11 1.11 0 0 0-1.774 1.279l2.078 4.155c.169.339.444.614.783.783l1.227.614a.763.763 0 0 1 .198 1.221c-.547.547-.026 1.467.724 1.28l1.308-.327a1.136 1.136 0 0 1 1.412 1.102v.414c0 .513-.269.988-.709 1.252l-3.645 2.187a3.181 3.181 0 0 1-4.122-.741l-1.207-1.509c-1.055-1.318-3.151-.944-3.685.657a2.12 2.12 0 0 0-.11.674v6.151c0 .16-.037.317-.108.459-.426.851-1.681.714-1.912-.21l-.211-.846a1.348 1.348 0 0 0-2.056-.795l-5.819 3.88c-.443.295-.801.7-1.038 1.176l-.188.375a2.475 2.475 0 0 0 .464 2.856l.95.95a.835.835 0 0 0 1.054.105c.759-.507 1.664.398 1.158 1.158l-2.482 3.723a1.732 1.732 0 0 1-1.655.757l-8.583-1.073a1.62 1.62 0 0 0-.713 3.144l1.772.591c.331.11.641.273.92.482l1.905 1.429a5 5 0 0 1 1.642 5.857l-3.049 7.623a1.632 1.632 0 0 1-2.669.547 1.63 1.63 0 0 0-2.058-.203l-1.757 1.17a1.718 1.718 0 0 1-2.171-.215l-.997-.996c-.954-.954-2.559-.046-2.231 1.263l.015.063c.104.414-.018.853-.32 1.155a1.219 1.219 0 0 0 0 1.722l.174.174c.204.204.464.343.748.4l5.854 1.171c.291.058.594.017.861-.116.965-.483 2.076.318 1.923 1.387l-.866 6.064a2.555 2.555 0 0 1-.721 1.443 2.545 2.545 0 0 0-.747 1.803v5.571c0 .806.653 1.459 1.459 1.459a1.46 1.46 0 0 1 1.44 1.22l.96 5.761c.12.719.009 1.457-.317 2.109a3.45 3.45 0 0 0 .127 3.316l2.863 4.773c.138.228.256.467.355.715l2.187 5.467a2.55 2.55 0 0 0 1.227 1.334 2.55 2.55 0 0 1 1.333 2.898l-.549 2.193a4.52 4.52 0 0 1-5.482 3.289l-1.564-.391a5.002 5.002 0 0 1-2.323-1.315l-2.947-2.948a5.004 5.004 0 0 0-3.536-1.464h-15.043a5 5 0 0 1-3.123-1.096l-4.353-3.482a5.008 5.008 0 0 0-2.301-1.028l-5.221-.87a4.998 4.998 0 0 1-2.714-1.396l-2.793-2.794a5.001 5.001 0 0 0-3.536-1.465h-4.864a2.499 2.499 0 0 1-2.499-2.499 2.5 2.5 0 0 0-1.381-2.235l-.164-.082a2.797 2.797 0 0 1-1.462-1.822l-2.139-8.556a5.006 5.006 0 0 0-.851-1.787l-3.224-4.299a4.94 4.94 0 0 0-.464-.536l-.98-.98a4.999 4.999 0 0 1-1.465-3.535v-3.155c0-.987-.292-1.952-.839-2.773l-.668-1.001a3.695 3.695 0 0 1-.23-3.699c.256-.513.39-1.078.39-1.651v-2.361a5 5 0 0 0-.257-1.581l-.436-1.309a4.999 4.999 0 0 0-2.507-2.891l-3.065-1.532a5.034 5.034 0 0 1-.888-.568l-5.172-4.138a4.998 4.998 0 0 1-1.619-2.323l-.67-2.008a4.974 4.974 0 0 0-.583-1.192l-4.465-6.698a5 5 0 0 0-1.386-1.387l-2.379-1.586a4.977 4.977 0 0 1-1.387-1.387l-1.708-2.562a4.98 4.98 0 0 1-.647-1.4l-2.228-7.796a4.998 4.998 0 0 0-.807-1.627l-3.003-4.003a5.011 5.011 0 0 1-.743-1.419l-.835-2.504a5.011 5.011 0 0 0-.743-1.419l-2.557-3.409a4.998 4.998 0 0 1-.999-3v-2.642a4.541 4.541 0 0 0-2.022-3.778l-.946-.63a2.419 2.419 0 0 1-1.076-2.011c0-.867-.464-1.668-1.217-2.098l-7.219-4.126a1.979 1.979 0 0 1-.998-1.719c0-.909-.618-1.701-1.5-1.921l-2.171-.543a2.27 2.27 0 0 1-1.72-2.203v-.55c0-.95-.77-1.721-1.721-1.721a1.72 1.72 0 0 1-1.475-.835l-2.086-3.476a5 5 0 0 0-4.287-2.428h-6.19c-.275 0-.55-.023-.822-.068l-7.27-1.212a5.019 5.019 0 0 0-.822-.068h-5.144c-.776 0-1.542-.18-2.236-.528l-1.45-.725a3.654 3.654 0 0 0-4.675 1.242 3.651 3.651 0 0 1-2.523 1.59l-5.604.801a4.998 4.998 0 0 0-3.453 2.176l-3.602 5.404a4.98 4.98 0 0 0-.743 1.793l-.96 4.799a4.995 4.995 0 0 1-.742 1.793l-1.873 2.809a4.954 4.954 0 0 1-.624.762l-5.951 5.95a1.5 1.5 0 0 0-.438 1.058c0 1.022-1 1.743-1.969 1.42l-4.997-1.666a5.004 5.004 0 0 1-1.955-1.208l-1.744-1.744a5 5 0 0 0-3.535-1.465h-.82a5 5 0 0 1-4-2l-1.397-1.863a5 5 0 0 0-3.02-1.903l-3.38-.676a4.997 4.997 0 0 1-2.556-1.368l-6.18-6.181a4.994 4.994 0 0 0-1.955-1.208l-1.804-.601a5.016 5.016 0 0 1-1.954-1.208l-2.23-2.23a5.003 5.003 0 0 1-1.315-2.323l-.879-3.515a4.987 4.987 0 0 0-.378-1.023l-2.291-4.583a5.004 5.004 0 0 1-.272-.655l-.708-2.125a5 5 0 0 1 0-3.162l.114-.342a5.001 5.001 0 0 0-.402-4.062l-3.623-6.341a4.996 4.996 0 0 1-.659-2.48v-1.331c0-.906-.246-1.796-.712-2.573l-2.869-4.781c-.306-.509-.7-.96-1.164-1.332l-5.185-4.148a4.997 4.997 0 0 0-1.91-.946l-2.75-.687a5.004 5.004 0 0 1-2.628-1.65l-4.969-5.964a3.124 3.124 0 0 1-.724-2.001c0-.985-.464-1.911-1.251-2.502l-3.856-2.892a4.93 4.93 0 0 1-.536-.465l-4.79-4.79a5.004 5.004 0 0 0-.761-.624l-3.632-2.421-3.63-2.421a5.01 5.01 0 0 1-.763-.625l-2.229-2.229a5 5 0 0 1-1.464-3.535v-.307a4.877 4.877 0 0 0-2.695-4.362l-1.97-.985a4.99 4.99 0 0 1-1.3-.936l-2.66-2.66a2.765 2.765 0 0 1 2.085-4.717l106.59 5.016a5 5 0 0 0 5.233-4.837l5.076-161.185Z" clip-rule="evenodd"/>
  <path fill="#fff" d="M366.697 143.398a8.047 8.047 0 0 0-8.047 8.047c0 1.59.462 3.063 1.258 4.311.038.061.068.12.108.18l4.992 9.268c.235.673.899 1.185 1.653 1.185s1.382-.512 1.616-1.185l5.569-10.059a8.034 8.034 0 0 0 .897-3.7 8.046 8.046 0 0 0-8.046-8.047Zm-.036 4.563a4.024 4.024 0 1 1 0 8.047 4.024 4.024 0 0 1 0-8.047Zm10.943-28.301a8.046 8.046 0 0 0-8.046 8.046c0 1.59.461 3.064 1.257 4.311.038.061.068.121.108.18l4.992 9.268c.235.673.899 1.185 1.653 1.185.755 0 1.382-.512 1.617-1.185l5.568-10.059a8.023 8.023 0 0 0 .898-3.7 8.046 8.046 0 0 0-8.047-8.046Zm-.036 4.562a4.024 4.024 0 1 1 0 8.047 4.024 4.024 0 0 1 0-8.047Zm-35.893 61.522a8.047 8.047 0 0 0-8.046 8.047c0 1.59.462 3.063 1.257 4.31.039.061.068.121.108.181l4.993 9.267a1.78 1.78 0 0 0 1.653 1.185c.754 0 1.381-.511 1.616-1.185l5.568-10.058a8.023 8.023 0 0 0 .898-3.7 8.047 8.047 0 0 0-8.047-8.047Zm-.035 4.562a4.024 4.024 0 1 1-.001 8.047 4.024 4.024 0 0 1 .001-8.047Zm-24.987-39.208a8.046 8.046 0 0 0-8.047 8.046c0 1.59.462 3.064 1.258 4.311.038.061.068.121.108.18l4.992 9.268c.235.673.899 1.185 1.653 1.185s1.382-.512 1.616-1.185l5.569-10.059a8.035 8.035 0 0 0 .898-3.7 8.046 8.046 0 0 0-8.047-8.046Zm-.036 4.562a4.024 4.024 0 1 1 0 8.047 4.024 4.024 0 0 1 0-8.047Z"/>
</svg>
