<svg width="180" height="84" viewBox="0 0 180 84" fill="none" xmlns="http://www.w3.org/2000/svg" style="max-width:100%;height:100%;">
<path d="M120.748 18.7284L119.003 17.4825L119.357 16.995C119.548 16.7377 119.821 16.7512 120.053 16.9138L120.748 17.4148C121.144 17.6992 121.512 17.7398 121.771 17.3742L122.166 16.8325L121.894 16.6429C121.703 16.6835 121.525 16.6429 121.321 16.5075L120.625 16.0064C120.325 15.7898 119.875 15.7492 119.507 16.0742C119.685 15.6137 119.535 15.2616 119.194 15.0179L118.73 14.6929C118.116 14.246 117.407 14.3814 116.916 15.0721L115.812 16.6023L120.094 19.6627L120.748 18.7419V18.7284ZM118.703 16.5481L118.362 17.0221L117.189 16.1825L117.557 15.6679C117.735 15.4377 117.925 15.4377 118.144 15.5867L118.594 15.9117C118.853 16.1012 118.88 16.3044 118.703 16.5481ZM130.948 9.6147C131.603 9.83137 131.93 10.0074 131.998 10.373C132.053 10.7251 131.903 10.9824 131.494 11.0501C131.085 11.1178 130.825 10.9147 130.757 10.4814L130.73 10.3053L129.707 10.4678L129.748 10.7387C129.898 11.6189 130.635 12.1064 131.657 11.9439C132.694 11.7814 133.198 10.9418 133.062 10.1022C132.939 9.34387 132.366 9.0324 131.575 8.74802C130.853 8.51781 130.525 8.35531 130.471 7.98968C130.416 7.67822 130.594 7.44801 130.921 7.39384C131.316 7.32613 131.548 7.56989 131.603 7.92197L131.63 8.08447L132.639 7.92197L132.598 7.71885C132.462 6.89279 131.725 6.36466 130.771 6.51362C129.707 6.68967 129.257 7.48863 129.38 8.2876C129.503 9.08657 130.239 9.38449 130.921 9.6147H130.948ZM137.78 12.4043C138.08 12.7835 138.748 13.2845 139.239 13.6773C139.403 13.8127 139.689 13.9345 139.716 13.9481C139.744 13.9616 139.785 13.9752 139.894 13.9481C139.975 13.921 140.235 13.8533 140.794 13.772C141.339 13.6908 141.898 13.6637 141.953 13.6637C142.007 13.6637 142.075 13.5689 141.953 13.5283C141.653 13.42 140.398 12.7022 140.112 12.0387C139.825 11.3751 139.948 10.6845 139.662 10.0887C139.307 9.34387 138.285 8.46365 138.08 8.34177C137.875 8.21989 137.739 8.04385 137.603 8.09802C137.18 8.26052 137.453 8.95115 137.166 9.30324C136.866 9.66887 136.839 10.2241 136.853 10.7928C136.866 11.3616 137.466 12.0387 137.766 12.4179L137.78 12.4043ZM124.58 14.7335L122.575 11.5918L123.435 12.4585L125.303 14.2731L126.025 13.8262L125.194 11.3616L124.771 10.2241L126.775 13.3658L127.675 12.797L124.853 8.36885L123.571 9.16782L124.485 11.7543L124.812 12.6345L124.157 11.9574L122.18 10.0345L120.898 10.847L123.721 15.2752L124.58 14.7335ZM142.88 13.5689C142.88 13.5689 142.88 13.6908 142.975 13.7043C143.085 13.7043 143.48 13.7314 143.794 13.7991C144.135 13.8668 144.462 13.9887 144.489 13.9752C144.544 13.9481 144.489 13.8398 144.489 13.5825C144.421 11.6189 146.207 10.9824 146.439 10.3866C146.535 10.1293 146.398 9.84491 146.139 8.88344C146.071 8.61261 145.921 8.23344 145.826 8.09802C145.757 7.98968 145.607 7.94906 145.539 8.24698C145.389 8.89699 144.544 9.83137 143.48 10.8606C142.989 11.3481 142.825 12.4449 142.853 13.0543C142.853 13.4335 142.88 13.5418 142.894 13.5825L142.88 13.5689ZM141.885 12.8241C141.885 12.8241 142.007 12.797 142.021 12.621C142.035 12.4314 142.198 11.5512 142.444 10.9824C142.689 10.4137 143.166 9.88554 143.248 9.79075C143.33 9.69595 143.371 9.58762 143.303 9.4522C143.248 9.31678 143.085 8.93761 143.03 8.77511C142.975 8.59906 142.88 8.19281 142.607 7.77301C142.335 7.35322 142.048 7.00113 141.994 6.97404C141.939 6.94696 141.898 6.91988 141.816 7.02821C141.748 7.15009 141.107 7.51572 140.875 8.53136C140.63 9.56054 140.494 10.197 141.094 11.8085C141.175 12.0387 141.571 12.7022 141.844 12.8377L141.885 12.8241ZM145.28 13.3929C145.185 13.7043 145.185 14.0293 145.185 14.1241C145.185 14.1918 145.239 14.246 145.307 14.2596C145.375 14.2731 146.303 14.6793 147.366 15.7356C147.762 16.1283 148.457 17.1846 148.512 17.2658C148.566 17.3471 148.635 17.32 148.662 17.2929C148.689 17.2658 148.716 17.2252 148.866 16.995C149.003 16.7648 149.098 16.3992 149.098 15.9252C149.098 15.4648 149.016 14.7877 148.375 14.1783C148.171 13.9752 147.912 13.5012 147.789 13.1762C147.325 12.0658 147.694 11.3345 147.803 11.1314C147.871 11.0095 147.803 10.8741 147.748 10.8199C147.68 10.7793 147.475 10.8876 147.421 10.9147C146.725 11.2939 145.757 11.6731 145.253 13.3793L145.28 13.3929ZM145.348 21.3148C145.348 21.3148 145.321 21.2065 145.266 21.2065C144.489 21.1388 143.739 21.0982 142.403 21.3419C141.066 21.5857 139.512 22.2492 139.457 22.2763C139.403 22.3034 139.362 22.3847 139.362 22.4388C139.389 22.5336 139.512 22.8451 140.194 23.6711C140.875 24.4836 142.157 25.0795 142.239 25.1201C142.335 25.1607 142.362 25.1336 142.416 25.0795C142.471 25.0253 142.921 23.8201 143.248 23.3461C144.326 21.8024 145.28 21.3555 145.335 21.3013L145.348 21.3148ZM143.644 17.4554C143.371 17.5367 143.235 17.6586 143.194 17.9023C143.153 18.1461 143.207 18.6471 143.644 18.6471C144.08 18.6471 144.353 18.4711 144.366 18.1054C144.38 17.7533 143.998 17.3335 143.644 17.4419V17.4554ZM143.057 26.0139C143.153 26.0409 144.353 26.3118 144.448 26.3253C144.544 26.3253 144.612 26.3253 144.625 26.2305C144.625 26.1899 144.83 25.4857 145.171 24.9982C145.73 24.1857 146.235 23.793 146.33 23.6982C146.425 23.6034 146.453 23.5763 146.412 23.5086C146.398 23.4815 146.33 23.3597 146.235 23.1024C146.125 22.8315 146.003 22.0326 146.003 21.9242C146.003 21.8159 145.894 21.8294 145.771 21.9242C145.662 22.0055 144.775 22.5336 144.025 23.6711C143.412 24.592 143.016 25.6618 143.003 25.7566C142.975 25.8514 142.948 26.0003 143.057 26.0274V26.0139ZM147.094 18.7013C147.475 18.1461 147.953 17.8075 147.953 17.7398C147.953 17.5773 147.585 17.1304 147.325 16.8325C146.985 16.4533 146.057 15.7898 145.28 15.695C144.366 15.5867 143.085 15.4919 141.325 16.3179C139.444 17.2117 138.353 18.3086 138.271 18.3763C138.216 18.4304 138.189 18.4846 138.189 18.6742C138.189 18.9044 138.189 19.6357 138.394 20.3263C138.598 21.0169 138.776 21.3284 138.816 21.3826C138.857 21.4367 138.912 21.4503 139.103 21.3826C139.307 21.3013 140.685 20.6648 142.716 20.394C144.748 20.1232 146.235 20.4211 146.316 20.4346C146.398 20.4346 146.412 20.2992 146.439 20.1638C146.494 19.8523 146.807 19.0669 147.066 18.7013H147.094ZM143.712 19.8117C142.907 19.8659 142.144 19.2971 142.035 18.2273C141.925 17.2117 142.798 16.5617 143.535 16.4804C144.107 16.4127 145.253 16.6971 145.335 18.0648C145.43 19.4325 144.189 19.7846 143.712 19.8117ZM141.871 26.6639C141.953 26.5555 141.83 26.5014 141.721 26.5555C140.003 27.4358 138.271 29.7785 137.425 32.1619C136.58 34.5452 136.662 36.8338 136.866 38.2286C137.194 40.5036 136.539 43.2797 136.457 43.6724C136.375 44.0651 136.607 44.0516 136.716 43.9433C136.771 43.8891 137.412 43.4828 138.175 42.0068C138.939 40.5307 139.157 37.5786 139.335 35.7911C139.512 34.0035 140.398 30.4962 140.657 29.7108C140.916 28.9254 141.789 26.7857 141.871 26.6774V26.6639ZM150.271 22.3305C150.175 22.3034 150.025 22.1815 148.716 21.8159C147.407 21.4503 146.944 21.369 146.78 21.5044C146.712 21.5721 146.685 22.1815 146.739 22.5065C146.794 22.8315 147.039 23.468 147.216 23.4951C147.394 23.5222 147.516 23.292 148.021 23.0888C148.335 22.9534 148.594 22.9534 149.098 22.8857C149.739 22.7909 150.162 22.5607 150.285 22.5065C150.38 22.4659 150.366 22.3711 150.257 22.3305H150.271ZM146.671 24.3211C146.671 24.3211 146.616 24.2941 146.562 24.3618C146.507 24.4295 145.485 25.6076 145.225 26.3524C144.953 27.0972 145.185 27.8691 145.294 28.2618C145.403 28.6545 145.403 29.467 145.43 29.6702C145.471 29.8733 145.566 29.9004 145.921 29.7379C146.275 29.5754 147.039 28.6681 147.203 27.5441C147.366 26.4201 147.203 25.8243 146.957 25.2149C146.835 24.9034 146.807 24.3888 146.671 24.3211ZM141.366 30.9702C141.353 30.7535 141.244 30.8077 141.189 30.9296C140.698 31.9046 139.321 36.4411 140.262 40.0838C140.807 42.2099 140.139 46.0693 139.771 47.1256C139.703 47.3152 139.935 47.3423 139.975 47.2068C140.016 47.112 140.875 45.8391 141.625 44.2547C142.375 42.6703 142.73 41.5057 142.757 40.5849C142.785 39.5557 142.621 38.2286 141.871 36.2244C141.271 34.6265 141.394 31.1733 141.38 30.9566L141.366 30.9702ZM144.08 31.7014C143.576 29.6972 144.285 27.3139 144.298 27.2597C144.298 27.1514 144.325 27.0566 144.23 27.043C144.148 27.043 143.998 27.0024 143.698 26.9482C143.412 26.8805 142.975 26.7587 142.866 26.7316C142.757 26.7045 142.716 26.7316 142.662 26.8399C141.939 28.2754 141.612 31.3764 142.839 36.4682C143.453 39.0005 145.321 42.3047 145.853 43.2391C146.385 44.187 146.589 45.2433 146.807 45.2704C147.012 45.2839 147.039 44.9453 147.053 44.1328C147.066 43.3203 146.766 39.5286 146.425 37.863C146.085 36.1973 144.462 33.2317 144.08 31.7014ZM134.112 0C118.921 0 106.566 12.2689 106.566 27.3545C106.566 42.4401 118.921 54.709 134.112 54.709C149.303 54.709 161.657 42.4401 161.657 27.3545C161.657 12.2689 149.303 0 134.112 0ZM134.112 53.9913C119.33 53.9913 107.303 42.0474 107.303 27.368C107.303 12.6887 119.33 0.731259 134.112 0.731259C148.894 0.731259 160.921 12.6752 160.921 27.3545C160.921 42.0339 148.894 53.9778 134.112 53.9778V53.9913ZM134.112 1.70627C119.862 1.70627 108.271 13.2168 108.271 27.368C108.271 41.5193 119.862 53.0298 134.112 53.0298C148.362 53.0298 159.953 41.5193 159.953 27.368C159.953 13.2168 148.362 1.69273 134.112 1.69273V1.70627ZM146.275 48.3308C146.235 47.8298 146.166 47.3693 146.098 46.9902C145.689 44.4714 144.053 41.5599 143.862 41.3161C143.671 41.0724 143.507 41.2484 143.575 41.4516C143.575 41.4516 143.903 45.3245 143.057 49.8881C142.73 50.0235 142.389 50.1454 142.048 50.2673C142.43 48.5746 142.525 47.2475 142.635 46.5704C142.921 44.6203 142.948 43.4693 142.948 43.2797C142.948 43.0901 142.73 43.063 142.539 43.6047C142.403 43.9703 141.012 47.6673 138.053 51.2694C137.657 51.3371 137.248 51.3913 136.853 51.4319C137.835 50.2267 138.285 49.211 138.612 48.4391C139.28 46.8412 139.512 45.4464 139.525 45.0266C139.539 44.5256 139.416 44.2141 139.225 44.7964C139.021 45.3922 138.189 47.6673 133.471 50.8496C133.144 51.0663 132.789 51.2965 132.421 51.5131C131.93 51.4725 131.453 51.4319 130.976 51.3642C131.726 50.9444 132.571 50.4433 133.512 49.8475C139.157 46.2589 139.662 41.2484 139.689 41.1807C139.703 41.113 139.716 40.9099 139.594 40.9505C139.498 40.9911 138.544 43.2526 137.412 44.2818C136.266 45.311 135.407 45.3787 135.271 45.1891C135.135 44.986 135.666 43.9839 135.898 42.9412C136.321 41.0588 136.457 39.1901 136.307 38.039C136.212 37.3348 136.048 37.3755 136.035 37.6192C136.021 37.863 135.775 41.9661 133.444 45.8527C132.244 47.8704 130.335 49.6579 128.698 50.9579C128.385 50.8902 128.085 50.809 127.785 50.7277C128.18 50.4433 128.562 50.1454 128.944 49.8475C132.421 47.1256 134.057 43.0766 134.153 42.8328C134.33 42.3589 134.166 42.1557 133.948 42.5078C133.321 43.5099 131.93 44.187 131.385 44.4308C130.839 44.6745 130.866 44.2141 130.948 44.011C131.03 43.8078 131.698 42.1693 131.889 41.1672C132.366 38.6078 131.671 36.0077 131.548 36.0213C131.425 36.0348 131.071 37.3484 130.962 37.8765C130.798 38.6755 130.566 40.788 130.73 41.4786C130.894 42.1693 130.553 42.1557 130.389 42.0745C130.225 41.9932 129.789 41.7224 129.135 40.9911C128.48 40.2599 127.975 38.9599 127.921 38.7703C127.866 38.5671 127.716 38.6349 127.703 38.8651C127.553 41.7766 125.439 45.7579 122.644 48.6558C122.357 48.5069 122.085 48.3444 121.812 48.1819C123.789 46.3266 124.648 44.6203 125.412 43.2932C126.775 40.9234 127.212 38.4453 127.362 36.9286C127.444 36.1432 127.785 34.3556 127.812 34.0848C127.839 33.814 127.73 33.8681 127.607 34.0035C127.485 34.139 126.503 35.6963 125.098 37.7005C124.212 38.9734 121.716 42.6568 118.457 45.812C118.212 45.6089 117.966 45.4058 117.735 45.1891C121.212 41.763 125.535 35.615 125.63 35.4525C125.739 35.2629 125.548 35.2088 125.153 35.4119C124.321 35.8452 123.462 35.9536 121.089 36.1838C119.057 36.3734 116.562 36.2244 111.966 37.3078C110.575 34.2608 109.785 30.8754 109.785 27.3139C109.785 13.9616 120.721 3.11462 134.153 3.11462C147.585 3.11462 158.535 13.9752 158.535 27.3139C158.535 36.265 153.612 44.0922 146.316 48.2766L146.275 48.3308ZM151.444 22.1138C151.389 21.9378 151.062 21.0305 150.298 20.0961C149.535 19.1617 148.785 18.4711 148.621 18.4034C148.444 18.3356 148.28 18.295 148.089 18.4711C147.898 18.6471 147.83 18.7284 147.503 19.2294C147.189 19.7305 146.985 20.5023 146.971 20.57C146.957 20.6378 146.944 20.7325 147.148 20.7461C147.339 20.7461 148.675 20.9086 149.766 21.4232C150.857 21.9378 151.239 22.2492 151.321 22.3034C151.403 22.3576 151.498 22.2763 151.444 22.1138ZM138.203 26.3795C139.635 25.8378 141.285 25.6753 141.339 25.6753C141.394 25.6753 141.421 25.5805 141.353 25.5399C141.244 25.4722 140.357 25.093 139.662 24.3618C139.185 23.8607 138.625 22.994 138.557 22.8586C138.503 22.7638 138.475 22.6961 138.244 22.7503C138.053 22.7909 135.844 23.0347 131.835 28.167C128.357 32.6223 128.425 34.9786 128.289 36.6307C128.153 38.2828 129.639 40.4901 129.748 40.6797C129.803 40.7609 129.912 40.7338 129.898 40.5984C129.871 40.3953 130.048 37.4432 131.848 33.015C133.744 28.3701 137.221 26.7722 138.189 26.4066L138.203 26.3795ZM142.716 15.2346C144.23 14.9637 145.089 15.2616 145.457 15.2887C145.716 15.3158 145.689 15.0044 145.471 14.9231C142.171 13.5825 137.439 14.395 133.853 18.2815C130.253 22.168 126.666 28.8035 124.839 31.566C123.012 34.3285 119.766 34.7348 119.521 34.7754C119.289 34.8025 119.248 34.9786 119.425 35.0869C119.63 35.2223 120.721 35.4254 121.157 35.4525C123.557 35.5338 126.312 34.5588 127.921 32.4056C133.635 24.8357 133.839 22.3711 136.307 19.5002C138.625 16.8054 141.216 15.5189 142.73 15.2481L142.716 15.2346ZM137.357 19.4325C137.303 19.3377 137.207 19.3513 137.098 19.5002C136.907 19.744 135.244 21.694 133.73 24.7409C133.635 24.9441 133.648 25.1878 133.894 24.9847C134.139 24.7816 135.38 23.5763 136.335 22.994C137.371 22.3576 137.671 22.2492 137.794 22.168C137.998 22.0461 138.066 21.9513 138.012 21.7888C137.957 21.6263 137.63 20.9357 137.521 20.3805C137.453 20.0555 137.412 19.5138 137.357 19.419V19.4325ZM113.33 22.6284L118.089 25.2149L118.375 24.1993L117.421 23.7118L117.707 22.669L118.771 22.7367L119.071 21.6534L113.657 21.4232L113.316 22.6419L113.33 22.6284ZM116.862 22.5878L116.657 23.3326L114.912 22.4388L116.862 22.5878ZM140.221 26.7993C140.344 26.7316 140.207 26.6097 140.112 26.6368C137.466 27.3816 135.23 28.8847 133.648 31.3764C132.066 33.8681 132.462 36.2379 132.68 38.2828C132.898 40.314 132.448 42.1557 132.366 42.5078C132.285 42.8464 132.08 43.1172 132.175 43.1985C132.298 43.2932 133.062 42.8599 133.962 41.2484C134.998 39.3797 135.148 37.7411 135.421 36.1567C135.694 34.5723 136.348 32.2431 137.385 30.2118C138.421 28.1806 140.085 26.8805 140.207 26.7993H140.221ZM115.853 28.8035L115.785 27.5441L114.871 27.5847L114.939 28.8441L113.685 28.9118L113.589 27.1785L112.675 27.2326L112.825 30.09L118.103 29.8191L118.048 28.6951L115.866 28.8035H115.853Z" fill="#B11F28"/>
<path d="M10.8818 44.29L13.3909 25.9679L15.6818 44.29H21.4909L27.0955 9.02708H20.9591L18.5045 30.4773L16.2682 9.02708H11.3591L8.90455 30.4773L6.66818 9.02708H0L5.22273 44.29H10.8682H10.8818ZM8.7 55.3537C8.7 53.9724 9.65455 53.2818 10.6773 53.2818C11.7 53.2818 12.4364 54.0266 12.4364 55.2995V58.7933H18.3545V55.7193C18.3545 50.7359 15.2591 47.4588 10.6773 47.4588C4.92273 47.4588 2.08636 51.5891 2.08636 56.41C2.08636 60.8111 5.34545 65.0361 8.00455 68.0018C10.4045 70.9674 12.1091 73.1341 12.1091 75.9915C12.1091 77.4675 11.4136 78.3206 10.0227 78.3206C8.63182 78.3206 7.84091 77.3727 7.84091 75.9373V72.6602H1.92273V75.7342C1.92273 80.9748 5.07273 84.0488 10.35 84.0488C15.0955 84.0488 18.7227 80.7176 18.7227 75.1519C18.7227 70.6018 15.7364 66.8913 12.8591 63.4517C10.4045 60.2152 8.7 58.7392 8.7 55.3537ZM70.3909 24.8981L71.9864 29.8273L76.5136 44.29H82.1591V9.01354H76.1864V28.4461L74.7409 23.4627L70.6364 9H64.35V44.2629H70.3773V24.8846L70.3909 24.8981ZM24.4909 48.0953L19.3227 83.3582H25.5136L26.1 77.6977H30.15L30.6273 83.3582H37.5L32.3864 48.0953H24.4909ZM26.8364 72.1862L28.3773 58.4683L29.55 72.1862H26.8364ZM100.732 38.0879H93.1091V28.9336H98.1273V23.4221H93.1091V14.999H100.732V9.01354H86.2773V44.2765H100.732V38.0743V38.0879ZM32.1545 44.29L32.7409 38.6295H36.7909L37.2682 44.29H44.1409L39.0273 9.02708H31.1318L25.9636 44.29H32.1545ZM35.0318 19.4001L36.2045 33.118H33.4909L35.0318 19.4001ZM48.7909 44.29H55.6227V29.9357L61.9636 9.01354H55.2409L52.6227 22.2033L49.7455 9.01354H42.8727L48.7909 29.9357V44.29ZM173.673 48.7317H174.518V51.3182H175.391V48.7317H176.236V48.0276H173.686V48.7317H173.673ZM50.9318 67.5278L49.4864 62.5444L45.3818 48.0817H39.0955V83.3447H45.1227V63.9663L46.7182 68.8955L51.2455 83.3582H56.8909V48.0953H50.9182V67.5278H50.9318ZM166.009 67.5278L164.564 62.5444L160.459 48.0817H154.173V83.3447H160.2V63.9663L161.795 68.8955L166.323 83.3582H171.968V48.0953H165.995V67.5278H166.009ZM122.018 55.3537C122.018 53.9724 122.973 53.2818 123.995 53.2818C125.018 53.2818 125.755 54.0266 125.755 55.2995V58.7933H131.673V55.7193C131.673 50.7359 128.577 47.4588 123.995 47.4588C118.241 47.4588 115.405 51.5891 115.405 56.41C115.405 60.8111 118.664 65.0361 121.323 68.0018C123.723 70.9674 125.427 73.1341 125.427 75.9915C125.427 77.4675 124.732 78.3206 123.341 78.3206C121.95 78.3206 121.159 77.3727 121.159 75.9373V72.6602H115.241V75.7342C115.241 80.9748 118.391 84.0488 123.668 84.0488C128.414 84.0488 132.041 80.7176 132.041 75.1519C132.041 70.6018 129.055 66.8913 126.177 63.4517C123.723 60.2152 122.018 58.7392 122.018 55.3537ZM178.855 48.0276L178.432 49.5984L178.309 50.113L178.186 49.5984L177.764 48.0276H176.591V51.3182H177.355V49.1245L177.532 49.8015L177.955 51.3182H178.555L178.991 49.8015L179.155 49.1245V51.3182H180V48.0276H178.855ZM142.814 47.4588C137.959 47.4588 134.182 50.7359 134.182 55.5568V75.8967C134.182 80.7176 137.973 84.0488 142.814 84.0488C147.655 84.0488 151.405 80.7176 151.405 75.8967V55.5568C151.405 50.7359 147.614 47.4588 142.814 47.4588ZM144.409 76.3165C144.409 77.2644 143.714 77.8467 142.814 77.8467C141.914 77.8467 141.164 77.2644 141.164 76.3165V55.137C141.164 54.1891 141.914 53.6068 142.814 53.6068C143.714 53.6068 144.409 54.1891 144.409 55.137V76.3165ZM68.7955 48.0953H59.9455V83.3582H68.7955C73.4318 83.3582 76.95 80.8665 76.95 75.5717V56.3016C76.95 51.0068 73.4318 48.0953 68.7955 48.0953ZM70.1318 75.2602C70.1318 76.7363 69.5455 77.4811 68.2091 77.4811H66.8182V53.9724H68.2091C69.5455 53.9724 70.1318 54.7714 70.1318 56.2475V75.2602ZM79.7864 83.3582H94.2409V77.1561H86.6182V68.0018H91.6364V62.4902H86.6182V54.0672H94.2409V48.0817H79.7864V83.3447V83.3582ZM113.114 70.656C113.114 68.9091 111.941 67.2705 110.182 66.309C111.941 65.3069 113.005 63.709 113.005 61.9621V54.9204C113.005 50.2078 109.541 48.0953 106.173 48.0953H96.6818V83.3582H103.555V69.0039H105.15C106.105 69.0039 106.595 69.9518 106.595 70.8591V77.9009C106.595 80.1217 107.182 83.3582 108.245 83.3582H114V83.1957C113.523 81.503 113.1 79.7019 113.1 77.4811V70.656H113.114ZM106.445 62.1788C106.445 63.3434 106.023 63.7632 105.273 63.7632H103.568V53.8099H105.273C106.023 53.8099 106.445 54.2297 106.445 55.3943V62.1788Z" fill="black"/>
</svg>
