<svg width="412" height="192" viewBox="0 0 412 192" fill="none" xmlns="http://www.w3.org/2000/svg" style="max-width:100%;">
<g clip-path="url(#clip0_9_35811)">
<path d="M276.38 42.8077L272.384 39.96L273.196 38.8457C273.633 38.2576 274.257 38.2886 274.788 38.66L276.38 39.8053C277.285 40.4553 278.127 40.5481 278.72 39.7124L279.626 38.4743L279.001 38.041C278.564 38.1338 278.159 38.0409 277.69 37.7314L276.099 36.5862C275.412 36.0909 274.382 35.9981 273.539 36.7409C273.945 35.6885 273.602 34.8838 272.821 34.3266L271.76 33.5838C270.356 32.5623 268.733 32.8718 267.609 34.4504L265.081 37.9481L274.881 44.9434L276.38 42.8386V42.8077ZM271.698 37.8243L270.917 38.9076L268.233 36.9886L269.076 35.8123C269.482 35.2862 269.919 35.2862 270.418 35.6266L271.448 36.3695C272.041 36.8028 272.103 37.2671 271.698 37.8243ZM299.726 21.9765C301.224 22.4717 301.973 22.8741 302.13 23.7098C302.254 24.5146 301.911 25.1027 300.975 25.2575C300.038 25.4122 299.445 24.9479 299.289 23.9574L299.227 23.5551L296.886 23.9265L296.98 24.5455C297.323 26.5575 299.008 27.6718 301.349 27.3003C303.721 26.9289 304.876 25.0098 304.564 23.0908C304.283 21.3574 302.972 20.6455 301.162 19.9955C299.508 19.4693 298.759 19.0979 298.634 18.2621C298.509 17.5502 298.915 17.024 299.664 16.9002C300.569 16.7454 301.1 17.3026 301.224 18.1074L301.287 18.4788L303.596 18.1074L303.503 17.6431C303.191 15.755 301.505 14.5478 299.32 14.8883C296.886 15.2907 295.856 17.1169 296.137 18.9431C296.418 20.7693 298.103 21.4503 299.664 21.9765H299.726ZM315.363 28.3527C316.05 29.2194 317.58 30.3647 318.703 31.2623C319.078 31.5718 319.733 31.8504 319.796 31.8813C319.858 31.9123 319.952 31.9433 320.201 31.8813C320.389 31.8194 320.982 31.6647 322.261 31.479C323.51 31.2932 324.79 31.2313 324.914 31.2313C325.039 31.2313 325.195 31.0147 324.914 30.9218C324.228 30.6742 321.356 29.0337 320.701 27.517C320.045 26.0003 320.326 24.4217 319.671 23.0598C318.859 21.3574 316.518 19.3455 316.05 19.0669C315.582 18.7883 315.27 18.3859 314.958 18.5098C313.99 18.8812 314.614 20.4598 313.959 21.2645C313.272 22.1003 313.21 23.3693 313.241 24.6694C313.272 25.9694 314.646 27.517 315.332 28.3837L315.363 28.3527ZM285.15 33.6766L280.562 26.4956L282.528 28.4765L286.804 32.6242L288.459 31.6028L286.555 25.9694L285.587 23.3693L290.175 30.5504L292.235 29.2504L285.774 19.1288L282.84 20.955L284.932 26.867L285.681 28.8789L284.183 27.3313L279.657 22.936L276.723 24.7932L283.184 34.9147L285.15 33.6766ZM327.037 31.0147C327.037 31.0147 327.037 31.2932 327.255 31.3242C327.505 31.3242 328.41 31.3861 329.128 31.5409C329.908 31.6956 330.657 31.9742 330.72 31.9433C330.845 31.8813 330.72 31.6337 330.72 31.0456C330.564 26.5575 334.653 25.1027 335.183 23.7408C335.402 23.1527 335.09 22.5027 334.496 20.305C334.34 19.686 333.997 18.8193 333.779 18.5098C333.623 18.2621 333.279 18.1693 333.123 18.8502C332.78 20.336 330.845 22.4717 328.41 24.8241C327.287 25.9384 326.912 28.4456 326.974 29.8385C326.974 30.7051 327.037 30.9528 327.068 31.0456L327.037 31.0147ZM324.758 29.3123C324.758 29.3123 325.039 29.2504 325.07 28.848C325.102 28.4146 325.476 26.4027 326.038 25.1027C326.6 23.8027 327.692 22.5955 327.88 22.3788C328.067 22.1622 328.16 21.9146 328.004 21.605C327.88 21.2955 327.505 20.4288 327.38 20.0574C327.255 19.655 327.037 18.7264 326.413 17.7669C325.788 16.8074 325.133 16.0026 325.008 15.9407C324.883 15.8788 324.79 15.8169 324.602 16.0645C324.446 16.3431 322.979 17.1788 322.449 19.5002C321.887 21.8527 321.575 23.3074 322.948 26.9908C323.135 27.517 324.04 29.0337 324.665 29.3432L324.758 29.3123ZM332.53 30.6123C332.312 31.3242 332.312 32.0671 332.312 32.2837C332.312 32.4385 332.436 32.5623 332.593 32.5933C332.749 32.6242 334.871 33.5528 337.306 35.9671C338.211 36.8647 339.803 39.2791 339.927 39.4648C340.052 39.6505 340.208 39.5886 340.271 39.5267C340.333 39.4648 340.396 39.3719 340.739 38.8457C341.051 38.3195 341.27 37.4838 341.27 36.4005C341.27 35.3481 341.082 33.8004 339.615 32.4075C339.147 31.9433 338.554 30.8599 338.273 30.117C337.212 27.5789 338.055 25.9075 338.304 25.4432C338.46 25.1646 338.304 24.8551 338.18 24.7313C338.023 24.6384 337.555 24.886 337.43 24.9479C335.839 25.8146 333.623 26.6813 332.468 30.5813L332.53 30.6123ZM332.686 48.7197C332.686 48.7197 332.624 48.472 332.499 48.472C330.72 48.3173 329.003 48.2244 325.944 48.7816C322.886 49.3387 319.327 50.8554 319.203 50.9173C319.078 50.9792 318.984 51.1649 318.984 51.2887C319.046 51.5054 319.327 52.2173 320.888 54.1054C322.449 55.9626 325.383 57.3245 325.57 57.4174C325.788 57.5102 325.851 57.4483 325.976 57.3245C326.1 57.2007 327.13 54.4459 327.88 53.3626C330.345 49.834 332.53 48.8125 332.655 48.6887L332.686 48.7197ZM328.785 39.8981C328.16 40.0838 327.848 40.3624 327.755 40.9196C327.661 41.4767 327.786 42.622 328.785 42.622C329.783 42.622 330.408 42.2196 330.439 41.3838C330.47 40.5791 329.596 39.6195 328.785 39.8672V39.8981ZM327.443 59.4603C327.661 59.5222 330.408 60.1412 330.626 60.1722C330.845 60.1722 331.001 60.1722 331.032 59.9555C331.032 59.8627 331.5 58.2531 332.28 57.1388C333.56 55.2816 334.715 54.384 334.933 54.1673C335.152 53.9507 335.214 53.8888 335.121 53.734C335.09 53.6721 334.933 53.3935 334.715 52.8054C334.465 52.1864 334.184 50.3602 334.184 50.1125C334.184 49.8649 333.935 49.8959 333.654 50.1125C333.404 50.2982 331.375 51.5054 329.659 54.1054C328.254 56.2102 327.349 58.6555 327.318 58.8722C327.255 59.0888 327.193 59.4293 327.443 59.4912V59.4603ZM336.681 42.7458C337.555 41.4767 338.648 40.7029 338.648 40.5481C338.648 40.1767 337.805 39.1553 337.212 38.4743C336.432 37.6076 334.309 36.0909 332.53 35.8743C330.439 35.6266 327.505 35.41 323.479 37.2981C319.171 39.341 316.674 41.8481 316.487 42.0029C316.362 42.1267 316.3 42.2505 316.3 42.6839C316.3 43.2101 316.3 44.8815 316.768 46.4601C317.236 48.0387 317.642 48.7506 317.736 48.8744C317.829 48.9982 317.954 49.0292 318.391 48.8744C318.859 48.6887 322.012 47.2339 326.662 46.6149C331.313 45.9958 334.715 46.6768 334.902 46.7077C335.09 46.7077 335.121 46.3982 335.183 46.0887C335.308 45.3768 336.026 43.5815 336.619 42.7458H336.681ZM328.941 45.2839C327.099 45.4077 325.351 44.1077 325.102 41.6624C324.852 39.341 326.85 37.8552 328.535 37.6695C329.846 37.5148 332.468 38.1648 332.655 41.291C332.873 44.4172 330.033 45.222 328.941 45.2839ZM324.727 60.946C324.914 60.6984 324.633 60.5746 324.384 60.6984C320.451 62.7103 316.487 68.0651 314.552 73.5128C312.617 78.9605 312.804 84.1915 313.272 87.3797C314.021 92.5797 312.523 98.925 312.336 99.8227C312.149 100.72 312.679 100.689 312.929 100.442C313.054 100.318 314.521 99.3893 316.269 96.0155C318.017 92.6416 318.516 85.8939 318.922 81.8082C319.327 77.7224 321.356 69.7056 321.949 67.9104C322.542 66.1151 324.54 61.2246 324.727 60.977V60.946ZM343.954 51.0411C343.735 50.9792 343.392 50.7006 340.396 49.8649C337.399 49.0292 336.338 48.8435 335.963 49.153C335.807 49.3078 335.745 50.7006 335.87 51.4435C335.995 52.1864 336.556 53.6411 336.962 53.703C337.368 53.765 337.649 53.2388 338.804 52.7745C339.522 52.4649 340.115 52.4649 341.27 52.3102C342.736 52.0935 343.704 51.5673 343.985 51.4435C344.203 51.3506 344.172 51.134 343.923 51.0411H343.954ZM335.714 55.5912C335.714 55.5912 335.589 55.5293 335.464 55.684C335.339 55.8388 332.998 58.5317 332.405 60.2341C331.781 61.9365 332.312 63.7008 332.561 64.5984C332.811 65.4961 332.811 67.3532 332.873 67.8175C332.967 68.2818 333.186 68.3437 333.997 67.9723C334.809 67.6008 336.556 65.527 336.931 62.9579C337.306 60.3888 336.931 59.0269 336.369 57.6341C336.088 56.9221 336.026 55.7459 335.714 55.5912ZM323.572 70.789C323.541 70.2937 323.291 70.4175 323.167 70.6961C322.043 72.9247 318.89 83.2939 321.044 91.6202C322.293 96.4798 320.763 105.301 319.92 107.716C319.764 108.149 320.295 108.211 320.389 107.901C320.482 107.685 322.449 104.775 324.165 101.154C325.882 97.5322 326.693 94.8702 326.756 92.7654C326.818 90.413 326.444 87.3797 324.727 82.7987C323.354 79.1462 323.635 71.2533 323.603 70.758L323.572 70.789ZM329.783 72.4604C328.629 67.8794 330.252 62.4317 330.283 62.3079C330.283 62.0603 330.345 61.8436 330.127 61.8127C329.94 61.8127 329.596 61.7198 328.91 61.596C328.254 61.4412 327.255 61.1627 327.006 61.1008C326.756 61.0389 326.662 61.1008 326.537 61.3484C324.883 64.6294 324.134 71.7176 326.943 83.3558C328.348 89.144 332.624 96.6964 333.841 98.8322C335.058 100.999 335.527 103.413 336.026 103.475C336.494 103.506 336.556 102.732 336.588 100.875C336.619 99.0179 335.932 90.3511 335.152 86.5439C334.372 82.7367 330.657 75.9581 329.783 72.4604ZM306.967 0C272.197 0 243.919 28.0432 243.919 62.5246C243.919 97.006 272.197 125.049 306.967 125.049C341.738 125.049 370.016 97.006 370.016 62.5246C370.016 28.0432 341.738 0 306.967 0ZM306.967 123.409C273.133 123.409 245.604 96.1083 245.604 62.5555C245.604 29.0027 273.133 1.67145 306.967 1.67145C340.801 1.67145 368.33 28.9718 368.33 62.5246C368.33 96.0774 340.801 123.378 306.967 123.378V123.409ZM306.967 3.90005C274.351 3.90005 247.82 30.2099 247.82 62.5555C247.82 94.9012 274.351 121.211 306.967 121.211C339.584 121.211 366.114 94.9012 366.114 62.5555C366.114 30.2099 339.584 3.8691 306.967 3.8691V3.90005ZM334.809 110.47C334.715 109.325 334.559 108.273 334.403 107.406C333.466 101.649 329.721 94.994 329.284 94.4369C328.847 93.8797 328.473 94.2821 328.629 94.7464C328.629 94.7464 329.378 103.599 327.443 114.03C326.693 114.34 325.913 114.618 325.133 114.897C326.007 111.028 326.225 107.994 326.475 106.447C327.13 101.989 327.193 99.3584 327.193 98.925C327.193 98.4917 326.693 98.4298 326.257 99.6679C325.944 100.504 322.761 108.954 315.988 117.187C315.083 117.342 314.146 117.466 313.241 117.559C315.488 114.804 316.518 112.482 317.267 110.718C318.797 107.066 319.327 103.877 319.359 102.918C319.39 101.773 319.109 101.061 318.672 102.392C318.204 103.754 316.3 108.954 305.5 116.228C304.751 116.723 303.94 117.249 303.097 117.744C301.973 117.651 300.881 117.559 299.789 117.404C301.505 116.444 303.44 115.299 305.594 113.937C318.516 105.735 319.671 94.2821 319.733 94.1274C319.764 93.9726 319.796 93.5083 319.515 93.6012C319.296 93.694 317.111 98.8631 314.521 101.216C311.899 103.568 309.933 103.723 309.62 103.289C309.308 102.825 310.526 100.535 311.056 98.1512C312.024 93.8488 312.336 89.5773 311.993 86.9463C311.774 85.3368 311.4 85.4296 311.368 85.9868C311.337 86.5439 310.775 95.9226 305.438 104.806C302.691 109.418 298.322 113.504 294.576 116.475C293.858 116.32 293.172 116.135 292.485 115.949C293.39 115.299 294.264 114.618 295.138 113.937C303.097 107.716 306.843 98.4607 307.061 97.9036C307.467 96.8203 307.092 96.356 306.593 97.1607C305.157 99.4512 301.973 100.999 300.725 101.556C299.477 102.113 299.539 101.061 299.726 100.596C299.913 100.132 301.443 96.3869 301.88 94.0964C302.972 88.2463 301.38 82.3034 301.1 82.3344C300.819 82.3653 300.007 85.3677 299.757 86.5749C299.383 88.4011 298.852 93.2297 299.227 94.8083C299.601 96.3869 298.821 96.356 298.447 96.1702C298.072 95.9845 297.073 95.3655 295.575 93.694C294.077 92.0226 292.922 89.0511 292.797 88.6178C292.672 88.1535 292.329 88.3082 292.298 88.8344C291.954 95.4893 287.117 104.589 280.718 111.213C280.063 110.873 279.438 110.501 278.814 110.13C283.34 105.889 285.306 101.989 287.054 98.956C290.175 93.5393 291.174 87.8749 291.517 84.4082C291.705 82.6129 292.485 78.5272 292.547 77.9081C292.61 77.2891 292.36 77.4129 292.079 77.7224C291.798 78.0319 289.551 81.5915 286.336 86.1725C284.307 89.0821 278.596 97.5012 271.136 104.713C270.574 104.249 270.012 103.785 269.482 103.289C277.441 95.4583 287.335 81.4058 287.553 81.0343C287.803 80.601 287.366 80.4772 286.461 80.9415C284.557 81.932 282.591 82.1796 277.16 82.7058C272.509 83.1391 266.797 82.7986 256.279 85.2749C253.095 78.3105 251.285 70.5723 251.285 62.4317C251.285 31.9123 276.317 7.11914 307.061 7.11914C337.805 7.11914 362.868 31.9433 362.868 62.4317C362.868 82.8915 351.601 100.782 334.902 110.347L334.809 110.47ZM346.638 50.5459C346.513 50.1435 345.764 48.0696 344.016 45.9339C342.268 43.7982 340.552 42.2196 340.177 42.0648C339.771 41.91 339.397 41.8172 338.96 42.2196C338.523 42.622 338.367 42.8077 337.618 43.9529C336.9 45.0982 336.432 46.8625 336.4 47.0173C336.369 47.172 336.338 47.3887 336.806 47.4196C337.243 47.4196 340.302 47.7911 342.799 48.9673C345.296 50.1435 346.17 50.8554 346.357 50.9792C346.544 51.103 346.763 50.9173 346.638 50.5459ZM316.331 60.296C319.608 59.0579 323.385 58.6864 323.51 58.6864C323.635 58.6864 323.697 58.4698 323.541 58.3769C323.291 58.2222 321.263 57.3555 319.671 55.684C318.578 54.5388 317.299 52.5578 317.143 52.2483C317.018 52.0316 316.955 51.8768 316.425 52.0006C315.988 52.0935 310.931 52.6507 301.755 64.3818C293.796 74.5652 293.952 79.951 293.64 83.7272C293.328 87.5035 296.73 92.5488 296.98 92.9821C297.104 93.1678 297.354 93.1059 297.323 92.7964C297.26 92.3321 297.666 85.5844 301.786 75.4628C306.125 64.846 314.084 61.1936 316.3 60.3579L316.331 60.296ZM326.662 34.8219C330.127 34.2028 332.093 34.8838 332.936 34.9457C333.529 35.0076 333.466 34.2957 332.967 34.11C325.414 31.0456 314.583 32.9028 306.374 41.7862C298.134 50.6697 289.926 65.8365 285.743 72.1509C281.561 78.4653 274.132 79.3938 273.57 79.4867C273.04 79.5486 272.946 79.951 273.352 80.1986C273.82 80.5081 276.317 80.9724 277.316 81.0343C282.809 81.2201 289.114 78.9915 292.797 74.07C305.875 56.7674 306.343 51.134 311.993 44.572C317.299 38.4124 323.229 35.4719 326.693 34.8528L326.662 34.8219ZM314.396 44.4172C314.271 44.2006 314.053 44.2315 313.803 44.572C313.366 45.1291 309.558 49.5863 306.093 56.5507C305.875 57.015 305.906 57.5721 306.468 57.1079C307.03 56.6436 309.87 53.8888 312.055 52.5578C314.427 51.103 315.114 50.8554 315.395 50.6697C315.863 50.3911 316.019 50.1744 315.894 49.803C315.769 49.4316 315.02 47.853 314.77 46.5839C314.614 45.841 314.521 44.6029 314.396 44.3863V44.4172ZM259.4 51.7221L270.293 57.6341L270.949 55.3126L268.764 54.1983L269.419 51.8149L271.854 51.9697L272.54 49.4935L260.149 48.9673L259.369 51.753L259.4 51.7221ZM267.484 51.6292L267.016 53.3316L263.021 51.2887L267.484 51.6292ZM320.95 61.2555C321.231 61.1008 320.919 60.8222 320.701 60.8841C314.646 62.5865 309.527 66.0222 305.906 71.7176C302.286 77.4129 303.191 82.8296 303.69 87.5035C304.19 92.1464 303.16 96.356 302.972 97.1607C302.785 97.9345 302.317 98.5536 302.535 98.7393C302.816 98.956 304.564 97.9655 306.624 94.2821C308.996 90.0106 309.34 86.2654 309.964 82.6439C310.588 79.0224 312.086 73.6985 314.458 69.0556C316.83 64.4127 320.638 61.4412 320.919 61.2555H320.95ZM265.174 65.8365L265.018 62.9579L262.927 63.0508L263.083 65.9294L260.212 66.0842L259.993 62.1222L257.902 62.246L258.245 68.777L270.324 68.158L270.2 65.5889L265.206 65.8365H265.174Z" fill="white"/>
<path d="M24.9073 101.233L30.6503 59.3541L35.8939 101.233H49.1903L62.0185 20.6322H47.973L42.3548 69.6614L37.2361 20.6322H25.9997L20.3815 69.6614L15.2627 20.6322H0L11.9542 101.233H24.8761H24.9073ZM19.9133 126.522C19.9133 123.364 22.0982 121.786 24.4391 121.786C26.78 121.786 28.4655 123.488 28.4655 126.398V134.384H42.0115V127.357C42.0115 115.967 34.9264 108.476 24.4391 108.476C11.2676 108.476 4.77545 117.917 4.77545 128.936C4.77545 138.996 12.2352 148.653 18.3215 155.432C23.8148 162.21 27.7164 167.163 27.7164 173.694C27.7164 177.068 26.1245 179.018 22.9409 179.018C19.7573 179.018 17.947 176.851 17.947 173.57V166.079H4.40091V173.106C4.40091 185.084 11.6109 192.111 23.69 192.111C34.5518 192.111 42.8542 184.496 42.8542 171.775C42.8542 161.374 36.0188 152.893 29.433 145.031C23.8148 137.634 19.9133 134.26 19.9133 126.522ZM161.117 56.9089L164.769 68.1757L175.131 101.233H188.053V20.6013H174.382V65.0185L171.074 53.6279L161.679 20.5703H147.29V101.171H161.086V56.8779L161.117 56.9089ZM56.057 109.931L44.2276 190.532H58.3979L59.74 177.594H69.01L70.1024 190.532H85.8333L74.1288 109.931H56.057ZM61.4255 164.996L64.9524 133.641L67.6367 164.996H61.4255ZM230.564 87.0569H213.116V66.1328H224.602V53.535H213.116V34.2824H230.564V20.6013H197.479V101.202H230.564V87.0259V87.0569ZM73.5982 101.233L74.9403 88.295H84.2103L85.3027 101.233H101.034L89.3291 20.6322H71.2573L59.4279 101.233H73.5982ZM80.1839 44.342L82.8682 75.6972H76.657L80.1839 44.342ZM111.677 101.233H127.314V68.4233L141.828 20.6013H126.44L120.448 50.7493L113.862 20.6013H98.1309L111.677 68.4233V101.233ZM397.518 111.386H399.453V117.298H401.45V111.386H403.385V109.776H397.549V111.386H397.518ZM116.577 154.348L113.269 142.958L103.874 109.9H89.4851V190.501H103.281V146.208L106.933 157.474L117.295 190.532H130.217V109.931H116.546V154.348H116.577ZM379.976 154.348L376.668 142.958L367.273 109.9H352.884V190.501H366.68V146.208L370.332 157.474L380.694 190.532H393.616V109.931H379.945V154.348H379.976ZM279.286 126.522C279.286 123.364 281.471 121.786 283.812 121.786C286.153 121.786 287.838 123.488 287.838 126.398V134.384H301.384V127.357C301.384 115.967 294.299 108.476 283.812 108.476C270.64 108.476 264.148 117.917 264.148 128.936C264.148 138.996 271.608 148.653 277.694 155.432C283.188 162.21 287.089 167.163 287.089 173.694C287.089 177.068 285.497 179.018 282.314 179.018C279.13 179.018 277.32 176.851 277.32 173.57V166.079H263.774V173.106C263.774 185.084 270.984 192.111 283.063 192.111C293.925 192.111 302.227 184.496 302.227 171.775C302.227 161.374 295.392 152.893 288.806 145.031C283.188 137.634 279.286 134.26 279.286 126.522ZM409.378 109.776L408.411 113.367L408.13 114.543L407.849 113.367L406.881 109.776H404.197V117.298H405.945V112.283L406.351 113.831L407.318 117.298H408.691L409.69 113.831L410.065 112.283V117.298H412V109.776H409.378ZM326.885 108.476C315.773 108.476 307.127 115.967 307.127 126.986V173.477C307.127 184.496 315.804 192.111 326.885 192.111C337.965 192.111 346.548 184.496 346.548 173.477V126.986C346.548 115.967 337.871 108.476 326.885 108.476ZM330.536 174.437C330.536 176.603 328.945 177.934 326.885 177.934C324.825 177.934 323.108 176.603 323.108 174.437V126.026C323.108 123.86 324.825 122.529 326.885 122.529C328.945 122.529 330.536 123.86 330.536 126.026V174.437ZM157.465 109.931H137.208V190.532H157.465C168.077 190.532 176.13 184.837 176.13 172.734V128.688C176.13 116.586 168.077 109.931 157.465 109.931ZM160.524 172.022C160.524 175.396 159.182 177.098 156.123 177.098H152.939V123.364H156.123C159.182 123.364 160.524 125.191 160.524 128.565V172.022ZM182.622 190.532H215.707V176.356H198.259V155.432H209.745V142.834H198.259V123.581H215.707V109.9H182.622V190.501V190.532ZM258.905 161.498C258.905 157.505 256.22 153.76 252.194 151.562C256.22 149.272 258.655 145.619 258.655 141.627V125.531C258.655 114.76 250.727 109.931 243.018 109.931H221.294V190.532H237.025V157.722H240.677C242.862 157.722 243.985 159.889 243.985 161.963V178.058C243.985 183.134 245.327 190.532 247.762 190.532H260.933V190.161C259.841 186.291 258.873 182.175 258.873 177.098V161.498H258.905ZM243.642 142.122C243.642 144.784 242.674 145.743 240.958 145.743H237.056V122.993H240.958C242.674 122.993 243.642 123.953 243.642 126.614V142.122Z" fill="white"/>
</g>
<defs>
<clipPath id="clip0_9_35811">
<rect width="412" height="192" fill="white"/>
</clipPath>
</defs>
</svg>
