<svg width="132" height="74" viewBox="0 0 132 74" fill="none" xmlns="http://www.w3.org/2000/svg">
<g clip-path="url(#clip0_17728_260396)">
<path d="M51.8502 68.75L51.6402 70.14L51.4502 68.75L50.8202 65.11H49.2702V72.31H50.2902V66.96L50.5102 68.47L51.1502 72.31H52.0102L52.6802 68.47L52.9102 66.96V72.31H53.9902V65.11H52.4702L51.8502 68.75ZM33.3402 69.81C33.3402 69.37 33.1002 68.98 32.6402 68.82C33.1002 68.65 33.3202 68.29 33.3202 67.8V66.52C33.3202 65.55 32.7002 65.1 31.9002 65.1H30.0602V72.3H31.2102V69.26H31.7702C32.0802 69.26 32.2302 69.5 32.2302 69.79V71.34C32.2302 71.9 32.4002 72.33 32.8502 72.33H33.5502V72.01C33.4102 71.83 33.3302 71.6 33.3302 71.27V69.8L33.3402 69.81ZM32.1902 67.86C32.1902 68.21 32.0402 68.37 31.7602 68.37H31.2102V66.09H31.8002C32.0702 66.09 32.1902 66.25 32.1902 66.56V67.87V67.86ZM43.8102 72.3H46.6902V71.25H44.9602V69.06H46.1602V68.11H44.9602V66.12H46.6902V65.1H43.8102V72.3ZM55.9002 65.1L54.7002 72.3H55.7502L55.9702 70.89H57.0202L57.2002 72.3H58.3702L57.1702 65.1H55.9002ZM56.1102 69.93L56.5302 66.99L56.8902 69.93H56.1102ZM41.4802 69.91L40.8702 65.1H39.9802L39.3002 69.91L38.7802 65.1H37.6402L38.6902 72.3H39.7002L40.3602 68.02L40.9502 72.3H41.9702L43.1202 65.1H42.0602L41.4802 69.91ZM34.3802 72.3H34.8002C34.8002 72.74 34.6102 72.95 34.3102 72.95V73.23C34.9502 73.23 35.2702 72.78 35.2702 72.18V71.02H34.3702V72.3H34.3802ZM7.12016 64.97C6.08016 64.97 5.40016 65.68 5.40016 66.68V70.72C5.40016 71.73 6.08016 72.43 7.12016 72.43C8.16016 72.43 8.84016 71.73 8.84016 70.72V66.68C8.84016 65.69 8.16016 64.97 7.12016 64.97ZM7.68016 70.81C7.68016 71.16 7.47016 71.39 7.12016 71.39C6.77016 71.39 6.56016 71.15 6.56016 70.81V66.59C6.56016 66.24 6.77016 66.01 7.12016 66.01C7.47016 66.01 7.68016 66.25 7.68016 66.59V70.81ZM1.41016 66.15H2.52016V72.3H3.67016V66.15H4.76016V65.1H1.41016V66.15ZM26.3002 72.3H29.1802V71.25H27.4502V69.06H28.6502V68.11H27.4502V66.12H29.1802V65.1H26.3002V72.3ZM11.5202 69.56H12.0802V70.85C12.0802 71.16 11.8902 71.42 11.5002 71.42C11.1102 71.42 10.9202 71.16 10.9202 70.85V66.57C10.9202 66.27 11.1102 66.01 11.4902 66.01C11.8702 66.01 12.0602 66.26 12.0602 66.56V67.59H13.1402V66.63C13.1402 65.71 12.5502 64.98 11.4902 64.98C10.4302 64.98 9.76016 65.74 9.76016 66.63V70.78C9.76016 71.75 10.3502 72.43 11.3102 72.43C11.8002 72.43 12.2202 72.22 12.4102 71.81L12.5802 72.3H13.2002V68.7H11.5202V69.57V69.56ZM24.0802 68.22H22.8702V65.1H21.7202V72.3H22.8702V69.27H24.0802V72.3H25.2302V65.1H24.0802V68.22ZM17.6002 66.14H18.7102V72.29H19.8602V66.14H20.9502V65.09H17.6002V66.14ZM14.1502 72.29H17.0302V71.24H15.3002V69.05H16.5002V68.1H15.3002V66.11H17.0302V65.09H14.1502V72.29ZM115.97 72.29H117.12V65.09H115.97V72.29ZM108.98 65.09L107.78 72.29H108.83L109.05 70.88H110.1L110.28 72.29H111.45L110.25 65.09H108.98ZM109.19 69.92L109.61 66.98L109.97 69.92H109.19ZM104.93 68.73L104.72 70.12L104.53 68.73L103.9 65.09H102.35V72.29H103.37V66.94L103.59 68.45L104.23 72.29H105.09L105.76 68.45L105.99 66.94V72.29H107.07V65.09H105.55L104.93 68.73ZM99.1802 65.09L97.9802 72.29H99.0302L99.2502 70.88H100.3L100.48 72.29H101.65L100.45 65.09H99.1802ZM99.3902 69.92L99.8102 66.98L100.17 69.92H99.3902ZM124.49 68.69V69.56H125.05V70.85C125.05 71.16 124.86 71.42 124.47 71.42C124.08 71.42 123.89 71.16 123.89 70.85V66.57C123.89 66.27 124.08 66.01 124.46 66.01C124.84 66.01 125.03 66.26 125.03 66.56V67.59H126.11V66.63C126.11 65.71 125.52 64.98 124.46 64.98C123.4 64.98 122.73 65.74 122.73 66.63V70.78C122.73 71.75 123.32 72.43 124.28 72.43C124.77 72.43 125.19 72.22 125.38 71.81L125.55 72.3H126.17V68.7H124.49V68.69ZM62.5502 65.09H61.4102L60.2202 68.47V65.09H59.0702V72.29H60.2202V70.33L60.6102 69.29L61.4102 72.28H62.5902L61.3902 68.14L62.5502 65.08V65.09ZM112.01 66.12H113.85L111.89 71.89V72.29H115.08V71.25H113.23L115.17 65.49V65.09H112.01V66.12ZM120.71 69.5L120.34 68.39L119.22 65.09H118.2V72.29H119.24V67.92L119.64 69.02L120.85 72.29H121.74V65.09H120.71V69.5ZM94.5502 69.5L94.1802 68.39L93.0602 65.09H92.0402V72.29H93.0802V67.92L93.4802 69.02L94.6902 72.29H95.5802V65.09H94.5502V69.5ZM70.4602 64.96C69.4101 64.96 68.7202 65.7 68.7202 66.68V70.7C68.7202 71.68 69.4101 72.42 70.4602 72.42C71.5102 72.42 72.0901 71.73 72.0901 70.77V69.72H71.0702V70.79C71.0702 71.14 70.8802 71.38 70.4802 71.38C70.0802 71.38 69.8902 71.13 69.8902 70.8V66.58C69.8902 66.25 70.0802 66 70.4802 66C70.8802 66 71.0702 66.25 71.0702 66.59V67.65H72.0901V66.61C72.0901 65.65 71.5201 64.96 70.4602 64.96ZM63.3402 72.29H66.2202V71.24H64.4902V69.05H65.6902V68.1H64.4902V66.11H66.2202V65.09H63.3402V72.29ZM75.3702 68.21H74.1602V65.09H73.0102V72.29H74.1602V69.26H75.3702V72.29H76.5201V65.09H75.3702V68.21ZM87.5002 65.09H86.3602L85.1702 68.47V65.09H84.0201V72.29H85.1702V70.33L85.5602 69.29L86.3602 72.28H87.5402L86.3401 68.14L87.5002 65.08V65.09ZM88.2902 72.29H91.1702V71.24H89.4402V69.05H90.6402V68.1H89.4402V66.11H91.1702V65.09H88.2902V72.29ZM81.4802 64.96C80.4302 64.96 79.7402 65.7 79.7402 66.68V70.7C79.7402 71.68 80.4302 72.42 81.4802 72.42C82.5302 72.42 83.1102 71.73 83.1102 70.77V69.72H82.0901V70.79C82.0901 71.14 81.9002 71.38 81.5002 71.38C81.1002 71.38 80.9102 71.13 80.9102 70.8V66.58C80.9102 66.25 81.1002 66 81.5002 66C81.9002 66 82.0901 66.25 82.0901 66.59V67.65H83.1102V66.61C83.1102 65.65 82.5402 64.96 81.4802 64.96ZM77.5901 72.29H78.7402V65.09H77.5901V72.29Z" fill="#B12028"/>
<path d="M88.5484 14.59L87.2684 13.67L87.5284 13.31C87.6684 13.12 87.8684 13.13 88.0384 13.25L88.5484 13.62C88.8384 13.83 89.1084 13.86 89.2984 13.59L89.5884 13.19L89.3884 13.05C89.2484 13.08 89.1184 13.05 88.9684 12.95L88.4584 12.58C88.2384 12.42 87.9084 12.39 87.6384 12.63C87.7684 12.29 87.6584 12.03 87.4084 11.85L87.0684 11.61C86.6184 11.28 86.0984 11.38 85.7384 11.89L84.9284 13.02L88.0684 15.28L88.5484 14.6V14.59ZM87.0484 12.98L86.7984 13.33L85.9384 12.71L86.2084 12.33C86.3384 12.16 86.4784 12.16 86.6384 12.27L86.9684 12.51C87.1584 12.65 87.1784 12.8 87.0484 12.98ZM96.0284 7.86001C96.5084 8.02001 96.7484 8.15001 96.7984 8.42001C96.8384 8.68001 96.7284 8.87001 96.4284 8.92001C96.1284 8.97001 95.9384 8.82001 95.8884 8.50001L95.8684 8.37001L95.1184 8.49001L95.1484 8.69001C95.2584 9.34001 95.7984 9.70001 96.5484 9.58001C97.3084 9.46001 97.6784 8.84001 97.5784 8.22001C97.4884 7.66001 97.0684 7.43001 96.4884 7.22001C95.9584 7.05001 95.7184 6.93001 95.6784 6.66001C95.6384 6.43001 95.7684 6.26001 96.0084 6.22001C96.2984 6.17001 96.4684 6.35001 96.5084 6.61001L96.5284 6.73001L97.2684 6.61001L97.2384 6.46001C97.1384 5.85001 96.5984 5.46001 95.8984 5.57001C95.1184 5.70001 94.7884 6.29001 94.8784 6.88001C94.9684 7.47001 95.5084 7.69001 96.0084 7.86001H96.0284ZM101.038 9.92001C101.258 10.2 101.748 10.57 102.108 10.86C102.228 10.96 102.438 11.05 102.458 11.06C102.478 11.07 102.508 11.08 102.588 11.06C102.648 11.04 102.838 10.99 103.248 10.93C103.648 10.87 104.058 10.85 104.098 10.85C104.138 10.85 104.188 10.78 104.098 10.75C103.878 10.67 102.958 10.14 102.748 9.65001C102.538 9.16001 102.628 8.65001 102.418 8.21001C102.158 7.66001 101.408 7.01001 101.258 6.92001C101.108 6.83001 101.008 6.70001 100.908 6.74001C100.598 6.86001 100.798 7.37001 100.588 7.63001C100.368 7.90001 100.348 8.31001 100.358 8.73001C100.368 9.15001 100.808 9.65001 101.028 9.93001L101.038 9.92001ZM91.3584 11.64L89.8884 9.32001L90.5184 9.96001L91.8884 11.3L92.4184 10.97L91.8084 9.15001L91.4984 8.31001L92.9684 10.63L93.6284 10.21L91.5584 6.94001L90.6184 7.53001L91.2884 9.44001L91.5284 10.09L91.0484 9.59001L89.5984 8.17001L88.6584 8.77001L90.7284 12.04L91.3584 11.64ZM104.778 10.78C104.778 10.78 104.778 10.87 104.848 10.88C104.928 10.88 105.218 10.9 105.448 10.95C105.698 11 105.938 11.09 105.958 11.08C105.998 11.06 105.958 10.98 105.958 10.79C105.908 9.34001 107.218 8.87001 107.388 8.43001C107.458 8.24001 107.358 8.03001 107.168 7.32001C107.118 7.12001 107.008 6.84001 106.938 6.74001C106.888 6.66001 106.778 6.63001 106.728 6.85001C106.618 7.33001 105.998 8.02001 105.218 8.78001C104.858 9.14001 104.738 9.95001 104.758 10.4C104.758 10.68 104.778 10.76 104.788 10.79L104.778 10.78ZM104.048 10.23C104.048 10.23 104.138 10.21 104.148 10.08C104.158 9.94001 104.278 9.29001 104.458 8.87001C104.638 8.45001 104.988 8.06001 105.048 7.99001C105.108 7.92001 105.138 7.84001 105.088 7.74001C105.048 7.64001 104.928 7.36001 104.888 7.24001C104.848 7.11001 104.778 6.81001 104.578 6.50001C104.378 6.19001 104.168 5.93001 104.128 5.91001C104.088 5.89001 104.058 5.87001 103.998 5.95001C103.948 6.04001 103.478 6.31001 103.308 7.06001C103.128 7.82001 103.028 8.29001 103.468 9.48001C103.528 9.65001 103.818 10.14 104.018 10.24L104.048 10.23ZM106.538 10.65C106.468 10.88 106.468 11.12 106.468 11.19C106.468 11.24 106.508 11.28 106.558 11.29C106.608 11.3 107.288 11.6 108.068 12.38C108.358 12.67 108.868 13.45 108.908 13.51C108.948 13.57 108.998 13.55 109.018 13.53C109.038 13.51 109.058 13.48 109.168 13.31C109.268 13.14 109.338 12.87 109.338 12.52C109.338 12.18 109.278 11.68 108.808 11.23C108.658 11.08 108.468 10.73 108.378 10.49C108.038 9.67001 108.308 9.13001 108.388 8.98001C108.438 8.89001 108.388 8.79001 108.348 8.75001C108.298 8.72001 108.148 8.80001 108.108 8.82001C107.598 9.10001 106.888 9.38001 106.518 10.64L106.538 10.65ZM106.588 16.5C106.588 16.5 106.568 16.42 106.528 16.42C105.958 16.37 105.408 16.34 104.428 16.52C103.448 16.7 102.308 17.19 102.268 17.21C102.228 17.23 102.198 17.29 102.198 17.33C102.218 17.4 102.308 17.63 102.808 18.24C103.308 18.84 104.248 19.28 104.308 19.31C104.378 19.34 104.398 19.32 104.438 19.28C104.478 19.24 104.808 18.35 105.048 18C105.838 16.86 106.538 16.53 106.578 16.49L106.588 16.5ZM105.338 13.65C105.138 13.71 105.038 13.8 105.008 13.98C104.978 14.16 105.018 14.53 105.338 14.53C105.658 14.53 105.858 14.4 105.868 14.13C105.878 13.87 105.598 13.56 105.338 13.64V13.65ZM104.908 19.97C104.978 19.99 105.858 20.19 105.928 20.2C105.998 20.2 106.048 20.2 106.058 20.13C106.058 20.1 106.208 19.58 106.458 19.22C106.868 18.62 107.238 18.33 107.308 18.26C107.378 18.19 107.398 18.17 107.368 18.12C107.358 18.1 107.308 18.01 107.238 17.82C107.158 17.62 107.068 17.03 107.068 16.95C107.068 16.87 106.988 16.88 106.898 16.95C106.818 17.01 106.168 17.4 105.618 18.24C105.168 18.92 104.878 19.71 104.868 19.78C104.848 19.85 104.828 19.96 104.908 19.98V19.97ZM107.868 14.57C108.148 14.16 108.498 13.91 108.498 13.86C108.498 13.74 108.228 13.41 108.038 13.19C107.788 12.91 107.108 12.42 106.538 12.35C105.868 12.27 104.928 12.2 103.638 12.81C102.258 13.47 101.458 14.28 101.398 14.33C101.358 14.37 101.338 14.41 101.338 14.55C101.338 14.72 101.338 15.26 101.488 15.77C101.638 16.28 101.768 16.51 101.798 16.55C101.828 16.59 101.868 16.6 102.008 16.55C102.158 16.49 103.168 16.02 104.658 15.82C106.148 15.62 107.238 15.84 107.298 15.85C107.358 15.85 107.368 15.75 107.388 15.65C107.428 15.42 107.658 14.84 107.848 14.57H107.868ZM105.388 15.39C104.798 15.43 104.238 15.01 104.158 14.22C104.078 13.47 104.718 12.99 105.258 12.93C105.678 12.88 106.518 13.09 106.578 14.1C106.648 15.11 105.738 15.37 105.388 15.39ZM104.038 20.45C104.098 20.37 104.008 20.33 103.928 20.37C102.668 21.02 101.398 22.75 100.778 24.51C100.158 26.27 100.218 27.96 100.368 28.99C100.608 30.67 100.128 32.72 100.068 33.01C100.008 33.3 100.178 33.29 100.258 33.21C100.298 33.17 100.768 32.87 101.328 31.78C101.888 30.69 102.048 28.51 102.178 27.19C102.308 25.87 102.958 23.28 103.148 22.7C103.338 22.12 103.978 20.54 104.038 20.46V20.45ZM110.198 17.25C110.128 17.23 110.018 17.14 109.058 16.87C108.098 16.6 107.758 16.54 107.638 16.64C107.588 16.69 107.568 17.14 107.608 17.38C107.648 17.62 107.828 18.09 107.958 18.11C108.088 18.13 108.178 17.96 108.548 17.81C108.778 17.71 108.968 17.71 109.338 17.66C109.808 17.59 110.118 17.42 110.208 17.38C110.278 17.35 110.268 17.28 110.188 17.25H110.198ZM107.558 18.72C107.558 18.72 107.518 18.7 107.478 18.75C107.438 18.8 106.688 19.67 106.498 20.22C106.298 20.77 106.468 21.34 106.548 21.63C106.628 21.92 106.628 22.52 106.648 22.67C106.678 22.82 106.748 22.84 107.008 22.72C107.268 22.6 107.828 21.93 107.948 21.1C108.068 20.27 107.948 19.83 107.768 19.38C107.678 19.15 107.658 18.77 107.558 18.72ZM103.668 23.63C103.658 23.47 103.578 23.51 103.538 23.6C103.178 24.32 102.168 27.67 102.858 30.36C103.258 31.93 102.768 34.78 102.498 35.56C102.448 35.7 102.618 35.72 102.648 35.62C102.678 35.55 103.308 34.61 103.858 33.44C104.408 32.27 104.668 31.41 104.688 30.73C104.708 29.97 104.588 28.99 104.038 27.51C103.598 26.33 103.688 23.78 103.678 23.62L103.668 23.63ZM105.658 24.17C105.288 22.69 105.808 20.93 105.818 20.89C105.818 20.81 105.838 20.74 105.768 20.73C105.708 20.73 105.598 20.7 105.378 20.66C105.168 20.61 104.848 20.52 104.768 20.5C104.688 20.48 104.658 20.5 104.618 20.58C104.088 21.64 103.848 23.93 104.748 27.69C105.198 29.56 106.568 32 106.958 32.69C107.348 33.39 107.498 34.17 107.658 34.19C107.808 34.2 107.828 33.95 107.838 33.35C107.848 32.75 107.628 29.95 107.378 28.72C107.128 27.49 105.938 25.3 105.658 24.17ZM98.3484 0.76001C87.2084 0.76001 78.1484 9.82001 78.1484 20.96C78.1484 32.1 87.2084 41.16 98.3484 41.16C109.488 41.16 118.548 32.1 118.548 20.96C118.548 9.82001 109.488 0.76001 98.3484 0.76001ZM98.3484 40.63C87.5084 40.63 78.6884 31.81 78.6884 20.97C78.6884 10.13 87.5084 1.30001 98.3484 1.30001C109.188 1.30001 118.008 10.12 118.008 20.96C118.008 31.8 109.188 40.62 98.3484 40.62V40.63ZM98.3484 2.02001C87.8984 2.02001 79.3984 10.52 79.3984 20.97C79.3984 31.42 87.8984 39.92 98.3484 39.92C108.798 39.92 117.298 31.42 117.298 20.97C117.298 10.52 108.798 2.01001 98.3484 2.01001V2.02001ZM107.268 36.45C107.238 36.08 107.188 35.74 107.138 35.46C106.838 33.6 105.638 31.45 105.498 31.27C105.358 31.09 105.238 31.22 105.288 31.37C105.288 31.37 105.528 34.23 104.908 37.6C104.668 37.7 104.418 37.79 104.168 37.88C104.448 36.63 104.518 35.65 104.598 35.15C104.808 33.71 104.828 32.86 104.828 32.72C104.828 32.58 104.668 32.56 104.528 32.96C104.428 33.23 103.408 35.96 101.238 38.62C100.948 38.67 100.648 38.71 100.358 38.74C101.078 37.85 101.408 37.1 101.648 36.53C102.138 35.35 102.308 34.32 102.318 34.01C102.328 33.64 102.238 33.41 102.098 33.84C101.948 34.28 101.338 35.96 97.8784 38.31C97.6384 38.47 97.3784 38.64 97.1084 38.8C96.7484 38.77 96.3984 38.74 96.0484 38.69C96.5984 38.38 97.2184 38.01 97.9084 37.57C102.048 34.92 102.418 31.22 102.438 31.17C102.448 31.12 102.458 30.97 102.368 31C102.298 31.03 101.598 32.7 100.768 33.46C99.9284 34.22 99.2984 34.27 99.1984 34.13C99.0984 33.98 99.4884 33.24 99.6584 32.47C99.9684 31.08 100.068 29.7 99.9584 28.85C99.8884 28.33 99.7684 28.36 99.7584 28.54C99.7484 28.72 99.5684 31.75 97.8584 34.62C96.9784 36.11 95.5784 37.43 94.3784 38.39C94.1484 38.34 93.9284 38.28 93.7084 38.22C93.9984 38.01 94.2784 37.79 94.5584 37.57C97.1084 35.56 98.3084 32.57 98.3784 32.39C98.5084 32.04 98.3884 31.89 98.2284 32.15C97.7684 32.89 96.7484 33.39 96.3484 33.57C95.9484 33.75 95.9684 33.41 96.0284 33.26C96.0884 33.11 96.5784 31.9 96.7184 31.16C97.0684 29.27 96.5584 27.35 96.4684 27.36C96.3784 27.37 96.1184 28.34 96.0384 28.73C95.9184 29.32 95.7484 30.88 95.8684 31.39C95.9884 31.9 95.7384 31.89 95.6184 31.83C95.4984 31.77 95.1784 31.57 94.6984 31.03C94.2184 30.49 93.8484 29.53 93.8084 29.39C93.7684 29.24 93.6584 29.29 93.6484 29.46C93.5384 31.61 91.9884 34.55 89.9384 36.69C89.7284 36.58 89.5284 36.46 89.3284 36.34C90.7784 34.97 91.4084 33.71 91.9684 32.73C92.9684 30.98 93.2884 29.15 93.3984 28.03C93.4584 27.45 93.7084 26.13 93.7284 25.93C93.7484 25.73 93.6684 25.77 93.5784 25.87C93.4884 25.97 92.7684 27.12 91.7384 28.6C91.0884 29.54 89.2584 32.26 86.8684 34.59C86.6884 34.44 86.5084 34.29 86.3384 34.13C88.8884 31.6 92.0584 27.06 92.1284 26.94C92.2084 26.8 92.0684 26.76 91.7784 26.91C91.1684 27.23 90.5384 27.31 88.7984 27.48C87.3084 27.62 85.4784 27.51 82.1084 28.31C81.0884 26.06 80.5084 23.56 80.5084 20.93C80.5084 11.07 88.5284 3.06001 98.3784 3.06001C108.228 3.06001 116.258 11.08 116.258 20.93C116.258 27.54 112.648 33.32 107.298 36.41L107.268 36.45ZM111.058 17.09C111.018 16.96 110.778 16.29 110.218 15.6C109.658 14.91 109.108 14.4 108.988 14.35C108.858 14.3 108.738 14.27 108.598 14.4C108.458 14.53 108.408 14.59 108.168 14.96C107.938 15.33 107.788 15.9 107.778 15.95C107.768 16 107.758 16.07 107.908 16.08C108.048 16.08 109.028 16.2 109.828 16.58C110.628 16.96 110.908 17.19 110.968 17.23C111.028 17.27 111.098 17.21 111.058 17.09ZM101.348 20.24C102.398 19.84 103.608 19.72 103.648 19.72C103.688 19.72 103.708 19.65 103.658 19.62C103.578 19.57 102.928 19.29 102.418 18.75C102.068 18.38 101.658 17.74 101.608 17.64C101.568 17.57 101.548 17.52 101.378 17.56C101.238 17.59 99.6184 17.77 96.6784 21.56C94.1284 24.85 94.1784 26.59 94.0784 27.81C93.9784 29.03 95.0684 30.66 95.1484 30.8C95.1884 30.86 95.2684 30.84 95.2584 30.74C95.2384 30.59 95.3684 28.41 96.6884 25.14C98.0784 21.71 100.628 20.53 101.338 20.26L101.348 20.24ZM104.658 12.01C105.768 11.81 106.398 12.03 106.668 12.05C106.858 12.07 106.838 11.84 106.678 11.78C104.258 10.79 100.788 11.39 98.1584 14.26C95.5184 17.13 92.8884 22.03 91.5484 24.07C90.2084 26.11 87.8284 26.41 87.6484 26.44C87.4784 26.46 87.4484 26.59 87.5784 26.67C87.7284 26.77 88.5284 26.92 88.8484 26.94C90.6084 27 92.6284 26.28 93.8084 24.69C97.9984 19.1 98.1484 17.28 99.9584 15.16C101.658 13.17 103.558 12.22 104.668 12.02L104.658 12.01ZM100.728 15.11C100.688 15.04 100.618 15.05 100.538 15.16C100.398 15.34 99.1784 16.78 98.0684 19.03C97.9984 19.18 98.0084 19.36 98.1884 19.21C98.3684 19.06 99.2784 18.17 99.9784 17.74C100.738 17.27 100.958 17.19 101.048 17.13C101.198 17.04 101.248 16.97 101.208 16.85C101.168 16.73 100.928 16.22 100.848 15.81C100.798 15.57 100.768 15.17 100.728 15.1V15.11ZM83.1084 17.47L86.5984 19.38L86.8084 18.63L86.1084 18.27L86.3184 17.5L87.0984 17.55L87.3184 16.75L83.3484 16.58L83.0984 17.48L83.1084 17.47ZM85.6984 17.44L85.5484 17.99L84.2684 17.33L85.6984 17.44ZM102.828 20.55C102.918 20.5 102.818 20.41 102.748 20.43C100.808 20.98 99.1684 22.09 98.0084 23.93C96.8484 25.77 97.1384 27.52 97.2984 29.03C97.4584 30.53 97.1284 31.89 97.0684 32.15C97.0084 32.4 96.8584 32.6 96.9284 32.66C97.0184 32.73 97.5784 32.41 98.2384 31.22C98.9984 29.84 99.1084 28.63 99.3084 27.46C99.5084 26.29 99.9884 24.57 100.748 23.07C101.508 21.57 102.728 20.61 102.818 20.55H102.828ZM84.9584 22.03L84.9084 21.1L84.2384 21.13L84.2884 22.06L83.3684 22.11L83.2984 20.83L82.6284 20.87L82.7384 22.98L86.6084 22.78L86.5684 21.95L84.9684 22.03H84.9584Z" fill="#B12028"/>
<path d="M7.98 33.4301L9.82 19.9001L11.5 33.4301H15.76L19.87 7.39012H15.37L13.57 23.2301L11.93 7.39012H8.33L6.53 23.2301L4.89 7.39012H0L3.83 33.4301H7.97H7.98ZM6.38 41.6001C6.38 40.5801 7.08 40.0701 7.83 40.0701C8.58 40.0701 9.12 40.6201 9.12 41.5601V44.1401H13.46V41.8701C13.46 38.1901 11.19 35.7701 7.83 35.7701C3.61 35.7701 1.53 38.8201 1.53 42.3801C1.53 45.6301 3.92 48.7501 5.87 50.9401C7.63 53.1301 8.88 54.7301 8.88 56.8401C8.88 57.9301 8.37 58.5601 7.35 58.5601C6.33 58.5601 5.75 57.8601 5.75 56.8001V54.3801H1.41V56.6501C1.41 60.5201 3.72 62.7901 7.59 62.7901C11.07 62.7901 13.73 60.3301 13.73 56.2201C13.73 52.8601 11.54 50.1201 9.43 47.5801C7.63 45.1901 6.38 44.1001 6.38 41.6001ZM51.62 19.1101L52.79 22.7501L56.11 33.4301H60.25V7.38012H55.87V21.7301L54.81 18.0501L51.8 7.37012H47.19V33.4101H51.61V19.1001L51.62 19.1101ZM17.96 36.2401L14.17 62.2801H18.71L19.14 58.1001H22.11L22.46 62.2801H27.5L23.75 36.2401H17.96ZM19.68 54.0301L20.81 43.9001L21.67 54.0301H19.68ZM73.87 28.8501H68.28V22.0901H71.96V18.0201H68.28V11.8001H73.87V7.38012H63.27V33.4201H73.87V28.8401V28.8501ZM23.58 33.4301L24.01 29.2501H26.98L27.33 33.4301H32.37L28.62 7.39012H22.83L19.04 33.4301H23.58ZM25.69 15.0501L26.55 25.1801H24.56L25.69 15.0501ZM35.78 33.4301H40.79V22.8301L45.44 7.38012H40.51L38.59 17.1201L36.48 7.38012H31.44L35.78 22.8301V33.4301ZM127.36 36.7101H127.98V38.6201H128.62V36.7101H129.24V36.1901H127.37V36.7101H127.36ZM37.35 50.5901L36.29 46.9101L33.28 36.2301H28.67V62.2701H33.09V47.9601L34.26 51.6001L37.58 62.2801H41.72V36.2401H37.34V50.5901H37.35ZM121.74 50.5901L120.68 46.9101L117.67 36.2301H113.06V62.2701H117.48V47.9601L118.65 51.6001L121.97 62.2801H126.11V36.2401H121.73V50.5901H121.74ZM89.48 41.6001C89.48 40.5801 90.18 40.0701 90.93 40.0701C91.68 40.0701 92.22 40.6201 92.22 41.5601V44.1401H96.56V41.8701C96.56 38.1901 94.29 35.7701 90.93 35.7701C86.71 35.7701 84.63 38.8201 84.63 42.3801C84.63 45.6301 87.02 48.7501 88.97 50.9401C90.73 53.1301 91.98 54.7301 91.98 56.8401C91.98 57.9301 91.47 58.5601 90.45 58.5601C89.43 58.5601 88.85 57.8601 88.85 56.8001V54.3801H84.51V56.6501C84.51 60.5201 86.82 62.7901 90.69 62.7901C94.17 62.7901 96.83 60.3301 96.83 56.2201C96.83 52.8601 94.64 50.1201 92.53 47.5801C90.73 45.1901 89.48 44.1001 89.48 41.6001ZM131.16 36.1901L130.85 37.3501L130.76 37.7301L130.67 37.3501L130.36 36.1901H129.5V38.6201H130.06V37.0001L130.19 37.5001L130.5 38.6201H130.94L131.26 37.5001L131.38 37.0001V38.6201H132V36.1901H131.16ZM104.73 35.7701C101.17 35.7701 98.4 38.1901 98.4 41.7501V56.7701C98.4 60.3301 101.18 62.7901 104.73 62.7901C108.28 62.7901 111.03 60.3301 111.03 56.7701V41.7501C111.03 38.1901 108.25 35.7701 104.73 35.7701ZM105.9 57.0801C105.9 57.7801 105.39 58.2101 104.73 58.2101C104.07 58.2101 103.52 57.7801 103.52 57.0801V41.4401C103.52 40.7401 104.07 40.3101 104.73 40.3101C105.39 40.3101 105.9 40.7401 105.9 41.4401V57.0801ZM50.45 36.2401H43.96V62.2801H50.45C53.85 62.2801 56.43 60.4401 56.43 56.5301V42.3001C56.43 38.3901 53.85 36.2401 50.45 36.2401ZM51.43 56.3001C51.43 57.3901 51 57.9401 50.02 57.9401H49V40.5801H50.02C51 40.5801 51.43 41.1701 51.43 42.2601V56.3001ZM58.51 62.2801H69.11V57.7001H63.52V50.9401H67.2V46.8701H63.52V40.6501H69.11V36.2301H58.51V62.2701V62.2801ZM82.95 52.9001C82.95 51.6101 82.09 50.4001 80.8 49.6901C82.09 48.9501 82.87 47.7701 82.87 46.4801V41.2801C82.87 37.8001 80.33 36.2401 77.86 36.2401H70.9V62.2801H75.94V51.6801H77.11C77.81 51.6801 78.17 52.3801 78.17 53.0501V58.2501C78.17 59.8901 78.6 62.2801 79.38 62.2801H83.6V62.1601C83.25 60.9101 82.94 59.5801 82.94 57.9401V52.9001H82.95ZM78.06 46.6401C78.06 47.5001 77.75 47.8101 77.2 47.8101H75.95V40.4601H77.2C77.75 40.4601 78.06 40.7701 78.06 41.6301V46.6401Z" fill="#231F20"/>
</g>
<defs>
<clipPath id="clip0_17728_260396">
<rect width="132" height="72.48" fill="white" transform="translate(0 0.76001)"/>
</clipPath>
</defs>
</svg>
