<svg width="100%" viewBox="0 0 72 72" fill="none" xmlns="http://www.w3.org/2000/svg">
<g clip-path="url(#clip0_7817_32654)">
<path d="M35.9996 2.23096C17.3777 2.23096 2.23047 17.3782 2.23047 36C2.23047 54.6219 17.3777 69.7691 35.9996 69.7691C54.6214 69.7691 69.7687 54.6219 69.7687 36C69.7687 17.3782 54.6214 2.23096 35.9996 2.23096ZM47.8523 65.5637C47.8141 65.3073 47.7814 65.0564 47.7432 64.8273C47.1487 61.151 44.7814 56.9019 44.5086 56.5528C44.2414 56.2037 43.9905 56.4546 44.0832 56.7437C44.0832 56.7437 44.4541 61.2273 43.6687 66.911C43.2159 67.0255 42.7632 67.1291 42.305 67.2164C42.5123 65.8855 42.605 64.8382 42.6977 64.1946C43.1068 61.3582 43.1559 59.6673 43.1559 59.3946C43.1559 59.1219 42.8341 59.0891 42.5614 59.8637C42.4141 60.2837 41.1268 63.7364 38.4814 67.751C37.8105 67.8055 37.1341 67.8328 36.4523 67.8437C36.5996 67.5219 36.7305 67.2164 36.845 66.9382C37.8214 64.6091 38.1487 62.5691 38.165 61.9637C38.1868 61.2219 38.0123 60.7746 37.7232 61.6364C37.4941 62.3182 36.6923 64.5328 33.005 67.7073C32.4923 67.6582 31.9796 67.5982 31.4723 67.5273C37.7396 62.4928 38.3614 56.4437 38.3832 56.3455C38.4105 56.2364 38.4268 55.9419 38.2468 56.0128C38.105 56.0673 36.7305 59.3782 35.0777 60.8728C33.425 62.3673 32.1759 62.4819 31.9741 62.1928C31.7723 61.9037 32.5577 60.431 32.8905 58.9091C33.4959 56.1601 33.7032 53.4382 33.4905 51.7637C33.3596 50.7437 33.1087 50.8037 33.0868 51.1582C33.065 51.5182 32.705 57.4964 29.3396 63.1746C28.6414 64.3473 27.785 65.4655 26.8523 66.5128C26.4868 66.4037 26.1268 66.2891 25.7668 66.1691C28.7887 62.6946 30.2505 59.0455 30.3541 58.7673C30.6105 58.08 30.3759 57.7746 30.0541 58.2873C29.1377 59.7437 27.1305 60.7473 26.3505 61.091C25.5705 61.4346 25.5977 60.7746 25.7123 60.48C25.8268 60.191 26.8087 57.791 27.0759 56.34C27.7632 52.6037 26.7596 48.8073 26.585 48.84C26.4105 48.8673 25.8977 50.7764 25.7341 51.5564C25.4887 52.7182 25.1668 55.811 25.4014 56.82C25.6305 57.8346 25.1396 57.8073 24.9105 57.6928C24.6814 57.5782 24.0377 57.1855 23.0832 56.111C22.1287 55.0419 21.4032 53.1546 21.3159 52.8655C21.2287 52.5764 21.0159 52.6582 20.9996 53.0128C20.8632 55.6691 19.6087 58.9364 17.6996 62.051C17.345 61.8 17.0014 61.5491 16.6577 61.2819C17.0287 60.6491 17.3559 60.0491 17.6723 59.4982C19.6468 56.0346 20.285 52.4182 20.5032 50.2037C20.6123 49.0528 21.1141 46.4455 21.1632 46.0582C21.2123 45.6655 21.0432 45.7419 20.8687 45.9382C20.6996 46.1346 19.2596 48.4037 17.2359 51.3273C16.4614 52.451 14.8305 54.8564 12.6214 57.6C12.2887 57.24 11.9668 56.8746 11.6559 56.5037C15.0487 52.3091 17.9068 48.2128 17.9996 48.0546C18.1632 47.7764 17.8796 47.7055 17.3014 48C16.085 48.6328 14.8468 48.7964 11.4214 49.1291C10.1723 49.2491 8.79229 49.2764 7.11229 49.391C5.21411 45.311 4.15047 40.7728 4.15047 35.9837C4.14501 18.4364 18.4359 4.1455 35.9996 4.1455C53.5632 4.1455 67.8541 18.4364 67.8541 36C67.8541 49.3801 59.5632 60.851 47.8523 65.5637Z" fill="currentColor"/>
<path d="M36 0C16.1509 0 0 16.1509 0 36C0 55.8491 16.1509 72 36 72C55.8491 72 72 55.8491 72 36C72 16.1509 55.8491 0 36 0ZM36 71.04C16.68 71.04 0.96 55.32 0.96 36C0.96 16.68 16.68 0.96 36 0.96C55.32 0.96 71.0455 16.68 71.0455 36C71.0455 55.32 55.3255 71.04 36 71.04Z" fill="currentColor"/>
<path d="M41.608 35.1656C41.728 35.0019 41.548 34.9256 41.3953 35.0019C38.908 36.2892 36.3934 39.7037 35.1662 43.1783C33.9334 46.6474 34.0643 49.991 34.3534 52.0256C34.8225 55.3419 33.8734 59.3946 33.7534 59.9619C33.6389 60.5346 33.9825 60.5074 34.1298 60.3546C34.2116 60.2674 35.1389 59.6892 36.2516 57.5292C37.3643 55.3692 37.6643 51.0765 37.9262 48.4692C38.188 45.8619 39.4698 40.7456 39.8516 39.5892C40.2334 38.4383 41.488 35.3292 41.608 35.1656Z" fill="currentColor"/>
<path d="M40.8604 41.4274C40.8331 41.111 40.6859 41.1983 40.5986 41.3728C39.8895 42.8019 37.8986 49.4128 39.2622 54.7365C40.0531 57.8347 39.0822 63.4692 38.5531 65.0074C38.455 65.2856 38.7877 65.3128 38.8586 65.1219C38.9131 64.9801 40.1568 63.1201 41.2422 60.8183C42.3386 58.5001 42.8513 56.8092 42.8786 55.4619C42.9113 53.9674 42.6822 52.0201 41.5859 49.1074C40.7077 46.7783 40.8931 41.7383 40.8659 41.4219L40.8604 41.4274Z" fill="currentColor"/>
<path d="M39.2179 35.3345C39.387 35.2254 39.1961 35.0509 39.0543 35.0945C35.2143 36.1745 31.9852 38.3781 29.6943 42.0163C27.4034 45.6545 27.987 49.1181 28.2925 52.0909C28.5979 55.0636 27.9597 57.7472 27.8452 58.2491C27.7307 58.7509 27.4307 59.1436 27.5725 59.2527C27.7416 59.3836 28.8543 58.7563 30.1579 56.4054C31.6688 53.6836 31.8761 51.2836 32.2688 48.9818C32.667 46.6745 33.6107 43.2709 35.1216 40.3145C36.6325 37.3581 39.0379 35.4491 39.207 35.34L39.2179 35.3345Z" fill="currentColor"/>
<path d="M43.324 34.2054C43.4713 34.2436 45.2113 34.6418 45.3422 34.6582C45.4786 34.6691 45.5768 34.6582 45.604 34.5272C45.6149 34.4618 45.9095 33.4418 46.3949 32.7382C47.2131 31.5491 47.9386 30.9763 48.0695 30.84C48.2059 30.7036 48.2549 30.66 48.1949 30.5672C48.1677 30.5182 48.075 30.3545 47.9277 29.9672C47.7804 29.5691 47.6004 28.4072 47.5895 28.2491C47.5786 28.0909 47.4204 28.1072 47.2622 28.2327C47.104 28.3527 45.8168 29.1272 44.7368 30.7745C43.8477 32.1272 43.2859 33.6872 43.2477 33.8236C43.2095 33.96 43.1768 34.1782 43.3186 34.2163L43.324 34.2054Z" fill="currentColor"/>
<path d="M36.2957 34.7617C38.3684 33.9653 40.7575 33.7253 40.8447 33.7253C40.932 33.7253 40.9647 33.5944 40.8666 33.5344C40.7084 33.4417 39.4211 32.8744 38.4175 31.8108C37.7247 31.0799 36.912 29.8035 36.8138 29.6126C36.7429 29.4763 36.6938 29.3781 36.3666 29.449C36.0993 29.5035 32.8866 29.8635 27.0829 37.3472C22.0375 43.849 22.1466 47.2963 21.9502 49.6963C21.7538 52.0963 23.8975 55.3253 24.0666 55.5981C24.1429 55.7181 24.312 55.6853 24.2847 55.4726C24.2466 55.1726 24.5029 50.8581 27.1211 44.4053C29.8702 37.6308 34.9047 35.3017 36.3011 34.7617H36.2957Z" fill="currentColor"/>
<path d="M42.8303 18.4965C45.023 18.0983 46.2721 18.5292 46.8066 18.5783C47.1721 18.611 47.1394 18.1637 46.8285 18.0383C42.0394 16.0746 35.1885 17.2692 29.9848 22.9365C24.7757 28.6037 19.5666 38.2965 16.9266 42.3165C14.2866 46.3365 9.56845 46.9419 9.22481 46.991C8.88663 47.0401 8.83209 47.2856 9.07754 47.4383C9.37754 47.6292 10.9594 47.9401 11.5757 47.9619C15.0612 48.0765 19.0375 46.6474 21.3775 43.5274C29.663 32.4765 29.9575 28.8819 33.5248 24.6983C36.8794 20.771 40.6375 18.8946 42.8248 18.4965H42.8303Z" fill="currentColor"/>
<path d="M46.5437 15.8018C46.4128 16.2546 46.4019 16.7291 46.4073 16.8709C46.4073 16.9691 46.4837 17.0509 46.5819 17.0727C46.6746 17.1 48.0273 17.6837 49.571 19.2273C50.1382 19.7946 51.1473 21.3491 51.2401 21.4637C51.3328 21.5782 51.4201 21.54 51.4637 21.5073C51.5073 21.4691 51.551 21.4037 51.7528 21.0655C51.9546 20.7273 52.091 20.1873 52.0855 19.5109C52.0855 18.8346 51.9601 17.8527 51.0437 16.9691C50.7382 16.6746 50.3837 15.9764 50.1928 15.5127C49.5219 13.8873 50.0619 12.8291 50.2146 12.5291C50.3019 12.3546 50.231 12.1473 50.1437 12.0764C50.0564 12.0109 49.751 12.1637 49.6746 12.2073C48.6601 12.7527 47.2691 13.3091 46.5382 15.7964L46.5437 15.8018Z" fill="currentColor"/>
<path d="M35.0674 24.6163C34.9911 24.4799 34.8547 24.4909 34.6856 24.709C34.4129 25.0581 31.9911 27.9054 29.8038 32.3618C29.662 32.6509 29.6838 33.0163 30.0493 32.7272C30.4147 32.4381 32.2093 30.6763 33.5838 29.8309C35.0838 28.9036 35.5147 28.7399 35.6947 28.6309C36.0002 28.4509 36.0874 28.3145 36.0111 28.0854C35.9347 27.8563 35.4602 26.8309 35.2965 26.029C35.1983 25.5599 35.1438 24.7581 35.0674 24.6218V24.6163Z" fill="currentColor"/>
<path d="M46.6418 27.3546C46.7291 27.2782 46.5927 27.2019 46.5164 27.1964C45.3927 27.0873 44.3073 27.0328 42.36 27.3928C40.4127 27.7473 38.1764 28.7237 38.0945 28.7673C38.0073 28.811 37.9473 28.931 37.9636 29.0073C37.9964 29.1491 38.1818 29.6073 39.1745 30.8073C40.1564 31.991 42.0109 32.8637 42.1418 32.9182C42.2727 32.9728 42.3273 32.9401 42.4036 32.8637C42.48 32.7873 43.1345 31.031 43.6145 30.3382C45.1691 28.0855 46.5545 27.4364 46.6418 27.3601V27.3546Z" fill="currentColor"/>
<path d="M35.6794 14.3727C36.1158 14.929 37.0758 15.6545 37.7849 16.2272C38.0303 16.4236 38.434 16.6036 38.4776 16.6199C38.5213 16.6363 38.5813 16.6527 38.7394 16.609C38.854 16.5763 39.2413 16.4781 40.0376 16.3581C40.834 16.2436 41.6413 16.1999 41.7231 16.189C41.8049 16.1781 41.8976 16.0527 41.7394 15.9981C41.3031 15.8399 39.4813 14.7927 39.0667 13.8327C38.6522 12.8727 38.8267 11.8527 38.4122 10.9854C37.894 9.89447 36.4158 8.62357 36.1267 8.43811C35.8376 8.25266 35.6249 8.01266 35.434 8.08902C34.8285 8.33447 35.2104 9.3272 34.8067 9.83993C34.3813 10.3799 34.3267 11.1763 34.3594 12.0054C34.3922 12.8345 35.2376 13.8217 35.674 14.3781L35.6794 14.3727Z" fill="currentColor"/>
<path d="M41.6166 14.9726C41.7039 15.0163 41.7911 14.9399 41.8184 14.6672C41.8402 14.3944 42.0748 13.0963 42.4402 12.2672C42.8002 11.4381 43.4875 10.669 43.6129 10.5217C43.7438 10.3744 43.7875 10.2217 43.7002 10.0308C43.6129 9.83989 43.3839 9.28352 43.3129 9.03261C43.242 8.7817 43.0948 8.18716 42.7075 7.5708C42.3202 6.94898 41.9002 6.45261 41.8238 6.40352C41.742 6.35443 41.6766 6.3217 41.5729 6.4908C41.4693 6.65989 40.5529 7.19443 40.1984 8.69443C39.8438 10.189 39.6475 11.1326 40.5257 13.4726C40.6566 13.8163 41.2293 14.7708 41.6111 14.9726H41.6166Z" fill="currentColor"/>
<path d="M53.8325 25.6036C52.7307 24.24 51.6507 23.2309 51.3998 23.1273C51.1489 23.0236 50.9089 22.9691 50.6307 23.22C50.3525 23.4709 50.2434 23.5964 49.7907 24.3327C49.3325 25.0691 49.0434 26.1818 49.0216 26.2964C48.9998 26.4109 48.9889 26.5364 49.2725 26.5473C49.5507 26.5582 51.4762 26.7764 53.058 27.5345C54.6398 28.2927 55.1907 28.7291 55.3162 28.8218C55.4416 28.9145 55.5671 28.7782 55.4907 28.5436C55.4089 28.2818 54.9398 26.9618 53.838 25.5982L53.8325 25.6036Z" fill="currentColor"/>
<path d="M43.0162 15.2999C43.0326 15.8454 43.0653 16.0145 43.0653 16.069C43.0708 16.1345 43.0762 16.2545 43.2126 16.2654C43.3762 16.2817 43.938 16.3145 44.3962 16.4017C44.898 16.4945 45.3562 16.6854 45.4108 16.6581C45.4926 16.6199 45.4162 16.4617 45.4053 16.0745C45.3071 13.2054 47.898 12.2726 48.2253 11.4108C48.3671 11.0345 48.1653 10.6308 47.789 9.21265C47.6853 8.81447 47.4671 8.26901 47.3362 8.06174C47.238 7.90901 47.0144 7.84901 46.9162 8.28538C46.7035 9.24538 45.4708 10.5872 43.9271 12.1036C43.2126 12.8072 42.978 14.4108 43.0108 15.2999H43.0162Z" fill="currentColor"/>
<path d="M48.5554 31.7345C48.4954 31.7072 48.4736 31.7018 48.3972 31.7945C48.3209 31.8872 46.8427 33.6109 46.4554 34.7072C46.0627 35.8036 46.39 36.9163 46.5482 37.489C46.7063 38.0563 46.7009 39.2454 46.75 39.5345C46.7991 39.8236 46.9463 39.8781 47.4591 39.6436C47.9718 39.409 49.0845 38.0836 49.3191 36.4527C49.5536 34.8218 49.3191 33.9381 48.97 33.049C48.79 32.5963 48.7627 31.8381 48.5554 31.7345Z" fill="currentColor"/>
<path d="M49.1742 23.5418C49.7251 22.74 50.4233 22.2382 50.4233 22.14C50.4233 21.8945 49.8887 21.2454 49.5178 20.82C49.0324 20.2582 47.6851 19.2982 46.5505 19.1672C45.236 19.0145 43.3596 18.8618 40.8287 20.0836C38.1069 21.3927 36.5142 22.9963 36.4105 23.0945C36.3233 23.1763 36.296 23.2636 36.3014 23.5254C36.3069 23.8582 36.3178 24.9327 36.6069 25.9363C36.896 26.94 37.1687 27.3927 37.2124 27.4691C37.256 27.5454 37.3487 27.5727 37.6378 27.4527C37.9269 27.3327 39.9287 26.4054 42.8742 26.0127C45.8196 25.62 47.9742 26.0563 48.0942 26.0727C48.2142 26.0891 48.2305 25.8818 48.2687 25.68C48.3505 25.2163 48.8087 24.0872 49.1796 23.5472L49.1742 23.5418ZM44.2705 25.1563C43.0978 25.2272 42.0014 24.4036 41.8378 22.8545C41.6796 21.3818 42.9505 20.4327 44.0087 20.3018C44.8378 20.1982 46.4905 20.6236 46.6214 22.6145C46.7524 24.6054 44.9578 25.1182 44.2705 25.1563Z" fill="currentColor"/>
<path d="M44.7864 42.5072C44.0609 39.5781 45.0918 36.1145 45.0973 36.0272C45.1082 35.8581 45.1409 35.7272 45.0045 35.7054C44.89 35.689 44.6609 35.6563 44.2464 35.5636C43.8209 35.4763 43.1936 35.2908 43.0354 35.2526C42.8773 35.2145 42.8282 35.2526 42.7464 35.4163C41.7045 37.5217 41.2191 42.0326 42.9973 49.4672C43.8809 53.1654 46.5973 57.9763 47.3718 59.3508C48.1464 60.7254 48.4464 62.2854 48.7464 62.3126C49.0464 62.3399 49.0736 61.8436 49.1009 60.649C49.1282 59.4599 48.6973 53.9345 48.1954 51.4963C47.6991 49.0581 45.3482 44.7326 44.7918 42.4963L44.7864 42.5072Z" fill="currentColor"/>
<path d="M53.7828 28.8382C53.641 28.7946 53.4282 28.62 51.5355 28.08C49.6428 27.54 48.9773 27.42 48.7373 27.6328C48.6337 27.7255 48.601 28.6309 48.6828 29.1C48.77 29.5691 49.1082 30.5019 49.37 30.5346C49.6319 30.5673 49.8064 30.2455 50.5373 29.94C50.99 29.7491 51.361 29.7491 52.1028 29.64C53.0246 29.5091 53.6519 29.16 53.8155 29.0891C53.9519 29.0237 53.9246 28.8819 53.7828 28.8382Z" fill="currentColor"/>
<path d="M44.1655 21.7254C43.7619 21.8454 43.5655 22.0254 43.5164 22.3854C43.4673 22.7454 43.5382 23.4654 44.1764 23.4763C44.8146 23.4873 45.1964 23.2145 45.2182 22.6963C45.2401 22.1782 44.6782 21.5727 44.1655 21.7254Z" fill="currentColor"/>
</g>
<defs>
<clipPath id="clip0_7817_32654">
<rect width="72" height="72" fill="white"/>
</clipPath>
</defs>
</svg>
