<svg width="28" height="28" viewBox="0 0 28 28" fill="none" xmlns="http://www.w3.org/2000/svg">
<path id="search" d="M25.6667 24.0217L20.195 18.55C21.42 16.975 22.1667 14.9917 22.1667 12.8333C22.1667 7.67667 17.99 3.5 12.8333 3.5C7.67667 3.5 3.5 7.67667 3.5 12.8333C3.5 17.99 7.67667 22.1667 12.8333 22.1667C14.9917 22.1667 16.975 21.4317 18.55 20.195L24.0217 25.6667L25.6667 24.0217ZM5.83333 12.8333C5.83333 8.97167 8.97167 5.83333 12.8333 5.83333C16.695 5.83333 19.8333 8.97167 19.8333 12.8333C19.8333 16.695 16.695 19.8333 12.8333 19.8333C8.97167 19.8333 5.83333 16.695 5.83333 12.8333Z" fill="currentColor"/>
</svg>
