<svg width="100%" height="24" viewBox="0 0 24 24" fill="none" xmlns="http://www.w3.org/2000/svg">
<path d="M12.2002 6.67045L9.20748 4.44442C8.78941 4.1334 8.27485 3.97714 7.75287 4.0027C7.23089 4.02826 6.73435 4.23403 6.3492 4.58438L1.72577 8.78763C1.26321 9.20751 1 9.80067 1 10.4238L1 15.5568C1 18.2227 3.24003 20 5.48007 20L15.0797 20C17.6401 20 17.6401 16.6676 15.0797 16.6676L14.4402 16.6676" stroke="currentColor" stroke-width="1.5" stroke-linecap="round" stroke-linejoin="round"/>
<path d="M14.3846 17L16.2305 17C18.6923 17 18.6923 13.6667 16.2305 13.6667L14.3846 13.6667L17.0769 13.6667C19.5388 13.6667 19.5388 10.3333 17.0769 10.3333M14.3846 10.3333L17.0769 10.3333M17.0769 10.3333L21.3857 10.3333C21.8139 10.333 22.2245 10.1573 22.5272 9.84479C22.83 9.53226 23 9.1085 23 8.66667C23 8.22464 22.8298 7.80072 22.5269 7.48816C22.2239 7.17559 21.813 7 21.3846 7L9 7" stroke="currentColor" stroke-width="1.5" stroke-linecap="round" stroke-linejoin="round"/>
</svg>
