<?xml version="1.0" encoding="utf-8"?>
<!-- Generator: Adobe Illustrator 27.6.1, SVG Export Plug-In . SVG Version: 6.00 Build 0)  -->
<svg version="1.1" id="Layer_1" xmlns="http://www.w3.org/2000/svg" xmlns:xlink="http://www.w3.org/1999/xlink" x="0px" y="0px"
	 viewBox="0 0 26 24" style="enable-background:new 0 0 26 24;" xml:space="preserve">
<style type="text/css">
	.st0{fill:none;stroke:#FFFFFF;stroke-width:1.5;stroke-linecap:round;stroke-linejoin:round;}
</style>
<path class="st0" d="M13.1,6l3.2-2.5c0.4-0.3,1-0.5,1.5-0.5c0.6,0,1.1,0.3,1.5,0.7l4.9,4.7c0.5,0.5,0.8,1.1,0.8,1.8V16
	c0,3-2.4,5-4.8,5H10c-2.7,0-2.7-3.7,0-3.7h0.7"/>
<path class="st0" d="M10.2,17h-2c-2.6,0-2.6-3.3,0-3.3h2H7.3c-2.6,0-2.6-3.3,0-3.3 M10.2,10.3H7.3 M7.3,10.3H2.7
	c-0.5,0-0.9-0.2-1.2-0.5C1.2,9.5,1,9.1,1,8.7c0-0.4,0.2-0.9,0.5-1.2C1.8,7.2,2.3,7,2.7,7H16"/>
</svg>
