<svg width="26" height="24" viewBox="0 0 26 24" fill="none" xmlns="http://www.w3.org/2000/svg">
<path d="M13.0998 6.00426L16.2795 3.49997C16.7237 3.15007 17.2705 2.97429 17.8251 3.00304C18.3797 3.0318 18.9073 3.26328 19.3165 3.65743L24.2289 8.38608C24.7203 8.85845 25 9.52576 25 10.2268L25 16.0014C25 19.0006 22.62 21 20.2399 21L10.0403 21C7.31991 21 7.31991 17.2511 10.0403 17.2511L10.7198 17.2511" stroke="currentColor" stroke-width="1.5" stroke-linecap="round" stroke-linejoin="round"/>
<path d="M10.2308 17L8.25308 17C5.61539 17 5.61539 13.6667 8.25308 13.6667L10.2308 13.6667L7.34615 13.6667C4.70846 13.6667 4.70846 10.3333 7.34615 10.3333M10.2308 10.3333L7.34615 10.3333M7.34615 10.3333L2.72962 10.3333C2.27079 10.333 1.83086 10.1573 1.50652 9.84479C1.18219 9.53226 1 9.1085 1 8.66667C1 8.22464 1.18235 7.80072 1.50693 7.48816C1.83151 7.17559 2.27174 7 2.73077 7L16 7" stroke="currentColor" stroke-width="1.5" stroke-linecap="round" stroke-linejoin="round"/>
</svg>
