<svg version="1.1" id="Layer_1" xmlns="http://www.w3.org/2000/svg" xmlns:xlink="http://www.w3.org/1999/xlink" x="0px" y="0px"
	 viewBox="0 0 24 24" style="enable-background:new 0 0 24 24;" xml:space="preserve">
<path d="M12.2,6.7l-3-2.2C8.8,4.1,8.3,4,7.8,4c-0.5,0-1,0.2-1.4,0.6L1.7,8.8C1.3,9.2,1,9.8,1,10.4v5.1
	C1,18.2,3.2,20,5.5,20h9.6c2.6,0,2.6-3.3,0-3.3h-0.6" fill="none" stroke="currentColor" stroke-width="1.5" stroke-linecap="round" stroke-linejoin="round"/>
<path d="M14.4,17h1.8c2.5,0,2.5-3.3,0-3.3h-1.8h2.7c2.5,0,2.5-3.3,0-3.3 M14.4,10.3h2.7 M17.1,10.3h4.3
	c0.4,0,0.8-0.2,1.1-0.5C22.8,9.5,23,9.1,23,8.7c0-0.4-0.2-0.9-0.5-1.2C22.2,7.2,21.8,7,21.4,7H9" fill="none" stroke="currentColor" stroke-width="1.5" stroke-linecap="round" stroke-linejoin="round"/>
</svg>
