<svg role="img" viewBox="0 0 32 20" xmlns="http://www.w3.org/2000/svg">
<title>Tag</title>
<path d="M24.308 10.977a1.364 1.364 0 0 1-1.95 0 1.364 1.364 0 0 1 0-1.95 1.364 1.364 0 0 1 1.95 0 1.364 1.364 0 0 1 0 1.95zm.42-2.37a1.98 1.98 0 0 0-2.787 0 1.974 1.974 0 0 0 .004 2.782 1.974 1.974 0 0 0 2.782.004 1.98 1.98 0 0 0 0-2.786zM22.29 2.892l7.11 7.11-7.523 7.522-19.074-.427V2.851c0 .004.024-.078.048-.101.078-.08.103-.068.108-.068l19.331.21zm.406-1.828L2.98.847a2.018 2.018 0 0 0-1.429.603c-.4.4-.582.894-.582 1.394v14.3c0 .39.084.91.48 1.308.428.427.927.473 1.28.48l19.501.434a.919.919 0 0 0 .67-.264l8.45-8.45a.92.92 0 0 0 0-1.3l-8.016-8.018a.995.995 0 0 0-.068-.067.92.92 0 0 0-.569-.203z" fill="#FFBF22" fill-rule="evenodd"/>
</svg>