<svg width="20" height="22" viewBox="0 0 20 22" fill="none" xmlns="http://www.w3.org/2000/svg">
<path d="M11.73 20.001C11.5544 20.3043 11.3021 20.5561 10.9985 20.7312C10.6948 20.9063 10.3505 20.9984 10 20.9984C9.6495 20.9984 9.30517 20.9063 9.00152 20.7312C8.69788 20.5561 8.44561 20.3043 8.27 20.001M16 7.40098C16 5.70398 15.368 4.07598 14.243 2.87598C13.117 1.67598 11.59 1.00098 10 1.00098C8.409 1.00098 6.883 1.67498 5.757 2.87598C4.632 4.07598 4 5.70398 4 7.40098C4 14.868 1 17.001 1 17.001H19C19 17.001 16 14.868 16 7.40098Z" stroke="#DCC6A3" stroke-width="1.5" stroke-linecap="round" stroke-linejoin="round"/>
</svg>
