<svg width="72" height="72" viewBox="0 0 72 72" fill="none" xmlns="http://www.w3.org/2000/svg">
<path d="M38.6564 21.3491C38.6727 21.8345 38.7 21.9818 38.7 22.0309C38.7055 22.0909 38.7109 22.1945 38.8309 22.2055C38.9782 22.2164 39.4745 22.2491 39.8836 22.3255C40.3309 22.4073 40.7345 22.5818 40.7891 22.5545C40.86 22.5218 40.7945 22.38 40.7836 22.0364C40.6964 19.4782 43.0036 18.6545 43.2927 17.8855C43.4182 17.5473 43.2436 17.1873 42.9055 15.9273C42.8127 15.5727 42.6218 15.0873 42.5018 14.9018C42.4145 14.7655 42.2182 14.7109 42.1309 15.0982C41.94 15.9491 40.8436 17.1491 39.4745 18.4964C38.8364 19.1236 38.6291 20.5527 38.6564 21.3436V21.3491ZM24.9545 12.0982C25.6364 12.24 26.0291 12.3982 26.2145 12.8073C26.3618 13.1236 26.2855 13.4018 25.9418 13.56C25.5927 13.7182 25.32 13.5927 25.1455 13.2164L25.0091 12.9164L24.1309 13.32L24.2945 13.6745C24.6655 14.4764 25.4509 14.7491 26.3345 14.3455C27.1855 13.9527 27.48 13.0964 27.1036 12.2727C26.7818 11.58 26.1382 11.3127 25.32 11.1382C24.5564 10.9855 24.2018 10.8764 24 10.4455C23.8691 10.1618 23.9727 9.89455 24.2509 9.76909C24.5727 9.62182 24.8455 9.77455 24.9873 10.0964L25.1291 10.4073L26.0018 10.0036L25.8491 9.67091C25.5 8.90727 24.7036 8.59636 23.8909 8.97273C22.9636 9.39818 22.7782 10.26 23.1218 11.0018C23.4491 11.7218 24.2564 11.9673 24.9545 12.1036V12.0982ZM43.6582 11.5636L44.2527 8.97818C44.4545 8.11091 44.0564 7.36364 43.0909 7.14L41.4982 6.77455L40.2273 12.2891L41.82 12.6545C42.7909 12.8782 43.4564 12.4364 43.6582 11.5582V11.5636ZM42.3218 7.89818L42.8127 8.01273C43.1945 8.1 43.3091 8.35636 43.2164 8.75455L42.6327 11.28C42.5455 11.6673 42.3273 11.8473 41.9455 11.76L41.4545 11.6455L42.3164 7.90364L42.3218 7.89818ZM30.3273 12.78L30.2836 11.6509L31.26 11.4327L31.6855 12.48L32.7327 12.2455L30.3927 6.97091L29.2418 7.22727L29.3673 12.9982L30.3273 12.78ZM30.9436 10.6473L30.24 10.8055L30.1364 8.59091L30.9436 10.6473ZM31.9091 14.9291C31.3691 15.1473 31.7127 16.0309 31.3473 16.4891C30.9655 16.9691 30.9164 17.6782 30.9491 18.42C30.9818 19.1618 31.7345 20.0345 32.1218 20.5309C32.5091 21.0273 33.3655 21.6709 33.9982 22.1836C34.2164 22.3582 34.5764 22.5164 34.6145 22.5327C34.6527 22.5436 34.7073 22.5655 34.8491 22.5218C34.9527 22.4945 35.2964 22.4018 36.0055 22.2982C36.7145 22.1945 37.4345 22.1564 37.5055 22.1509C37.5818 22.14 37.6582 22.0309 37.5218 21.9818C37.1345 21.84 35.5091 20.9073 35.1382 20.0509C34.7673 19.1945 34.9255 18.2891 34.5545 17.5145C34.0909 16.5436 32.7764 15.4091 32.52 15.2455C32.2636 15.0818 32.0727 14.8636 31.9036 14.9345L31.9091 14.9291ZM37.5982 13.4345C37.5273 13.3909 37.4673 13.3636 37.3745 13.5109C37.2818 13.6636 36.4691 14.1382 36.1527 15.4745C35.8364 16.8055 35.6618 17.6455 36.4418 19.7291C36.5564 20.0345 37.0636 20.8855 37.4127 21.0655C37.4891 21.1036 37.5709 21.0382 37.5927 20.7927C37.6145 20.5473 37.8218 19.3964 38.1436 18.6545C38.4655 17.9182 39.0764 17.2309 39.1909 17.1C39.3055 16.9691 39.3491 16.8327 39.2673 16.6636C39.1909 16.4891 38.9891 15.9982 38.9236 15.7745C38.8582 15.5509 38.7327 15.0218 38.3836 14.4709C38.04 13.92 37.6691 13.4727 37.5982 13.4345ZM35.64 12.0327V8.71636L36.0382 9.61636L37.1345 12.0273H37.9527L37.9473 6.36545H36.9927V9.72545L36.6164 8.82545L35.5691 6.37091H34.6582L34.6636 12.0327H35.6345H35.64ZM41.7982 21.7964C41.6782 22.2 41.6727 22.62 41.6782 22.7455C41.6782 22.8327 41.7491 22.9036 41.8309 22.9255C41.9127 22.9473 43.1182 23.4655 44.4927 24.8455C44.9945 25.3527 45.9 26.7382 45.9818 26.8364C46.0636 26.9345 46.1455 26.9073 46.1836 26.8745C46.2218 26.8418 46.26 26.7818 46.44 26.4818C46.62 26.1818 46.74 25.7018 46.74 25.0964C46.74 24.4964 46.6309 23.6182 45.8127 22.8327C45.54 22.5709 45.2236 21.9491 45.0545 21.54C44.46 20.0945 44.94 19.1509 45.0764 18.8836C45.1582 18.7309 45.0927 18.5455 45.0109 18.48C44.9291 18.42 44.6618 18.5618 44.5909 18.5945C43.6909 19.08 42.4473 19.5764 41.7982 21.7909V21.7964ZM50.5255 16.6691L51.9545 14.8091L52.3909 15.1473C52.6255 15.3273 52.5982 15.5891 52.44 15.7964L51.7909 16.6364C51.4909 17.0291 51.4091 17.3945 51.7418 17.6509L52.2491 18.0382L52.44 17.7873C52.4236 17.6018 52.4727 17.4164 52.6309 17.2036L53.2636 16.38C53.4873 16.0909 53.5473 15.6655 53.2691 15.3C53.7 15.4636 54.0491 15.3327 54.3109 14.9945L54.7964 14.3618C55.2764 13.7345 55.14 13.0691 54.5236 12.5945L53.1436 11.5309L49.6855 16.0145L50.52 16.6582L50.5255 16.6691ZM53.4545 12.8727L53.9127 13.2273C54.12 13.3909 54.1145 13.5764 53.9618 13.7782L53.4709 14.4164C53.2855 14.6564 53.0836 14.6836 52.8655 14.52L52.44 14.1927L53.4545 12.8727ZM55.2982 19.1836L55.5545 18.9709L54.9327 18.2236L54.6327 18.4745C53.9509 19.0418 53.8964 19.8764 54.5127 20.6182C55.1127 21.3382 56.0182 21.4036 56.7164 20.82C57.3055 20.3291 57.3927 19.6364 57.3491 18.8018C57.3 18.0273 57.3109 17.6509 57.6764 17.3455C57.9164 17.1436 58.2 17.1764 58.3964 17.4109C58.6255 17.6836 58.5436 17.9836 58.2764 18.2073L58.0145 18.4255L58.6309 19.1618L58.9091 18.9273C59.5582 18.3873 59.6455 17.5418 59.0727 16.8545C58.4182 16.0691 57.54 16.1182 56.9127 16.6418C56.3073 17.1491 56.2745 17.9891 56.3291 18.7036C56.3673 19.4018 56.3182 19.8218 55.9691 20.1055C55.7018 20.3291 55.4127 20.3291 55.1727 20.04C54.9273 19.7455 54.9764 19.4509 55.2982 19.1836ZM59.2309 29.3345L62.4491 28.5436L61.6691 29.1491L59.5855 30.7909L59.7818 31.5818L65.28 30.2291L65.0509 29.3073L61.7891 30.1091L62.5745 29.5309L64.7073 27.9273L64.4891 27.0436L58.9909 28.3964L59.22 29.3345H59.2309ZM57.3818 24.96C57.8345 25.8436 58.6909 26.0945 59.4927 25.6855L62.0073 24.3982C62.8036 23.9891 63.0982 23.1545 62.6455 22.2655C62.1982 21.3873 61.3364 21.1309 60.5455 21.5345L58.0309 22.8218C57.2291 23.2309 56.9345 24.0818 57.3873 24.96H57.3818ZM58.4564 23.8091L61.0909 22.4618C61.3855 22.3091 61.6745 22.3855 61.8273 22.6855C61.9855 22.9964 61.8764 23.2691 61.5818 23.4218L58.9473 24.7691C58.6527 24.9218 58.3636 24.8455 58.2055 24.5345C58.0527 24.2345 58.1564 23.9564 58.4509 23.8036L58.4564 23.8091ZM38.94 38.1818C39.0709 38.2145 40.62 38.5745 40.74 38.5855C40.86 38.5964 40.9473 38.5855 40.9745 38.4709C40.9855 38.4109 41.2473 37.5055 41.6782 36.8782C42.4091 35.82 43.0527 35.3073 43.1727 35.1873C43.2927 35.0673 43.3364 35.0236 43.2873 34.9418C43.26 34.8982 43.1782 34.7509 43.0527 34.4073C42.9218 34.0527 42.7582 33.0164 42.7473 32.8745C42.7364 32.7327 42.6 32.7491 42.4582 32.8582C42.3164 32.9673 41.1709 33.6545 40.2109 35.1218C39.42 36.3218 38.9182 37.7182 38.8855 37.8382C38.8527 37.9582 38.82 38.1545 38.9509 38.1873L38.94 38.1818ZM44.1436 28.6909C44.6345 27.9764 45.2564 27.5291 45.2564 27.4418C45.2564 27.2236 44.7818 26.6455 44.4491 26.2636C44.0182 25.7618 42.8182 24.9109 41.8091 24.7909C40.6364 24.6545 38.9673 24.5182 36.7145 25.6091C34.2927 26.7764 32.8691 28.2 32.7764 28.2873C32.7 28.3582 32.6727 28.4345 32.6782 28.6691C32.6836 28.9636 32.6945 29.9236 32.9509 30.8127C33.2073 31.7018 33.4527 32.1109 33.4909 32.1764C33.5291 32.2418 33.6109 32.2691 33.8673 32.1655C34.1236 32.0564 35.9073 31.2327 38.5255 30.8836C41.1436 30.5345 43.0636 30.9218 43.1727 30.9382C43.2818 30.9491 43.2982 30.7691 43.3255 30.5891C43.3964 30.1745 43.8055 29.1709 44.1382 28.6909H44.1436ZM39.7745 30.1309C38.7327 30.1909 37.7564 29.46 37.6091 28.08C37.4673 26.7655 38.5964 25.9255 39.5455 25.8055C40.2873 25.7127 41.7545 26.0891 41.8745 27.8618C41.9891 29.6345 40.3964 30.0873 39.78 30.1255L39.7745 30.1309ZM41.8909 32.0891C41.9673 32.0236 41.8473 31.9527 41.7818 31.9473C40.7836 31.8491 39.8127 31.8055 38.0836 32.1218C36.3545 32.4382 34.3636 33.3055 34.2818 33.3436C34.2055 33.3818 34.1509 33.4909 34.1673 33.5564C34.1945 33.6818 34.3582 34.0909 35.2473 35.16C36.12 36.2127 37.7727 36.9927 37.8927 37.0364C38.0073 37.0855 38.0564 37.0582 38.1218 36.9873C38.1873 36.9218 38.7709 35.3564 39.2018 34.7345C40.5873 32.7273 41.82 32.1545 41.8964 32.0836L41.8909 32.0891ZM44.2255 31.3691C44.4764 31.38 46.1891 31.5709 47.5964 32.2473C49.0036 32.9236 49.4945 33.3109 49.6036 33.3927C49.7127 33.4745 49.8273 33.3545 49.7618 33.1418C49.6909 32.9073 49.2709 31.7345 48.2891 30.5236C47.3073 29.3127 46.3473 28.4127 46.1236 28.32C45.9 28.2273 45.6873 28.1836 45.4364 28.4018C45.1855 28.6255 45.0927 28.7345 44.6836 29.3945C44.2745 30.0545 44.0182 31.0418 43.9964 31.1455C43.98 31.2491 43.9691 31.3582 44.22 31.3691H44.2255ZM48.2673 14.0727L46.7782 13.3691L47.4491 11.9455L48.48 12.4309L48.8345 11.6782L47.8036 11.1927L48.4036 9.92727L49.8927 10.6309L50.28 9.80727L47.8364 8.65091L45.42 13.7673L47.8636 14.9236L48.2673 14.0727ZM39.6873 27.0709C39.3273 27.1745 39.1527 27.3382 39.1091 27.66C39.0655 27.9818 39.1255 28.62 39.6982 28.6309C40.2709 28.6418 40.6091 28.4018 40.6255 27.9382C40.6418 27.4745 40.1455 26.94 39.6873 27.0709ZM31.5873 29.6455C31.5218 29.5255 31.4018 29.5364 31.2491 29.7273C31.0036 30.0382 28.8491 32.5745 26.9073 36.54C26.7818 36.8018 26.7982 37.1236 27.1255 36.8618C27.4473 36.6055 29.0509 35.0345 30.2727 34.2818C31.6091 33.4582 31.9909 33.3109 32.1491 33.2127C32.4218 33.0491 32.4982 32.9291 32.4327 32.7273C32.3673 32.5255 31.9418 31.6091 31.7945 30.8945C31.7073 30.4745 31.6582 29.76 31.5873 29.64V29.6455ZM54.3818 51.2782L57.3709 54.0927L56.3236 53.4109L53.8418 51.8564L53.2964 52.44L54.9764 54.8509L55.7182 55.86L52.7291 53.0455L52.0473 53.7709L56.1709 57.6491L57.1364 56.6236L55.44 54.2345L54.8073 53.3836L55.6909 53.9673L58.1836 55.5109L59.1545 54.4745L55.0309 50.5964L54.3873 51.2836L54.3818 51.2782ZM36.7473 44.6182C36.7255 44.34 36.5945 44.4164 36.5127 44.5691C35.8855 45.84 34.1073 51.7255 35.3182 56.4709C36.0218 59.2309 35.1545 64.2491 34.6855 65.6127C34.5982 65.8582 34.8927 65.8855 34.9582 65.7164C35.0073 65.5909 36.1145 63.9327 37.08 61.8873C38.0564 59.82 38.5091 58.32 38.5364 57.1145C38.5636 55.7836 38.3618 54.0491 37.3855 51.4582C36.6055 49.3855 36.7691 44.8964 36.7418 44.6127L36.7473 44.6182ZM48.2509 33.4036C48.1255 33.3655 47.9345 33.2073 46.2491 32.7273C44.5636 32.2473 43.9691 32.1382 43.7564 32.3291C43.6636 32.4109 43.6309 33.2182 43.7073 33.6382C43.7836 34.0527 44.0891 34.8873 44.3182 34.9145C44.5473 34.9418 44.7109 34.6582 45.3545 34.3855C45.7582 34.2164 46.0855 34.2109 46.7455 34.1182C47.5636 33.9982 48.1255 33.6927 48.2673 33.6273C48.3873 33.5727 48.3655 33.4418 48.24 33.4036H48.2509ZM40.2436 45.5727C39.5945 42.9655 40.5164 39.8782 40.5164 39.8073C40.5218 39.66 40.5545 39.54 40.4345 39.5236C40.3309 39.5073 40.1291 39.48 39.7582 39.3982C39.3818 39.3164 38.82 39.1582 38.6836 39.12C38.5418 39.0873 38.4982 39.12 38.4273 39.2673C37.5 41.1382 37.0691 45.1582 38.6509 51.78C39.4364 55.0745 41.8582 59.3564 42.5455 60.5836C43.2327 61.8055 43.5 63.1964 43.7673 63.2182C44.0345 63.24 44.0564 62.7982 44.0836 61.74C44.1055 60.6764 43.7236 55.7618 43.2818 53.5909C42.84 51.42 40.7455 47.5691 40.2491 45.5782L40.2436 45.5727ZM43.5982 35.9836C43.5436 35.9564 43.5273 35.9564 43.4618 36.0382C43.3964 36.12 42.0818 37.6582 41.7327 38.6345C41.3836 39.6109 41.6782 40.6036 41.8145 41.1109C41.9564 41.6182 41.9509 42.6764 41.9945 42.9327C42.0382 43.1891 42.1691 43.2382 42.6273 43.0309C43.08 42.8236 44.0727 41.64 44.28 40.1891C44.4873 38.7382 44.28 37.9527 43.9691 37.1564C43.8109 36.7527 43.7836 36.0764 43.5982 35.9891V35.9836ZM50.6891 57.8345C49.9909 57.7909 49.5818 57.6927 49.3364 57.3164C49.1455 57.0218 49.1836 56.7382 49.4945 56.5309C49.8164 56.3236 50.1055 56.4055 50.3291 56.7545L50.5091 57.0327L51.3218 56.5036L51.1091 56.1764C50.6236 55.4345 49.8055 55.2818 48.9927 55.8109C48.2127 56.3236 48.0436 57.2127 48.54 57.9764C48.96 58.6145 49.6364 58.7836 50.4709 58.8382C51.2509 58.8764 51.6164 58.9309 51.8782 59.3291C52.0527 59.5909 51.9873 59.8691 51.7309 60.0327C51.4309 60.2291 51.1418 60.1145 50.9509 59.82L50.7655 59.5364L49.9636 60.06L50.1655 60.3655C50.6236 61.0691 51.4582 61.2546 52.2055 60.7691C53.0618 60.2127 53.1164 59.3345 52.6691 58.6473C52.2382 57.9873 51.4036 57.8618 50.6891 57.8291V57.8345ZM36 2.23091C17.3782 2.23091 2.23091 17.3782 2.23091 36C2.23091 54.6218 17.3782 69.7691 36 69.7691C54.6218 69.7691 69.7691 54.6218 69.7691 36C69.7691 17.3782 54.6218 2.23091 36 2.23091ZM43.08 67.0582C43.02 66.4527 42.9436 65.9127 42.8673 65.4436C42.3382 62.1709 40.2273 58.3855 39.9873 58.0745C39.7473 57.7636 39.5236 57.9873 39.6109 58.2436C39.6109 58.2436 39.96 62.4436 39.1855 67.6909C38.7927 67.7291 38.3945 67.7618 37.9909 67.7836C38.1982 66.4964 38.2909 65.4873 38.3782 64.8818C38.7436 62.3564 38.7873 60.8509 38.7873 60.6055C38.7873 60.36 38.5036 60.3327 38.2582 61.02C38.1273 61.3855 37.0255 64.3364 34.7727 67.8164C34.1782 67.7945 33.5891 67.7564 33.0055 67.7018C33.0655 67.5709 33.12 67.44 33.1691 67.3146C34.0364 65.2418 34.3309 63.4255 34.3473 62.8855C34.3636 62.2255 34.2109 61.8273 33.9545 62.5964C33.7691 63.1582 33.1473 64.8818 30.4691 67.3636C30.0545 67.2927 29.6455 67.2109 29.2364 67.1182C34.0255 62.7982 34.5273 57.9655 34.5436 57.8836C34.5655 57.7855 34.5818 57.5236 34.4236 57.5836C34.2982 57.6327 33.0709 60.5782 31.6036 61.9145C30.1309 63.2455 29.0182 63.3436 28.8382 63.0873C28.6582 62.8309 29.3564 61.5218 29.6509 60.1636C30.1855 57.72 30.3764 55.2927 30.1855 53.8036C30.0709 52.8927 29.8473 52.9473 29.8255 53.2691C29.8036 53.5855 29.4873 58.9145 26.4873 63.9655C26.0836 64.6418 25.62 65.3018 25.1182 65.9291C24.8018 65.8146 24.4855 65.6945 24.1745 65.5691C26.28 62.8364 27.3055 60.2618 27.3873 60.0436C27.6164 59.4273 27.4091 59.16 27.12 59.6182C26.3073 60.9164 24.5182 61.8055 23.82 62.1164C23.1218 62.4273 23.1491 61.8327 23.2527 61.5764C23.3564 61.32 24.2291 59.1818 24.4636 57.8891C25.0745 54.5618 24.18 51.1855 24.0273 51.2073C23.8745 51.2345 23.4164 52.9309 23.2691 53.6236C23.0509 54.6545 22.7673 57.4091 22.9691 58.3145C23.1764 59.2146 22.74 59.1927 22.5327 59.0891C22.3255 58.9855 21.7582 58.6364 20.9073 57.6818C20.0564 56.7273 19.4127 55.0527 19.3364 54.7909C19.26 54.5345 19.0691 54.6055 19.0527 54.9218C18.9545 56.8745 18.1745 59.1982 16.9473 61.5055C16.6364 61.2764 16.3364 61.0364 16.0364 60.7909C16.0527 60.7582 16.0745 60.7255 16.0909 60.6927C17.8527 57.6109 18.42 54.3927 18.6109 52.4182C18.7091 51.3927 19.1564 49.0745 19.2 48.7255C19.2436 48.3764 19.0909 48.4418 18.9382 48.6164C18.7855 48.7909 17.5036 50.8091 15.7036 53.4164C15.1473 54.2236 14.0891 55.7836 12.6655 57.6436C12.3764 57.3273 12.0873 57.0109 11.8091 56.6836C14.34 53.4655 16.3145 50.6291 16.3855 50.5091C16.5327 50.2636 16.2764 50.1982 15.7636 50.46C14.6836 51.0218 13.5764 51.1691 10.5273 51.4636C9.82909 51.5291 9.08182 51.5673 8.25273 51.6109C5.64 46.9909 4.15091 41.6618 4.15091 35.9891C4.14545 18.4364 18.4364 4.14545 36 4.14545C53.5636 4.14545 67.8545 18.4364 67.8545 36C67.8545 51.1309 57.2509 63.8291 43.08 67.0582ZM57.24 47.0018L59.2909 48.1473L59.0236 48.6273C58.8764 48.8891 58.62 48.9 58.3909 48.7691L57.4636 48.2509C57.0327 48.0109 56.6564 47.9891 56.4545 48.3491L56.1436 48.9055L56.4164 49.0582C56.5964 49.0145 56.7927 49.0309 57.0218 49.1618L57.9273 49.6691C58.2436 49.8491 58.6745 49.8436 58.9964 49.5164C58.8982 49.9691 59.0782 50.2909 59.4491 50.4982L60.1473 50.8855C60.8345 51.2727 61.4782 51.0327 61.8545 50.3564L62.7055 48.8345L57.7636 46.08L57.2509 47.0018H57.24ZM59.7109 48.9927L59.9727 48.5236L61.4291 49.3364L61.1455 49.8436C61.02 50.0727 60.8291 50.0945 60.6055 49.9691L59.9018 49.5764C59.6345 49.4291 59.58 49.2327 59.7109 48.9927ZM36 0C16.1509 0 0 16.1509 0 36C0 55.8491 16.1509 72 36 72C55.8491 72 72 55.8491 72 36C72 16.1509 55.8491 0 36 0ZM36 71.04C16.68 71.04 0.96 55.32 0.96 36C0.96 16.68 16.68 0.96 36 0.96C55.32 0.96 71.0455 16.68 71.0455 36C71.0455 55.32 55.3255 71.04 36 71.04ZM59.2582 41.9291L60.2673 42.4473L59.9782 43.4073L58.86 43.2655L58.5491 44.2909L64.2927 44.8527L64.6364 43.7236L59.5473 40.9909L59.2636 41.9345L59.2582 41.9291ZM61.02 42.8291L63 43.8273L60.8127 43.5218L61.02 42.8291ZM60.0764 36.8564L59.9727 37.9036L62.3673 38.1436L62.2527 39.3109L63.1309 39.3982L63.2455 38.2309L64.7236 38.3782L64.5655 39.96L65.4436 40.0473L65.7055 37.4182L60.0709 36.8564H60.0764ZM12.6982 41.5036L9.31091 41.5691L12.4691 40.3527L12.2836 39.4255L6.52364 39.5182L6.71455 40.4782L10.4891 40.2764L6.93273 41.58L7.09636 42.3818L10.8873 42.2618L7.32 43.5L7.52727 44.5255L12.8836 42.4255L12.6982 41.5091V41.5036ZM20.3182 15.7309C20.7655 15.3927 20.8745 14.8364 20.4927 14.3345C20.1109 13.8327 19.5491 13.7945 19.1018 14.1327C18.6491 14.4764 18.5345 15.0327 18.9164 15.5345C19.2982 16.0364 19.86 16.0745 20.3127 15.7309H20.3182ZM12.6927 30.96L12.9436 29.9345L10.6964 29.3782L7.75091 27.3273L7.5 28.3527L9.56727 29.58L7.15636 29.7382L6.88909 30.8127L10.44 30.4036L12.6873 30.96H12.6927ZM12.1036 35.9891L11.0018 35.7382L11.0455 34.7345L12.1636 34.5927L12.2073 33.5236L6.50727 34.4236L6.45818 35.6018L12.0655 36.9709L12.1036 35.9836V35.9891ZM10.1727 35.5636L8.00727 35.0945L10.2055 34.8436L10.1782 35.5636H10.1727ZM18.3545 19.9855L17.6182 19.3909L16.5818 20.6727L15.36 19.6855L16.0745 18.8018L15.4255 18.2782L14.7109 19.1618L13.62 18.2836L14.6564 17.0018L13.9473 16.4291L12.2509 18.5345L16.6582 22.0909L18.3545 19.9855ZM14.3509 26.0673L11.3836 24.5836L12.3709 24.6273L15.0218 24.7255L15.3873 23.9945L10.32 21.4636L9.89455 22.3145L12.9 23.8145L11.9291 23.7491L9.26182 23.5855L8.85273 24.3982L13.92 26.9291L14.3509 26.0618V26.0673ZM32.6727 38.6782C34.5164 37.9691 36.6436 37.7564 36.72 37.7564C36.7964 37.7564 36.8291 37.6418 36.7364 37.5873C36.5945 37.5055 35.4491 36.9982 34.5545 36.0545C33.9382 35.4055 33.2182 34.2709 33.1255 34.0964C33.06 33.9764 33.0218 33.8891 32.7273 33.9491C32.4873 33.9982 29.6291 34.32 24.4582 40.98C19.9636 46.7673 20.0618 49.8382 19.8873 51.9764C19.7127 54.1145 21.6218 56.9891 21.7745 57.2291C21.84 57.3327 21.9927 57.3055 21.9709 57.1145C21.9382 56.8473 22.1618 53.0073 24.4964 47.2636C26.9455 41.2309 31.4236 39.1582 32.6727 38.6782ZM35.2745 39.1909C35.4273 39.0982 35.2582 38.94 35.1273 38.9727C31.7073 39.9327 28.8382 41.8964 26.7927 45.1364C24.7527 48.3764 25.2709 51.4636 25.5436 54.1036C25.8164 56.7491 25.2491 59.1436 25.1455 59.5855C25.0418 60.0327 24.78 60.3818 24.9055 60.48C25.0582 60.5945 26.0455 60.0382 27.2073 57.9436C28.5545 55.5164 28.7345 53.3836 29.0891 51.3327C29.4436 49.2818 30.2836 46.2491 31.6309 43.6145C32.9782 40.98 35.1218 39.2782 35.2691 39.1855L35.2745 39.1909ZM37.4018 39.0436C37.5109 38.9018 37.3473 38.8309 37.2164 38.8964C35.0018 40.0418 32.7655 43.0855 31.6691 46.1727C30.5727 49.26 30.6873 52.2382 30.9436 54.0491C31.3636 57 30.5182 60.6109 30.4091 61.1182C30.3055 61.6255 30.6109 61.6036 30.7418 61.4673C30.8182 61.3909 31.6418 60.8727 32.6291 58.9527C33.6218 57.0273 33.8891 53.2036 34.1236 50.8855C34.3582 48.5673 35.4982 44.0073 35.8364 42.9818C36.1745 41.9564 37.2927 39.1909 37.3964 39.0436H37.4018ZM38.4927 24.2018C40.4455 23.8473 41.5582 24.2291 42.0327 24.2782C42.36 24.3109 42.3273 23.9073 42.0491 23.7927C37.7891 22.0418 31.6855 23.1055 27.0491 28.1509C22.4127 33.1964 17.7764 41.8255 15.4255 45.4036C13.0745 48.9818 8.87455 49.5218 8.56909 49.5655C8.26909 49.6091 8.22 49.8273 8.43818 49.9636C8.70545 50.1327 10.1182 50.4109 10.6636 50.4327C13.7673 50.5364 17.3073 49.2655 19.3909 46.4836C26.7655 36.6436 27.0273 33.4418 30.2073 29.7218C33.1964 26.2255 36.54 24.5509 38.4873 24.1964L38.4927 24.2018Z" fill="#B01F28"/>
</svg>
