<svg width="20" height="20" viewBox="0 0 20 20" fill="none" xmlns="http://www.w3.org/2000/svg">
<path d="M10.1681 5.55863L7.67421 3.7036C7.32581 3.44442 6.89701 3.31421 6.46203 3.33551C6.02704 3.3568 5.61326 3.52828 5.2923 3.82023L1.43945 7.32294C1.05397 7.67284 0.834636 8.16715 0.834636 8.68644L0.834636 12.9639C0.834636 15.1855 2.70133 16.6666 4.56802 16.6666L12.5677 16.6666C14.7014 16.6666 14.7014 13.8896 12.5677 13.8896L12.0348 13.8896" stroke="#B11F28" stroke-width="1.5" stroke-linecap="round" stroke-linejoin="round"/>
<path d="M11.9885 14.1666L13.5267 14.1666C15.5782 14.1666 15.5782 11.3888 13.5267 11.3888L11.9885 11.3888L14.2321 11.3888C16.2836 11.3888 16.2836 8.61103 14.2321 8.61103M11.9885 8.61103L14.2321 8.61103M14.2321 8.61103L17.8227 8.61103C18.1796 8.61078 18.5217 8.46435 18.774 8.20391C19.0263 7.94347 19.168 7.59034 19.168 7.22214C19.168 6.85378 19.0261 6.50052 18.7737 6.24005C18.5212 5.97958 18.1788 5.83325 17.8218 5.83325L7.5013 5.83325" stroke="#B11F28" stroke-width="1.5" stroke-linecap="round" stroke-linejoin="round"/>
</svg>


