<svg width="91" height="91" viewBox="0 0 91 91" fill="none" xmlns="http://www.w3.org/2000/svg">
<path d="M48.8573 26.9829C48.878 27.5964 48.9125 27.7826 48.9125 27.8446C48.9194 27.9205 48.9263 28.0514 49.078 28.0652C49.2641 28.079 49.8914 28.1204 50.4085 28.2169C50.9738 28.3203 51.4839 28.5409 51.5529 28.5064C51.6425 28.4651 51.5598 28.2858 51.546 27.8515C51.4357 24.6183 54.3518 23.5773 54.7172 22.6052C54.8758 22.1778 54.6552 21.7228 54.2277 20.1303C54.1105 19.6822 53.8692 19.0686 53.7176 18.8342C53.6073 18.6619 53.3591 18.593 53.2488 19.0824C53.0075 20.1579 51.6218 21.6745 49.8914 23.3773C49.0849 24.1702 48.8229 25.9764 48.8573 26.976V26.9829ZM31.5398 15.2908C32.4015 15.47 32.8979 15.6699 33.1323 16.187C33.3184 16.5868 33.2219 16.9384 32.7876 17.1383C32.3464 17.3383 32.0017 17.1797 31.7811 16.704L31.6087 16.3248L30.4988 16.835L30.7056 17.2831C31.1744 18.2965 32.1671 18.6412 33.2839 18.1311C34.3594 17.6347 34.7317 16.5523 34.256 15.5114C33.8492 14.6358 33.0358 14.298 32.0017 14.0774C31.0365 13.8844 30.5884 13.7465 30.3333 13.2019C30.1679 12.8434 30.2989 12.5056 30.6505 12.347C31.0572 12.1609 31.4019 12.3539 31.5811 12.7607L31.7604 13.1536L32.8634 12.6435L32.6704 12.223C32.2292 11.2578 31.2227 10.8648 30.1955 11.3405C29.0235 11.8783 28.7891 12.9675 29.2234 13.9051C29.637 14.8151 30.6573 15.1253 31.5398 15.2977V15.2908ZM55.1791 14.6152L55.9305 11.3474C56.1856 10.2513 55.6824 9.30682 54.4621 9.02417L52.4491 8.56227L50.8428 15.532L52.8558 15.9939C54.083 16.2766 54.924 15.7182 55.1791 14.6083V14.6152ZM53.4901 9.98242L54.1105 10.1272C54.5931 10.2375 54.7379 10.5615 54.6207 11.0648L53.883 14.2567C53.7727 14.7461 53.497 14.9736 53.0144 14.8633L52.3939 14.7186L53.4832 9.98932L53.4901 9.98242ZM38.3303 16.1525L38.2752 14.7255L39.5092 14.4497L40.0469 15.7733L41.3705 15.4769L38.413 8.81045L36.9584 9.13447L37.117 16.4283L38.3303 16.1525ZM39.1093 13.457L38.22 13.6569L38.089 10.858L39.1093 13.457ZM40.3295 18.8687C39.647 19.1445 40.0814 20.2613 39.6195 20.8404C39.1369 21.447 39.0748 22.3433 39.1162 23.2808C39.1576 24.2184 40.1089 25.3214 40.5984 25.9488C41.0879 26.5761 42.1702 27.3896 42.9699 28.0377C43.2457 28.2583 43.7007 28.4582 43.7489 28.4789C43.7972 28.4927 43.8661 28.5202 44.0454 28.4651C44.1764 28.4306 44.6107 28.3134 45.5069 28.1824C46.4031 28.0514 47.3131 28.0032 47.4027 27.9963C47.4992 27.9825 47.5958 27.8446 47.4234 27.7826C46.9339 27.6033 44.8795 26.4245 44.4108 25.3421C43.942 24.2598 44.1419 23.1154 43.6731 22.1364C43.0871 20.9093 41.4257 19.4754 41.1017 19.2686C40.7776 19.0617 40.5364 18.786 40.3227 18.8756L40.3295 18.8687ZM47.5199 16.9798C47.4303 16.9246 47.3545 16.8902 47.2373 17.0763C47.1201 17.2693 46.0929 17.8691 45.693 19.5581C45.2932 21.2402 45.0726 22.3019 46.0584 24.9354C46.2032 25.3214 46.8443 26.3969 47.2855 26.6244C47.382 26.6727 47.4855 26.5899 47.513 26.2797C47.5406 25.9695 47.8026 24.5148 48.2093 23.5773C48.6161 22.6466 49.3882 21.778 49.533 21.6125C49.6777 21.447 49.7329 21.2747 49.6295 21.061C49.533 20.8404 49.2779 20.2199 49.1952 19.9373C49.1124 19.6546 48.9539 18.9859 48.5127 18.2896C48.0783 17.5933 47.6095 17.028 47.5199 16.9798ZM45.045 15.208V11.0165L45.5483 12.154L46.9339 15.2011H47.968L47.9611 8.04523H46.7547V12.2919L46.279 11.1544L44.9554 8.05212H43.8041L43.811 15.208H45.0381H45.045ZM52.8283 27.5482C52.6766 28.0583 52.6697 28.5892 52.6766 28.7477C52.6766 28.858 52.7662 28.9477 52.8696 28.9752C52.973 29.0028 54.4966 29.6577 56.2339 31.4019C56.8681 32.043 58.0125 33.7941 58.1159 33.9182C58.2193 34.0423 58.3227 34.0078 58.371 33.9664C58.4192 33.9251 58.4675 33.8492 58.695 33.4701C58.9225 33.0909 59.0742 32.4842 59.0742 31.719C59.0742 30.9607 58.9363 29.8508 57.9022 28.858C57.5575 28.5271 57.1576 27.7412 56.9439 27.2242C56.1925 25.3973 56.7992 24.2046 56.9715 23.8668C57.0749 23.6738 56.9922 23.4394 56.8888 23.3567C56.7854 23.2808 56.4476 23.4601 56.358 23.5014C55.2205 24.115 53.6486 24.7423 52.8283 27.5413V27.5482ZM63.8586 21.0679L65.6648 18.717L66.2163 19.1445C66.5127 19.372 66.4783 19.7029 66.2783 19.9648L65.458 21.0265C65.0788 21.5229 64.9754 21.9848 65.3959 22.3088L66.037 22.7983L66.2783 22.4811C66.2577 22.2467 66.3197 22.0123 66.5196 21.7435L67.3193 20.7025C67.602 20.3371 67.6778 19.7994 67.3262 19.3375C67.8708 19.5443 68.312 19.3789 68.643 18.9514L69.2565 18.1517C69.8632 17.3589 69.6908 16.5179 68.9118 15.9181L67.1676 14.5738L62.7969 20.2406L63.8517 21.0541L63.8586 21.0679ZM67.5606 16.2697L68.1397 16.7178C68.4017 16.9246 68.3948 17.159 68.2017 17.4141L67.5813 18.2207C67.3469 18.524 67.0918 18.5585 66.8161 18.3517L66.2783 17.938L67.5606 16.2697ZM69.8908 24.246L70.2148 23.9771L69.4289 23.0327L69.0497 23.3498C68.188 24.0667 68.119 25.1215 68.898 26.0591C69.6564 26.9691 70.8008 27.0518 71.6832 26.3142C72.4277 25.6937 72.538 24.8182 72.4829 23.7634C72.4208 22.7845 72.4346 22.3088 72.8965 21.9227C73.1998 21.6677 73.5583 21.709 73.8065 22.0055C74.0961 22.3502 73.9926 22.7293 73.6548 23.012L73.3239 23.2877L74.103 24.2184L74.4545 23.922C75.2749 23.2395 75.3852 22.1709 74.6614 21.3023C73.8341 20.3095 72.7242 20.3716 71.9314 21.0334C71.1661 21.6745 71.1248 22.7362 71.1937 23.6393C71.242 24.5217 71.1799 25.0526 70.7387 25.4111C70.4009 25.6937 70.0355 25.6937 69.7322 25.3283C69.422 24.9561 69.484 24.5838 69.8908 24.246ZM74.8613 37.0756L78.9287 36.076L77.9429 36.8412L75.3094 38.9163L75.5576 39.9159L82.5067 38.2062L82.2171 37.0411L78.0945 38.0545L79.0873 37.3238L81.7828 35.297L81.507 34.1802L74.558 35.8899L74.8475 37.0756H74.8613ZM72.5242 31.5467C73.0964 32.6635 74.1788 32.9806 75.1922 32.4636L78.3703 30.8366C79.3768 30.3195 79.7491 29.2648 79.1769 28.1411C78.6116 27.0311 77.5223 26.7071 76.5227 27.2173L73.3446 28.8442C72.3312 29.3613 71.9589 30.4367 72.5311 31.5467H72.5242ZM73.8823 30.092L77.2121 28.3892C77.5844 28.1962 77.9498 28.2927 78.1428 28.6719C78.3427 29.0648 78.2048 29.4095 77.8326 29.6026L74.5028 31.3054C74.1305 31.4984 73.7652 31.4019 73.5652 31.0089C73.3722 30.6298 73.5032 30.2782 73.8755 30.0852L73.8823 30.092ZM49.2158 48.2576C49.3813 48.2989 51.3392 48.7539 51.4908 48.7677C51.6425 48.7815 51.7528 48.7677 51.7873 48.623C51.8011 48.5471 52.132 47.4027 52.6766 46.6099C53.6004 45.2725 54.4139 44.6245 54.5655 44.4728C54.7172 44.3211 54.7724 44.266 54.7103 44.1626C54.6758 44.1074 54.5724 43.9213 54.4139 43.487C54.2484 43.0389 54.0416 41.729 54.0278 41.5498C54.014 41.3705 53.8417 41.3912 53.6624 41.5291C53.4832 41.667 52.0355 42.5356 50.8221 44.3901C49.8225 45.9067 49.1883 47.6716 49.1469 47.8233C49.1055 47.9749 49.0642 48.2231 49.2296 48.2645L49.2158 48.2576ZM55.7927 36.2621C56.4131 35.359 57.199 34.7937 57.199 34.6834C57.199 34.4077 56.5992 33.6769 56.1787 33.1943C55.6341 32.5601 54.1174 31.4846 52.842 31.333C51.3598 31.1606 49.2503 30.9883 46.4031 32.367C43.3422 33.8424 41.5429 35.6417 41.4257 35.752C41.3292 35.8416 41.2947 35.9381 41.3016 36.2345C41.3085 36.6068 41.3223 37.8202 41.6463 38.9439C41.9703 40.0676 42.2805 40.5846 42.3288 40.6674C42.377 40.7501 42.4805 40.7845 42.8045 40.6536C43.1285 40.5157 45.3828 39.4747 48.6919 39.0335C52.001 38.5923 54.4277 39.0817 54.5655 39.1024C54.7034 39.1162 54.7241 38.8887 54.7586 38.6612C54.8482 38.1373 55.3652 36.8688 55.7858 36.2621H55.7927ZM50.2706 38.0821C48.9539 38.158 47.7198 37.2342 47.5337 35.49C47.3545 33.8286 48.7815 32.7669 49.9811 32.6152C50.9186 32.498 52.7731 32.9737 52.9248 35.2142C53.0695 37.4548 51.0565 38.027 50.2775 38.0752L50.2706 38.0821ZM52.9455 40.557C53.042 40.4743 52.8903 40.3847 52.8076 40.3778C51.546 40.2537 50.3189 40.1986 48.1335 40.5984C45.9481 40.9983 43.4318 42.0944 43.3284 42.1427C43.2319 42.1909 43.163 42.3288 43.1836 42.4115C43.2181 42.5701 43.4249 43.0871 44.5486 44.4383C45.6517 45.7689 47.7405 46.7547 47.8922 46.8098C48.037 46.8719 48.099 46.8374 48.1817 46.7478C48.2645 46.6651 49.0021 44.6865 49.5467 43.9006C51.2978 41.3636 52.8558 40.6398 52.9523 40.5502L52.9455 40.557ZM55.8961 39.647C56.2132 39.6608 58.3779 39.9021 60.1565 40.757C61.9352 41.6118 62.5556 42.1013 62.6935 42.2047C62.8314 42.3081 62.9761 42.1564 62.8934 41.8876C62.8038 41.5911 62.273 40.1089 61.032 38.5785C59.7911 37.048 58.5778 35.9105 58.2952 35.7933C58.0125 35.6761 57.7436 35.621 57.4265 35.8967C57.1094 36.1794 56.9922 36.3173 56.4752 37.1514C55.9581 37.9856 55.6341 39.2334 55.6065 39.3644C55.5858 39.4954 55.572 39.6333 55.8892 39.647H55.8961ZM61.0045 17.7864L59.1224 16.897L59.9704 15.0977L61.2733 15.7113L61.7214 14.7599L60.4185 14.1464L61.1768 12.547L63.0589 13.4363L63.5483 12.3953L60.4598 10.9338L57.4058 17.4003L60.4943 18.8618L61.0045 17.7864ZM50.1603 34.2146C49.7053 34.3456 49.4847 34.5524 49.4295 34.9592C49.3744 35.3659 49.4502 36.1725 50.1741 36.1863C50.898 36.2001 51.3254 35.8967 51.3461 35.3108C51.3667 34.7248 50.7394 34.0492 50.1603 34.2146ZM39.9228 37.4686C39.8401 37.3169 39.6884 37.3307 39.4954 37.572C39.1852 37.9649 36.462 41.1706 34.0078 46.1825C33.8492 46.5134 33.8699 46.9202 34.2836 46.5892C34.6903 46.2652 36.7171 44.2798 38.2614 43.3284C39.9504 42.2874 40.433 42.1013 40.6329 41.9772C40.9776 41.7704 41.0741 41.6187 40.9914 41.3636C40.9086 41.1086 40.3709 39.9504 40.1848 39.0473C40.0745 38.5164 40.0124 37.6133 39.9228 37.4617V37.4686ZM68.7326 64.8099L72.5105 68.3672L71.1868 67.5055L68.0501 65.5407L67.3607 66.2783L69.484 69.3255L70.4216 70.6008L66.6437 67.0436L65.782 67.9605L70.9938 72.862L72.214 71.566L70.07 68.5464L69.2703 67.471L70.3871 68.2086L73.5377 70.1596L74.7648 68.8498L69.553 63.9482L68.7395 64.8168L68.7326 64.8099ZM46.4445 56.3924C46.4169 56.0408 46.2514 56.1373 46.148 56.3304C45.3552 57.9367 43.1078 65.3752 44.6383 71.373C45.5276 74.8613 44.4314 81.2037 43.8386 82.9272C43.7283 83.2374 44.1005 83.2719 44.1833 83.0582C44.2453 82.8996 45.6448 80.8039 46.865 78.2186C48.099 75.6058 48.6712 73.71 48.7057 72.1864C48.7402 70.5043 48.4851 68.312 47.2511 65.0374C46.2652 62.4177 46.472 56.744 46.4376 56.3855L46.4445 56.3924ZM60.9838 42.2185C60.8252 42.1702 60.5839 41.9703 58.4537 41.3636C56.3235 40.757 55.572 40.6191 55.3032 40.8604C55.186 40.9638 55.1446 41.9841 55.2411 42.5149C55.3377 43.0389 55.7237 44.0936 56.0133 44.1281C56.3028 44.1626 56.5096 43.8041 57.3231 43.4594C57.8333 43.2457 58.2469 43.2388 59.0811 43.1216C60.1152 42.9699 60.8252 42.5839 61.0045 42.5011C61.1561 42.4322 61.1286 42.2667 60.97 42.2185H60.9838ZM50.8635 57.5989C50.0431 54.3036 51.2082 50.4016 51.2082 50.312C51.2151 50.1258 51.2564 49.9742 51.1048 49.9535C50.9738 49.9328 50.7187 49.8983 50.2499 49.7949C49.7742 49.6915 49.0642 49.4916 48.8918 49.4433C48.7126 49.402 48.6574 49.4433 48.5678 49.6295C47.3958 51.9941 46.8512 57.0749 48.8505 65.4442C49.8432 69.6081 52.9041 75.0199 53.7727 76.571C54.6414 78.1152 54.9792 79.8732 55.317 79.9008C55.6548 79.9283 55.6823 79.3699 55.7168 78.0325C55.7444 76.6882 55.2618 70.4767 54.7034 67.733C54.145 64.9892 51.4977 60.122 50.8704 57.6058L50.8635 57.5989ZM55.1033 45.4793C55.0343 45.4449 55.0136 45.4448 54.9309 45.5483C54.8482 45.6517 53.1867 47.5958 52.7455 48.8298C52.3043 50.0638 52.6766 51.3185 52.8489 51.9596C53.0282 52.6008 53.0213 53.9382 53.0764 54.2622C53.1316 54.5862 53.297 54.6483 53.8761 54.3863C54.4483 54.1243 55.703 52.6283 55.965 50.7945C56.227 48.9608 55.965 47.968 55.572 46.9615C55.3721 46.4514 55.3377 45.5965 55.1033 45.4862V45.4793ZM64.0654 73.0964C63.183 73.0413 62.6659 72.9172 62.3557 72.4415C62.1144 72.0692 62.1627 71.7108 62.5556 71.4488C62.9623 71.1868 63.3277 71.2902 63.6104 71.7314L63.8379 72.083L64.8651 71.4143L64.5962 71.0007C63.9827 70.0631 62.9486 69.8701 61.9214 70.5388C60.9355 71.1868 60.7218 72.3105 61.3492 73.2757C61.88 74.0823 62.7348 74.296 63.7896 74.3649C64.7755 74.4132 65.2374 74.4821 65.5683 74.9854C65.7889 75.3163 65.7061 75.6679 65.3821 75.8747C65.003 76.1229 64.6376 75.9781 64.3963 75.6058L64.1619 75.2474L63.1485 75.9092L63.4036 76.2952C63.9827 77.1845 65.0374 77.4189 65.9819 76.8054C67.0642 76.1022 67.1332 74.9923 66.5679 74.1236C66.0233 73.2895 64.9685 73.1309 64.0654 73.0895V73.0964ZM45.5 2.81962C21.9641 2.81962 2.81962 21.9641 2.81962 45.5C2.81962 69.0359 21.9641 88.1804 45.5 88.1804C69.0359 88.1804 88.1804 69.0359 88.1804 45.5C88.1804 21.9641 69.0359 2.81962 45.5 2.81962ZM54.4483 84.7541C54.3725 83.9889 54.276 83.3064 54.1795 82.7135C53.5108 78.5771 50.8428 73.7927 50.5395 73.3998C50.2361 73.0068 49.9535 73.2895 50.0638 73.6135C50.0638 73.6135 50.505 78.9218 49.5261 85.5538C49.0297 85.602 48.5264 85.6434 48.0163 85.671C48.2783 84.044 48.3955 82.7686 48.5058 82.0034C48.9677 78.8115 49.0228 76.9088 49.0228 76.5986C49.0228 76.2883 48.6643 76.2539 48.3541 77.1225C48.1886 77.5844 46.7961 81.314 43.9489 85.7123C43.1974 85.6848 42.4529 85.6365 41.7152 85.5676C41.7911 85.4021 41.86 85.2367 41.922 85.0781C43.0182 82.4584 43.3905 80.1627 43.4111 79.4802C43.4318 78.6461 43.2388 78.1428 42.9148 79.1149C42.6804 79.8249 41.8945 82.0034 38.5095 85.1402C37.9856 85.0505 37.4686 84.9471 36.9515 84.8299C43.0044 79.3699 43.6386 73.2619 43.6593 73.1585C43.6869 73.0344 43.7076 72.7035 43.5077 72.7793C43.3491 72.8414 41.798 76.5641 39.9435 78.2531C38.0821 79.9352 36.6758 80.0593 36.4483 79.7353C36.2208 79.4113 37.1032 77.7567 37.4755 76.0402C38.1511 72.9517 38.3923 69.8839 38.1511 68.0018C38.0063 66.8505 37.7236 66.9195 37.6961 67.3262C37.6685 67.7261 37.2686 74.4614 33.477 80.8452C32.9668 81.7001 32.3808 82.5342 31.7466 83.327C31.3467 83.1823 30.9469 83.0306 30.5539 82.872C33.215 79.4182 34.5111 76.1642 34.6145 75.8885C34.904 75.1095 34.642 74.7717 34.2767 75.3508C33.2495 76.9915 30.9883 78.1152 30.1058 78.5082C29.2234 78.9011 29.2579 78.1497 29.3889 77.8257C29.5198 77.5017 30.6229 74.7992 30.9193 73.1654C31.6914 68.9601 30.5608 64.6927 30.3678 64.7203C30.1748 64.7548 29.5957 66.8988 29.4095 67.7743C29.1338 69.0773 28.7753 72.5587 29.0304 73.7031C29.2923 74.8406 28.7408 74.813 28.4789 74.682C28.2169 74.5511 27.4999 74.1098 26.4245 72.9034C25.349 71.697 24.5355 69.5805 24.439 69.2496C24.3425 68.9256 24.1012 69.0152 24.0805 69.4151C23.9564 71.8831 22.9706 74.8199 21.4195 77.7361C21.0265 77.4465 20.6473 77.1432 20.2682 76.833C20.2889 76.7916 20.3164 76.7502 20.3371 76.7089C22.5639 72.8138 23.2808 68.7464 23.5221 66.2508C23.6462 64.9547 24.2115 62.0248 24.2667 61.5836C24.3218 61.1423 24.1288 61.2251 23.9358 61.4457C23.7427 61.6663 22.1227 64.217 19.8477 67.5124C19.1445 68.5327 17.807 70.5043 16.0077 72.8551C15.6423 72.4553 15.277 72.0555 14.9254 71.6418C18.1242 67.5744 20.6198 63.9895 20.7094 63.8379C20.8955 63.5276 20.5715 63.4449 19.9235 63.7758C18.5585 64.4859 17.159 64.672 13.3053 65.0443C12.4229 65.127 11.4784 65.1753 10.4305 65.2305C7.12833 59.3913 5.24629 52.6559 5.24629 45.4862C5.23939 23.3015 23.3015 5.23939 45.5 5.23939C67.6985 5.23939 85.7606 23.3015 85.7606 45.5C85.7606 64.6238 72.3588 80.6729 54.4483 84.7541ZM72.345 59.4051L74.9371 60.8528L74.5993 61.4595C74.4132 61.7904 74.0892 61.8042 73.7996 61.6387L72.6276 60.9838C72.083 60.6805 71.6073 60.6529 71.3523 61.1079L70.9593 61.8111L71.304 62.0041C71.5315 61.9489 71.7797 61.9696 72.0692 62.1351L73.2136 62.7762C73.6135 63.0037 74.1581 62.9968 74.5648 62.5832C74.4408 63.1554 74.6683 63.5621 75.137 63.8241L76.0195 64.3136C76.8881 64.803 77.7016 64.4997 78.1773 63.6448L79.2527 61.7214L73.0068 58.24L72.3588 59.4051H72.345ZM75.468 61.9214L75.7989 61.3285L77.6395 62.3557L77.2811 62.9968C77.1225 63.2864 76.8812 63.3139 76.5986 63.1554L75.7092 62.659C75.3714 62.4729 75.3025 62.2247 75.468 61.9214ZM45.5 0C20.413 0 0 20.413 0 45.5C0 70.587 20.413 91 45.5 91C70.587 91 91 70.587 91 45.5C91 20.413 70.587 0 45.5 0ZM45.5 89.7867C21.0817 89.7867 1.21333 69.9183 1.21333 45.5C1.21333 21.0817 21.0817 1.21333 45.5 1.21333C69.9183 1.21333 89.7936 21.0817 89.7936 45.5C89.7936 69.9183 69.9252 89.7867 45.5 89.7867ZM74.8958 52.9937L76.1711 53.6486L75.8058 54.862L74.3925 54.6827L73.9995 55.9788L81.2589 56.6889L81.6932 55.2618L75.2611 51.808L74.9026 53.0006L74.8958 52.9937ZM77.1225 54.1312L79.625 55.3928L76.8605 55.0067L77.1225 54.1312ZM75.9298 46.5823L75.7989 47.906L78.8253 48.2093L78.6805 49.6846L79.7905 49.7949L79.9352 48.3196L81.8035 48.5058L81.6036 50.505L82.7135 50.6153L83.0444 47.2924L75.923 46.5823H75.9298ZM16.0491 52.456L11.768 52.5387L15.7595 51.0014L15.5252 49.8294L8.24515 49.9466L8.48644 51.1599L13.257 50.9048L8.7622 52.5525L8.96902 53.5659L13.7603 53.4142L9.25167 54.9792L9.51364 56.2752L16.2835 53.6211L16.0491 52.4629V52.456ZM25.6799 19.8821C26.2452 19.4547 26.3831 18.7515 25.9005 18.1173C25.418 17.483 24.7079 17.4348 24.1426 17.8622C23.5704 18.2965 23.4256 18.9997 23.9082 19.6339C24.3908 20.2682 25.1008 20.3164 25.673 19.8821H25.6799ZM16.0422 39.13L16.3593 37.8339L13.519 37.1308L9.79629 34.5386L9.47917 35.8347L12.092 37.3858L9.04485 37.5858L8.70705 38.9439L13.195 38.4268L16.0353 39.13H16.0422ZM15.2977 45.4862L13.9051 45.1691L13.9602 43.9006L15.3735 43.7214L15.4286 42.3702L8.22447 43.5077L8.16242 44.9967L15.2494 46.7271L15.2977 45.4793V45.4862ZM12.8572 44.9485L10.1203 44.3556L12.8986 44.0385L12.8641 44.9485H12.8572ZM23.1981 25.2594L22.2674 24.508L20.9576 26.128L19.4133 24.8802L20.3164 23.7634L19.4961 23.1016L18.593 24.2184L17.2142 23.1085L18.524 21.4884L17.6278 20.7645L15.4838 23.4256L21.0541 27.9205L23.1981 25.2594ZM18.138 32.9461L14.3877 31.071L15.6355 31.1261L18.9859 31.2502L19.4478 30.3264L13.0433 27.1277L12.5056 28.2031L16.3042 30.0989L15.077 30.0162L11.7059 29.8094L11.1889 30.8366L17.5933 34.0354L18.138 32.9392V32.9461ZM41.2947 48.8849C43.6249 47.9887 46.3135 47.7198 46.41 47.7198C46.5065 47.7198 46.5479 47.5751 46.4307 47.5061C46.2514 47.4027 44.8037 46.7616 43.6731 45.5689C42.8941 44.7486 41.9841 43.3146 41.8669 43.094C41.7842 42.9423 41.7359 42.832 41.3636 42.9079C41.0603 42.9699 37.4479 43.3767 30.9124 51.7942C25.2318 59.1086 25.3559 62.9899 25.1353 65.6924C24.9147 68.3948 27.3276 72.0279 27.5206 72.3312C27.6033 72.4622 27.7964 72.4277 27.7688 72.1864C27.7274 71.8486 28.0101 66.9953 30.9607 59.736C34.0561 52.1113 39.716 49.4916 41.2947 48.8849ZM44.5831 49.533C44.7761 49.4158 44.5624 49.2158 44.397 49.2572C40.0745 50.4705 36.4483 52.9523 33.863 57.0473C31.2847 61.1423 31.9396 65.0443 32.2843 68.381C32.629 71.7245 31.912 74.751 31.7811 75.3094C31.6501 75.8747 31.3192 76.3159 31.4777 76.44C31.6708 76.5848 32.9186 75.8816 34.387 73.2343C36.0898 70.1665 36.3173 67.471 36.7654 64.8789C37.2135 62.2867 38.2752 58.4537 39.978 55.1239C41.6808 51.7942 44.3901 49.6433 44.5762 49.5261L44.5831 49.533ZM47.2717 49.3468C47.4096 49.1676 47.2028 49.078 47.0373 49.1607C44.2384 50.6084 41.4119 54.4552 40.0262 58.3572C38.6405 62.2592 38.7853 66.0233 39.1093 68.312C39.6402 72.0417 38.5716 76.6055 38.4337 77.2466C38.3027 77.8877 38.6888 77.8602 38.8542 77.6878C38.9508 77.5913 39.9917 76.9364 41.2395 74.5097C42.4942 72.0761 42.832 67.2435 43.1285 64.3136C43.4249 61.3836 44.8658 55.6203 45.2932 54.3242C45.7206 53.0282 47.1339 49.533 47.2648 49.3468H47.2717ZM48.6505 30.5884C51.1186 30.1403 52.5249 30.6229 53.1247 30.6849C53.5383 30.7263 53.497 30.2161 53.1454 30.0714C47.7612 27.8584 40.0469 29.2027 34.187 35.5796C28.3272 41.9565 22.4673 52.8627 19.4961 57.3852C16.5248 61.9076 11.2164 62.5901 10.8304 62.6452C10.4512 62.7004 10.3892 62.9761 10.6649 63.1485C11.0027 63.3622 12.7883 63.7138 13.4777 63.7414C17.4003 63.8723 21.8745 62.2661 24.508 58.7502C33.8286 46.3135 34.1595 42.2667 38.1786 37.5651C41.9565 33.1461 46.1825 31.0296 48.6436 30.5815L48.6505 30.5884Z" fill="white"/>
</svg>
