<svg xmlns="http://www.w3.org/2000/svg" width="187" height="316" fill="none" viewBox="0 0 187 316">
  <path fill="#98252C" fill-rule="evenodd" d="M3.78 37.87a2.675 2.675 0 0 0-.881 5.049l.674.337a4.937 4.937 0 0 1 2.729 4.416v177.24c0 .248.018.496.055.741l11.91 79.403a5 5 0 0 0 4.944 4.258h2.026a5 5 0 0 1 3.535 1.465l2.302 2.302a1.485 1.485 0 0 0 2.536-1.05v-10.706c0-.275.022-.55.068-.822l.802-4.815c.56-3.364 4.488-4.938 7.216-2.891a4.549 4.549 0 0 1 1.684 4.742l-.682 2.727a5 5 0 0 0 1.316 4.748l2.2 2.2 6.762 6.763a3.751 3.751 0 0 0 3.839.907l2.248-.75a1.695 1.695 0 0 0 .98-2.366 1.696 1.696 0 0 1 1.517-2.454h.466c.624 0 1.212-.294 1.587-.793l3.853-5.137a5 5 0 0 0 .472-5.236l-.191-.382a5.003 5.003 0 0 1-.528-2.236v-3.619a5.001 5.001 0 0 0-3.419-4.744l-1.763-.587a5.004 5.004 0 0 1-1.954-1.208l-3.575-3.576a5 5 0 0 1-1.368-4.516l.86-4.301a5 5 0 0 1 4.342-3.988l121.069-13.67c2.854-.322 4.687-3.192 3.779-5.917a4.53 4.53 0 0 0-1.091-1.765l-3.873-3.873a5.002 5.002 0 0 1-1.44-4.033l1.662-16.621a5.002 5.002 0 0 0-1.07-3.621l-6.034-7.542a5.001 5.001 0 0 1-1.095-3.123v-6.679c0-1.326.527-2.598 1.464-3.536l1.273-1.272a5.004 5.004 0 0 0 1.464-3.536v-6.616c0-1.163.462-2.278 1.284-3.101l1.768-1.768c1.493-1.493.893-4.035-1.11-4.703a2.84 2.84 0 0 1-1.942-2.695v-4.689a5.002 5.002 0 0 0-1-3l-4.962-6.617a4.963 4.963 0 0 1-.569-.969l-8.173-18.39-36.551-113.721a5 5 0 0 0-5.349-3.435L3.779 37.87Z" clip-rule="evenodd"/>
  <path fill="#fff" d="M106.182 0c-6.926 0-12.541 5.615-12.541 12.542 0 2.478.72 4.774 1.96 6.718.06.095.105.188.167.281l7.782 14.445c.365 1.05 1.401 1.847 2.576 1.847 1.176 0 2.154-.797 2.519-1.847l8.679-15.677a12.515 12.515 0 0 0 1.4-5.767C118.724 5.615 113.109 0 106.182 0Zm-.056 7.11a6.27 6.27 0 1 1 .001 12.542 6.27 6.27 0 0 1-.001-12.541ZM134.182 145c-6.926 0-12.541 5.615-12.541 12.542 0 2.478.719 4.774 1.959 6.718.06.095.106.188.168.281l7.782 14.445c.365 1.05 1.401 1.847 2.576 1.847 1.176 0 2.154-.797 2.519-1.847l8.679-15.677a12.515 12.515 0 0 0 1.4-5.767c0-6.927-5.615-12.542-12.542-12.542Zm-.056 7.111a6.27 6.27 0 1 1 0 12.541 6.27 6.27 0 0 1-6.27-6.27 6.27 6.27 0 0 1 6.27-6.271ZM126.182 200c-6.926 0-12.541 5.615-12.541 12.542 0 2.478.719 4.774 1.959 6.718.06.095.106.188.168.281l7.782 14.445c.365 1.05 1.401 1.847 2.576 1.847 1.176 0 2.154-.797 2.519-1.847l8.679-15.677a12.515 12.515 0 0 0 1.4-5.767c0-6.927-5.615-12.542-12.542-12.542Zm-.056 7.111a6.27 6.27 0 1 1 0 12.541 6.27 6.27 0 0 1-6.27-6.27 6.27 6.27 0 0 1 6.27-6.271ZM153.182 205c-6.926 0-12.541 5.615-12.541 12.542 0 2.478.719 4.774 1.959 6.718.06.095.106.188.168.281l7.782 14.445c.365 1.05 1.401 1.847 2.576 1.847 1.176 0 2.154-.797 2.519-1.847l8.679-15.677a12.515 12.515 0 0 0 1.4-5.767c0-6.927-5.615-12.542-12.542-12.542Zm-.056 7.111a6.27 6.27 0 1 1 0 12.541 6.27 6.27 0 0 1-6.27-6.27 6.27 6.27 0 0 1 6.27-6.271Z"/>
</svg>
