<svg xmlns="http://www.w3.org/2000/svg" width="270" height="376" fill="none" viewBox="0 0 270 376">
  <path fill="#98252C" stroke="#F8F4EA" stroke-linecap="round" stroke-linejoin="round" stroke-width="5" d="m110.99 319.95-2.236 1.118 2.236-1.118a2.507 2.507 0 0 1-.264-1.118v-3.944a7.499 7.499 0 0 0-5.127-7.115l-2.006-.669a2.506 2.506 0 0 1-.977-.604l-3.819-3.819a2.501 2.501 0 0 1-.683-2.258l.941-4.708a2.5 2.5 0 0 1 2.171-1.994l125.864-14.215c4.544-.513 7.462-5.081 6.016-9.419a7.186 7.186 0 0 0-1.737-2.811l-4.086-4.088a2.502 2.502 0 0 1-.72-2.016l1.743-17.435a7.497 7.497 0 0 0-1.606-5.43l-6.357-7.949a2.502 2.502 0 0 1-.547-1.561v-7.086c0-.663.263-1.299.732-1.767l1.435-1.436a7.497 7.497 0 0 0 2.195-5.302v-6.953c0-.545.217-1.068.602-1.453l1.837-1.837c2.864-2.865 1.712-7.742-2.131-9.023a.451.451 0 0 1-.308-.427v-4.936a7.502 7.502 0 0 0-1.499-4.499l-5.205-6.943a2.5 2.5 0 0 1-.285-.484l-2.284 1.015 2.284-1.015-8.441-18.999L170.764 39.51a7.5 7.5 0 0 0-8.024-5.154L42.052 48.68c-3.63.43-5.733 4.332-4.099 7.602a5.277 5.277 0 0 0 2.36 2.36l.771.386a2.5 2.5 0 0 1 1.382 2.236v184.189c0 .372.028.744.083 1.112l12.394 82.652a7.5 7.5 0 0 0 7.418 6.388h2.348a2.5 2.5 0 0 1 1.767.732l2.447 2.447a4.043 4.043 0 0 0 6.901-2.858V324.79c0-.138.011-.275.034-.411l.836-5.018c.274-1.645 2.194-2.414 3.528-1.413.716.537 1.04 1.45.823 2.318l-.734 2.94a7.5 7.5 0 0 0 1.972 7.121l2.361 2.362 7.023 7.025a6.395 6.395 0 0 0 6.546 1.546l2.334-.778a4.265 4.265 0 0 0 2.826-4.91 4.558 4.558 0 0 0 3.109-1.793l4.073-5.432a7.503 7.503 0 0 0 .708-7.852l-.273-.545Z"/>
  <ellipse cx="148.26" cy="55.167" fill="#F8F4EA" rx="9.292" ry="9.294"/>
  <ellipse cx="148.26" cy="55.167" fill="#F8F4EA" opacity=".3" rx="9.292" ry="9.294"/>
  <ellipse cx="177.338" cy="180.846" fill="#F8F4EA" rx="9.292" ry="9.294"/>
  <ellipse cx="177.338" cy="180.846" fill="#F8F4EA" opacity=".3" rx="9.292" ry="9.294"/>
  <ellipse cx="169.03" cy="237.973" fill="#F8F4EA" rx="9.292" ry="9.294"/>
  <ellipse cx="169.03" cy="237.973" fill="#F8F4EA" opacity=".3" rx="9.292" ry="9.294"/>
  <ellipse cx="197.069" cy="243.167" fill="#F8F4EA" rx="9.292" ry="9.294"/>
  <ellipse cx="197.069" cy="243.167" fill="#F8F4EA" opacity=".3" rx="9.292" ry="9.294"/>
</svg>
