<svg xmlns="http://www.w3.org/2000/svg" width="242" height="219" fill="none" viewBox="0 0 242 219">
  <path fill="#98252C" fill-rule="evenodd" d="M17.346 184.086a5 5 0 0 1-2.76-4.273L10.503 77.728.03 16.98a2.062 2.062 0 0 1 1.89-2.408L209.889.157a5 5 0 0 1 3.881 1.453l3.228 3.228a5.002 5.002 0 0 1 1.464 3.535v.528a5.004 5.004 0 0 1-.931 2.906L208.2 24.872a5.06 5.06 0 0 1-.534.63l-1.022 1.023a2.68 2.68 0 0 0 2.274 4.55l24.802-3.544a5.002 5.002 0 0 1 2.944.477l2.637 1.319c.11.055.212.128.299.216.727.726.212 1.968-.815 1.968h-1.672c-1.02 0-1.846.827-1.846 1.846v1.63c0 .465.184.91.513 1.239.806.806.64 2.156-.337 2.742l-5.402 3.242a5 5 0 0 0-2.278 5.5l1.09 4.362c.074.297.112.601.112.907v1.382a2.359 2.359 0 0 1-2.359 2.36 2.36 2.36 0 0 0-2.289 1.786l-1.654 6.616-1.495 4.486a4.623 4.623 0 0 0 .251 3.529l1.306 2.612c.937 1.874-.426 4.078-2.521 4.078a2.818 2.818 0 0 0-2.521 1.558l-2.894 5.79a5.001 5.001 0 0 0-.528 2.236v2.446a5 5 0 0 1-2.227 4.16l-2.247 1.498a4.105 4.105 0 0 0-1.828 3.416v.954a3.151 3.151 0 0 1-3.151 3.151 3.151 3.151 0 0 0-3.151 3.151v13.08a4.998 4.998 0 0 1-2.226 4.16l-2.105 1.404a4.424 4.424 0 0 0-1.971 3.682 4.424 4.424 0 0 1-1.296 3.129l-5.005 5.006a2.972 2.972 0 0 0 0 4.202l.293.293a2.557 2.557 0 0 1 0 3.615 2.572 2.572 0 0 1-.664.479l-4.616 2.308a4.999 4.999 0 0 0-2.667 5.452l.913 4.567a5.002 5.002 0 0 1-.902 3.981l-3.305 4.406a3.184 3.184 0 0 0 .295 4.16l.15.149a2.97 2.97 0 0 1 0 4.201 2.972 2.972 0 0 0 0 4.202l.87.87a4.202 4.202 0 0 1 1.23 2.971v7.25c0 .987.292 1.952.84 2.773l1.172 1.758a4.816 4.816 0 0 1-.602 6.076l-.05.05a4.643 4.643 0 0 0-1.36 3.284 4.645 4.645 0 0 1-4.371 4.636l-133.176 7.834a5 5 0 0 1-5.293-4.991v-24.723a3.585 3.585 0 0 0-3.586-3.587H26.29c-.694 0-1.36.276-1.85.767a2.616 2.616 0 0 1-3.022.49l-2.514-1.257-1.56-.779Z" clip-rule="evenodd"/>
  <path fill="#fff" d="M52.096 45.793c-6.926 0-12.541 5.615-12.541 12.542 0 2.477.72 4.774 1.96 6.718.06.095.105.188.167.281l7.782 14.445c.366 1.05 1.401 1.847 2.577 1.847 1.175 0 2.153-.797 2.519-1.847l8.678-15.677a12.515 12.515 0 0 0 1.4-5.767c0-6.927-5.615-12.542-12.542-12.542Zm-.055 7.11a6.27 6.27 0 1 1 0 12.543 6.27 6.27 0 0 1 0-12.542Z"/>
</svg>
