<svg xmlns="http://www.w3.org/2000/svg" width="315" height="291" fill="none" viewBox="0 0 315 291">
  <path fill="#98252C" stroke="#F8F4EA" stroke-linecap="round" stroke-linejoin="round" stroke-width="5" d="m256.709 49.52-2.034-1.452 2.034 1.453a7.502 7.502 0 0 0 1.398-4.363v-.53c0-1.99-.79-3.9-2.198-5.307l-3.232-3.232a7.506 7.506 0 0 0-5.827-2.181L38.601 48.342a4.565 4.565 0 0 0-4.183 5.33l10.46 60.668 4.081 102.059a7.508 7.508 0 0 0 4.144 6.415l1.561.78 2.517 1.259a5.122 5.122 0 0 0 5.912-.959.12.12 0 0 1 .085-.036h7.944a1.09 1.09 0 0 1 1.091 1.091v24.757a7.506 7.506 0 0 0 7.948 7.493l133.355-7.845a7.15 7.15 0 0 0 6.73-7.137c0-.571.226-1.118.63-1.521l.05-.05-1.768-1.768 1.768 1.768a7.323 7.323 0 0 0 .915-9.238l-1.174-1.761a2.502 2.502 0 0 1-.421-1.39v-7.26a6.71 6.71 0 0 0-1.964-4.742l-.872-.871a.476.476 0 0 1 0-.672 5.475 5.475 0 0 0 0-7.743h0l-.149-.149a.686.686 0 0 1-.064-.897l3.309-4.413a7.504 7.504 0 0 0 1.356-5.976l-.915-4.573a2.508 2.508 0 0 1 1.337-2.734l4.622-2.311a5.026 5.026 0 0 0 1.315-.948l-1.768-1.768 1.768 1.768a5.059 5.059 0 0 0 0-7.155l-.294-.294a.475.475 0 0 1 0-.671l5.013-5.013a6.931 6.931 0 0 0 2.03-4.901c0-.646.323-1.249.86-1.608l2.108-1.405a7.507 7.507 0 0 0 3.342-6.246v-13.097c0-.362.293-.655.655-.655a5.655 5.655 0 0 0 5.655-5.655v-.956c0-.539.27-1.042.718-1.34l2.25-1.501a7.507 7.507 0 0 0 3.343-6.246v-2.449c0-.389.09-.773.264-1.121l2.899-5.797a.322.322 0 0 1 .288-.178c3.956 0 6.529-4.164 4.76-7.702l-1.308-2.615a2.131 2.131 0 0 1-.115-1.626l1.497-4.492c.02-.06.038-.122.054-.184l1.63-6.522a4.863 4.863 0 0 0 4.755-4.86v-1.385c0-.51-.063-1.019-.187-1.514l-1.092-4.368a2.507 2.507 0 0 1 1.142-2.758l5.409-3.245a4.256 4.256 0 0 0 1.038-6.423v-.688h1.023c3.256 0 4.886-3.937 2.584-6.24l-1.768 1.769 1.768-1.768a3.648 3.648 0 0 0-.95-.685l-1.118 2.236 1.118-2.236-2.64-1.32a7.507 7.507 0 0 0-4.419-.717l-24.836 3.548a.184.184 0 0 1-.156-.313l1.024-1.024a7.53 7.53 0 0 0 .801-.945l9.343-13.082Z"/>
  <circle cx="88.772" cy="100.112" r="8.947" fill="#F8F4EA"/>
  <circle cx="88.772" cy="100.112" r="8.947" fill="#F8F4EA" opacity=".3"/>
</svg>
