<svg xmlns="http://www.w3.org/2000/svg" width="343" height="344" fill="none" viewBox="0 0 343 344">
  <mask id="a" width="286" height="292" x="27.848" y="26.176" fill="#000" maskUnits="userSpaceOnUse">
    <path fill="#fff" d="M27.848 26.176h286v292h-286z"/>
    <path fill-rule="evenodd" d="M158.436 42.69c1.684-2.527-.404-5.86-3.413-5.444L42.937 52.706c-3.178.44-5.19 3.639-4.209 6.693L75.93 175.143l8.447 19.009c.158.355.355.69.588 1.001l5.13 6.842a5.16 5.16 0 0 1 1.033 3.096v4.85c0 1.263.809 2.385 2.007 2.785 2.07.69 2.691 3.318 1.148 4.861l-1.827 1.827a4.537 4.537 0 0 0-1.328 3.206v6.841a5.162 5.162 0 0 1-1.511 3.65l-1.32 1.319a5.162 5.162 0 0 0-1.511 3.649v6.909a5.16 5.16 0 0 0 1.13 3.224l6.24 7.8a5.16 5.16 0 0 1 1.105 3.737l-1.718 17.187a5.159 5.159 0 0 0 1.485 4.162l3.923 3.924a5.155 5.155 0 0 1 1.247 2.017l1.568 4.703c.145.435.347.849.601 1.23l3.464 5.196c.328.492.569 1.037.712 1.611l.907 3.628a5.162 5.162 0 0 0 5.357 3.898l123.792-8.394 9.618-1.603a2.929 2.929 0 0 1 3.41 2.888c0 .578.171 1.143.491 1.624l2.452 3.678a4.712 4.712 0 0 0 8.569-1.839l1.08-6.483a3.579 3.579 0 0 0-1.929-3.79 3.577 3.577 0 0 1-1.978-3.201v-4.335c0-1.369.543-2.682 1.511-3.65l.878-.878a5.16 5.16 0 0 1 4.662-1.411l7.646 1.529c.333.067.672.1 1.012.1h6.543c2.553 0 4.076-2.845 2.66-4.97a3.198 3.198 0 0 1-.199-3.203l2.541-5.084a1.341 1.341 0 0 0-1.2-1.942 1.342 1.342 0 0 1-1.2-1.942l.688-1.376a2.296 2.296 0 0 0 0-2.05l-1.114-2.228a5.154 5.154 0 0 1-.545-2.308v-5.296c0-1.199.972-2.171 2.171-2.171h.927c.687 0 1.244.557 1.244 1.244 0 1.313 1.77 1.73 2.357.556l.961-1.921a1.751 1.751 0 0 0-1.223-2.5l-6.897-1.38a2.129 2.129 0 1 1 .836-4.175l4.789.958c1.432.286 2.568-1.2 1.914-2.507a1.759 1.759 0 0 1 .329-2.027l1.383-1.382c1.055-1.056-.032-2.814-1.448-2.342a1.416 1.416 0 0 1-1.448-.342l-.559-.559c-1.393-1.393-.734-3.773 1.178-4.251l.111-.028c1.862-.465 2.504-2.785 1.147-4.142a2.469 2.469 0 0 1-.462-2.85l.96-1.922a.927.927 0 0 0-.415-1.244c-.875-.438-.563-1.757.415-1.757h3.651a1.79 1.79 0 0 0 1.601-.989l.263-.526a2.742 2.742 0 0 0-1.585-3.827l-.799-.266a2.484 2.484 0 0 1 1.388-4.765l3.568.892a2.563 2.563 0 0 0 3.184-2.486c0-.679.27-1.331.75-1.811l.135-.135c1.588-1.589.95-4.293-1.181-5.004l-1.601-.534a3.931 3.931 0 0 1-.533-.22l-3.064-1.532a1.582 1.582 0 0 0-1.826.296 1.583 1.583 0 0 1-2.436-.241l-2.408-3.613a5.14 5.14 0 0 1-.863-2.852v-5.408a5.164 5.164 0 0 0-1.033-3.097l-5.202-6.937a5.064 5.064 0 0 1-.487-.788l-.537-1.074a5.161 5.161 0 0 0-4.616-2.853h-.134a5.16 5.16 0 0 1-4.616-2.853l-.492-.983a5.234 5.234 0 0 1-.391-1.056l-1.817-7.269a5.148 5.148 0 0 0-.712-1.611l-3.007-4.511a4.994 4.994 0 0 1-.84-2.772 5 5 0 0 0-2.426-4.286l-7.218-4.331a5.1 5.1 0 0 0-2.625-.727h-2.416a2.684 2.684 0 0 1-2.684-2.684 2.684 2.684 0 0 0-1.484-2.4l-1.066-.533a3.245 3.245 0 0 1-1.793-2.902 3.243 3.243 0 0 0-2.218-3.077l-1.679-.56a3.826 3.826 0 0 1-2.617-3.63 3.83 3.83 0 0 0-1.12-2.706l-3.882-3.881a5.158 5.158 0 0 0-3.649-1.512h-1.454a5.158 5.158 0 0 1-4.425-2.506l-4.116-6.86a5.164 5.164 0 0 0-2.509-2.137l-7.525-3.01a4.865 4.865 0 0 1-2.544-2.34l-.447-.896a3.245 3.245 0 0 0-2.901-1.793 3.242 3.242 0 0 1-3.077-2.218l-.873-2.616a5.156 5.156 0 0 0-2.033-2.663l-4.615-3.077a5.13 5.13 0 0 1-.786-.644l-.949-.949a5.175 5.175 0 0 1-1.247-2.017l-1.226-3.679a5.156 5.156 0 0 0-2.033-2.662l-3.443-2.295a3.587 3.587 0 0 1-1.597-2.985 3.587 3.587 0 0 0-4.457-3.48l-2.013.503a5.161 5.161 0 0 1-4.115-.713l-4.188-2.792a5.133 5.133 0 0 1-.787-.645l-.948-.949a5.167 5.167 0 0 0-2.018-1.246l-5.052-1.685a4.534 4.534 0 0 1-2.621-6.328l2.315-4.63 2.172-4.343Z" clip-rule="evenodd"/>
  </mask>
  <path fill="#98252C" fill-rule="evenodd" d="M158.436 42.69c1.684-2.527-.404-5.86-3.413-5.444L42.937 52.706c-3.178.44-5.19 3.639-4.209 6.693L75.93 175.143l8.447 19.009c.158.355.355.69.588 1.001l5.13 6.842a5.16 5.16 0 0 1 1.033 3.096v4.85c0 1.263.809 2.385 2.007 2.785 2.07.69 2.691 3.318 1.148 4.861l-1.827 1.827a4.537 4.537 0 0 0-1.328 3.206v6.841a5.162 5.162 0 0 1-1.511 3.65l-1.32 1.319a5.162 5.162 0 0 0-1.511 3.649v6.909a5.16 5.16 0 0 0 1.13 3.224l6.24 7.8a5.16 5.16 0 0 1 1.105 3.737l-1.718 17.187a5.159 5.159 0 0 0 1.485 4.162l3.923 3.924a5.155 5.155 0 0 1 1.247 2.017l1.568 4.703c.145.435.347.849.601 1.23l3.464 5.196c.328.492.569 1.037.712 1.611l.907 3.628a5.162 5.162 0 0 0 5.357 3.898l123.792-8.394 9.618-1.603a2.929 2.929 0 0 1 3.41 2.888c0 .578.171 1.143.491 1.624l2.452 3.678a4.712 4.712 0 0 0 8.569-1.839l1.08-6.483a3.579 3.579 0 0 0-1.929-3.79 3.577 3.577 0 0 1-1.978-3.201v-4.335c0-1.369.543-2.682 1.511-3.65l.878-.878a5.16 5.16 0 0 1 4.662-1.411l7.646 1.529c.333.067.672.1 1.012.1h6.543c2.553 0 4.076-2.845 2.66-4.97a3.198 3.198 0 0 1-.199-3.203l2.541-5.084a1.341 1.341 0 0 0-1.2-1.942 1.342 1.342 0 0 1-1.2-1.942l.688-1.376a2.296 2.296 0 0 0 0-2.05l-1.114-2.228a5.154 5.154 0 0 1-.545-2.308v-5.296c0-1.199.972-2.171 2.171-2.171h.927c.687 0 1.244.557 1.244 1.244 0 1.313 1.77 1.73 2.357.556l.961-1.921a1.751 1.751 0 0 0-1.223-2.5l-6.897-1.38a2.129 2.129 0 1 1 .836-4.175l4.789.958c1.432.286 2.568-1.2 1.914-2.507a1.759 1.759 0 0 1 .329-2.027l1.383-1.382c1.055-1.056-.032-2.814-1.448-2.342a1.416 1.416 0 0 1-1.448-.342l-.559-.559c-1.393-1.393-.734-3.773 1.178-4.251l.111-.028c1.862-.465 2.504-2.785 1.147-4.142a2.469 2.469 0 0 1-.462-2.85l.96-1.922a.927.927 0 0 0-.415-1.244c-.875-.438-.563-1.757.415-1.757h3.651a1.79 1.79 0 0 0 1.601-.989l.263-.526a2.742 2.742 0 0 0-1.585-3.827l-.799-.266a2.484 2.484 0 0 1 1.388-4.765l3.568.892a2.563 2.563 0 0 0 3.184-2.486c0-.679.27-1.331.75-1.811l.135-.135c1.588-1.589.95-4.293-1.181-5.004l-1.601-.534a3.931 3.931 0 0 1-.533-.22l-3.064-1.532a1.582 1.582 0 0 0-1.826.296 1.583 1.583 0 0 1-2.436-.241l-2.408-3.613a5.14 5.14 0 0 1-.863-2.852v-5.408a5.164 5.164 0 0 0-1.033-3.097l-5.202-6.937a5.064 5.064 0 0 1-.487-.788l-.537-1.074a5.161 5.161 0 0 0-4.616-2.853h-.134a5.16 5.16 0 0 1-4.616-2.853l-.492-.983a5.234 5.234 0 0 1-.391-1.056l-1.817-7.269a5.148 5.148 0 0 0-.712-1.611l-3.007-4.511a4.994 4.994 0 0 1-.84-2.772 5 5 0 0 0-2.426-4.286l-7.218-4.331a5.1 5.1 0 0 0-2.625-.727h-2.416a2.684 2.684 0 0 1-2.684-2.684 2.684 2.684 0 0 0-1.484-2.4l-1.066-.533a3.245 3.245 0 0 1-1.793-2.902 3.243 3.243 0 0 0-2.218-3.077l-1.679-.56a3.826 3.826 0 0 1-2.617-3.63 3.83 3.83 0 0 0-1.12-2.706l-3.882-3.881a5.158 5.158 0 0 0-3.649-1.512h-1.454a5.158 5.158 0 0 1-4.425-2.506l-4.116-6.86a5.164 5.164 0 0 0-2.509-2.137l-7.525-3.01a4.865 4.865 0 0 1-2.544-2.34l-.447-.896a3.245 3.245 0 0 0-2.901-1.793 3.242 3.242 0 0 1-3.077-2.218l-.873-2.616a5.156 5.156 0 0 0-2.033-2.663l-4.615-3.077a5.13 5.13 0 0 1-.786-.644l-.949-.949a5.175 5.175 0 0 1-1.247-2.017l-1.226-3.679a5.156 5.156 0 0 0-2.033-2.662l-3.443-2.295a3.587 3.587 0 0 1-1.597-2.985 3.587 3.587 0 0 0-4.457-3.48l-2.013.503a5.161 5.161 0 0 1-4.115-.713l-4.188-2.792a5.133 5.133 0 0 1-.787-.645l-.948-.949a5.167 5.167 0 0 0-2.018-1.246l-5.052-1.685a4.534 4.534 0 0 1-2.621-6.328l2.315-4.63 2.172-4.343Z" clip-rule="evenodd"/>
  <path fill="#F8F4EA" d="m75.93 175.143-9.828 3.159c.113.351.245.696.395 1.033l9.433-4.192Zm160.669 123.768.699 10.299c.334-.023.668-.062.999-.117l-1.698-10.182ZM156.264 47.033l9.233 4.616-9.233-4.616Zm-2.315 4.63 9.233 4.617-9.233-4.616Zm2.621 6.328 3.265-9.792-3.265 9.792Zm7.07 2.931-7.3 7.3 7.3-7.3Zm-2.018-1.246 3.265-9.793-3.265 9.792Zm3.753 2.84 5.726-8.589-5.726 8.589Zm-.787-.645-7.299 7.298 7.299-7.298Zm9.09 4.15-2.504-10.014 2.504 10.014Zm-4.115-.713-5.726 8.589 5.726-8.589Zm6.128.21 2.503 10.014-2.503-10.014Zm6.054 6.465-5.726 8.588 5.726-8.588Zm5.476 4.957 9.793-3.264-9.793 3.264Zm-2.033-2.662 5.726-8.588-5.726 8.588Zm4.506 8.358-7.299 7.299 7.299-7.299Zm-1.247-2.017-9.792 3.264 9.792-3.264Zm2.982 3.61 5.726-8.588-5.726 8.588Zm-.786-.644-7.3 7.298 7.3-7.298Zm7.434 6.384 9.793-3.264-9.793 3.264Zm-2.033-2.663 5.726-8.588-5.726 8.588Zm2.906 5.279 9.792-3.264-9.792 3.264Zm5.978 4.01 9.232-4.615-9.232 4.616Zm2.991 3.237 3.834-9.584-3.834 9.584Zm-2.544-2.34-9.232 4.615 9.232-4.615Zm12.578 7.487 8.851-5.31-8.851 5.31Zm-2.509-2.137-3.834 9.584 3.834-9.584Zm6.625 8.997 8.851-5.31-8.851 5.31Zm9.528 4.018-7.299 7.299 7.299-7.299Zm3.882 3.881 7.299-7.298-7.299 7.298Zm3.737 6.336 3.264-9.792-3.264 9.792Zm1.679.56 3.264-9.793-3.264 9.793Zm4.011 5.979-4.616 9.232 4.616-9.232Zm1.066.533 4.616-9.233-4.616 9.233Zm9.209 5.811 5.311-8.851-5.311 8.851Zm7.218 4.331 5.311-8.851-5.311 8.851Zm3.266 7.058-8.589 5.725 8.589-5.725Zm3.719 6.122-10.014 2.504 10.014-2.504Zm-.712-1.611-8.589 5.726 8.589-5.726Zm2.92 9.936 9.233-4.616-9.233 4.616Zm-.391-1.056 10.015-2.503-10.015 2.503Zm.883 2.039 9.232-4.616-9.232 4.616Zm9.366 5.706 9.233-4.616-9.233 4.616Zm1.024 1.862 8.258-6.193-8.258 6.193Zm-.487-.788-9.233 4.616 9.233-4.616Zm5.689 7.725-8.258 6.193 8.258-6.193Zm1.896 11.357-8.589 5.726 8.589-5.726Zm2.408 3.613 8.589-5.725-8.589 5.725Zm4.262-.055 4.617-9.233-4.617 9.233Zm3.597 1.752-3.265 9.793 3.265-9.793Zm-.533-.22-4.616 9.232 4.616-9.232Zm3.315 5.758 7.299 7.299-7.299-7.299Zm-1.181-5.004 3.264-9.792-3.264 9.792Zm1.046 5.139 7.299 7.298-7.299-7.298Zm-3.934 4.297 2.504-10.014-2.504 10.014Zm-3.568-.892 2.503-10.014-2.503 10.014Zm-1.388 4.765-3.264 9.792 3.264-9.792Zm2.384 4.093 9.233 4.616-9.233-4.616Zm-1.585-3.827-3.265 9.793 3.265-9.793Zm1.322 4.353-9.233-4.616 9.233 4.616Zm-6.212 5.912 9.232 4.616-9.232-4.616Zm-.685 6.992 2.503 10.014-2.503-10.014Zm-1.289 4.279 7.299-7.299-7.299 7.299Zm1.178-4.251 2.503 10.014-2.503-10.014Zm-.619 4.81-7.299 7.299 7.299-7.299Zm2.896 2.684-7.3-7.299 7.3 7.299Zm-1.383 1.382 7.3 7.299-7.3-7.299Zm-2.243 4.534-2.025 10.122 2.025-10.122Zm-4.789-.958-2.025 10.122 2.025-10.122Zm-.836 4.175 2.025-10.121-2.025 10.121Zm8.12 3.88 9.232 4.616-9.232-4.616Zm-1.223-2.5-2.025 10.122 2.025-10.122Zm.262 4.421 9.233 4.616-9.233-4.616Zm-6.154 7.975 9.232-4.616-9.232 4.616Zm1.114 4.278-9.233-4.616 9.233 4.616Zm0-2.05 9.232-4.616-9.232 4.616Zm-.688 3.426-9.233-4.616 9.233 4.616Zm2.4 3.884-9.232-4.616 9.232 4.616Zm-2.541 5.084-9.233-4.616 9.233 4.616Zm-10.016 8.073-2.025 10.122 2.025-10.122Zm-12.308-.118-7.299-7.298 7.299 7.298Zm4.662-1.411-2.025 10.122 2.025-10.122Zm-3.144 17.265-10.181-1.697 10.181 1.697Zm-1.08 6.483 10.182 1.697-10.182-1.697Zm-8.569 1.839 8.589-5.725-8.589 5.725Zm-2.452-3.678-8.588 5.726 8.588-5.726Zm-3.901-4.512-1.697-10.182 1.697 10.182Zm-138.767 6.099 10.015-2.503-10.015 2.503Zm5.357 3.898.698 10.298-.698-10.298Zm-6.976-9.137 8.589-5.726-8.589 5.726Zm.712 1.611-10.014 2.503 10.014-2.503Zm-4.777-8.037 9.792-3.264-9.792 3.264Zm.601 1.23 8.589-5.725-8.589 5.725Zm-3.416-7.95 7.3-7.299-7.3 7.299Zm1.247 2.017-9.792 3.264 9.792-3.264Zm-5.17-5.941-7.299 7.299 7.3-7.299Zm-7.112-32.886-8.06 6.448 8.06-6.448Zm.381-13.782 7.3 7.299-7.3-7.299Zm1.32-1.319-7.3-7.299 7.3 7.299Zm2.839-13.697 7.299 7.299-7.3-7.299Zm1.827-1.827-7.3-7.299 7.3 7.299Zm-4.187-15.592-8.258 6.193 8.258-6.193Zm-5.719-7.843 9.433-4.192-9.433 4.192Zm.588 1.001-8.258 6.193 8.258-6.193ZM259.823 282.2l7.299 7.299-7.299-7.299ZM42.937 52.707l-1.41-10.226 1.41 10.226Zm51.219 203.305-8.06 6.448 8.06-6.448ZM290.465 219.4l-9.233-4.616 9.233 4.616ZM153.612 27.02 41.526 42.481l2.821 20.451 112.086-15.461-2.821-20.45ZM28.902 62.557l37.2 115.745 19.655-6.317L48.556 56.24 28.9 62.557Zm37.595 116.778 8.448 19.009 18.865-8.384-8.448-19.009-18.865 8.384Zm10.21 22.011 5.13 6.842 16.517-12.386-5.131-6.842-16.516 12.386Zm4.099 3.745v4.85h20.644v-4.85H80.806Zm6.178 5.197-1.828 1.828 14.599 14.597 1.827-1.827-14.598-14.598Zm-6.178 12.332v6.841h20.644v-6.841H80.806Zm1.511 3.192-1.32 1.319 14.6 14.598 1.319-1.32-14.599-14.597Zm-5.854 12.267v6.909h20.645v-6.909H76.463Zm3.393 16.581 6.24 7.8 16.12-12.896-6.239-7.8-16.121 12.896Zm5.134 4.062-1.718 17.187 20.542 2.054 1.718-17.186-20.542-2.055Zm2.74 29.675 3.922 3.923 14.599-14.597-3.923-3.923-14.599 14.597Zm2.675 1.906 1.568 4.703 19.585-6.528-1.567-4.703-19.585 6.528Zm3.374 8.395 3.463 5.195 17.178-11.451-3.464-5.195-17.177 11.451Zm2.75 3.584.907 3.628 20.029-5.006-.908-3.629-20.028 5.007Zm16.976 15.321 123.793-8.393-1.397-20.597-123.793 8.393 1.397 20.597Zm124.792-8.51 9.618-1.603-3.395-20.364-9.618 1.604 3.395 20.363Zm3.233-1.547 2.451 3.678 17.178-11.451-2.452-3.678-17.177 11.451Zm29.791-2.19 1.08-6.483-20.363-3.394-1.081 6.484 20.364 3.393Zm-2.687-15.171v-4.335h-20.645v4.335h20.645Zm-1.512-.686.878-.878-14.598-14.597-.878.877 14.598 14.598Zm-3.784.534 7.646 1.529 4.049-20.244-7.646-1.529-4.049 20.244Zm10.683 1.83h6.543v-20.645h-6.543v20.645Zm18.236-13.88 2.542-5.084-18.465-9.232-2.542 5.084 18.465 9.232Zm.142-8.968.687-1.376-18.465-9.232-.688 1.376 18.466 9.232Zm.687-12.658-1.114-2.228-18.465 9.232 1.114 2.228 18.465-9.232Zm-.569.08v-.953h-20.644v.953h20.644Zm0-.953v-4.343h-20.644v4.343h20.644Zm-8.151 3.808h.927v-20.644h-.927v20.644Zm13.761-3.906.96-1.921-18.465-9.232-.961 1.921 18.466 9.232Zm-7.471-19.159-6.896-1.379-4.049 20.243 6.896 1.38 4.049-20.244Zm-10.11 14.689 4.789.958 4.049-20.244-4.789-.958-4.049 20.244Zm16.357-6.399 1.382-1.382-14.599-14.598-1.382 1.383 14.599 14.597Zm-1.513-18.664-.56-.559-14.598 14.597.559.56 14.599-14.598Zm-4.178 12.503.111-.028-5.007-20.028-.111.028 5.007 20.028Zm7.525-12.418.961-1.922-18.466-9.232-.96 1.921 18.465 9.233Zm-8.272.784h3.651v-20.645h-3.651v20.645Zm14.484-6.696.264-.526-18.466-9.232-.263.526 18.465 9.232Zm-7.29-18.761-.799-.267-6.528 19.585.798.267 6.529-19.585Zm-5.179 14.775 3.569.892 5.007-20.028-3.569-.892-5.007 20.028Zm17.305-6.121.135-.134-14.598-14.598-.135.135 14.598 14.597Zm-5.081-22.229-1.601-.534-6.529 19.585 1.601.534 6.529-19.585Zm-.781-.195-3.064-1.532-9.233 18.465 3.064 1.532 9.233-18.465Zm-3.354 2.031-2.408-3.613-17.178 11.451 2.409 3.613 17.177-11.451Zm-1.538-.74v-5.408h-20.645v5.408h20.645Zm-3.096-14.698-5.203-6.937-16.516 12.386 5.202 6.937 16.517-12.386Zm-4.715-6.148-.537-1.074-18.465 9.232.536 1.074 18.466-9.232Zm-14.386-9.633h-.134v20.645h.134v-20.645Zm4.482 2.853-.491-.983-18.465 9.232.491.983 18.465-9.232Zm-.1.074-1.817-7.269-20.029 5.007 1.817 7.268 20.029-5.006Zm-3.955-12.102-3.008-4.512-17.177 11.451 3.007 4.512 17.178-11.451Zm-9.551-14.695-7.218-4.331-10.622 17.702 7.218 4.331 10.622-17.702Zm-15.154-6.529h-2.416v20.644h2.416v-20.644Zm-1.968-3.995-1.065-.533-9.233 18.465 1.065.533 9.233-18.465Zm-6.429-7.072-1.679-.559-6.529 19.585 1.68.559 6.528-19.585Zm-1.381-4.401-3.881-3.882-14.599 14.598 3.882 3.881 14.598-14.597Zm-14.83-8.417h-1.454v20.644h1.454v-20.644Zm2.972 2.506-4.116-6.86-17.702 10.621 4.115 6.86 17.703-10.621Zm-11.642-13.27-7.525-3.01-7.667 19.167 7.524 3.01 7.668-19.168Zm-4.67-.383-.448-.896-18.465 9.232.448.895 18.465-9.231Zm-5.866-3.555-.872-2.616-19.585 6.528.872 2.616 19.585-6.528Zm-6.972-10.603-4.615-3.077-11.452 17.177 4.615 3.077 11.452-17.177Zm-3.828-2.432-.949-.949-14.598 14.598.948.948 14.599-14.597Zm.298 1.069-1.226-3.679-19.585 6.528 1.226 3.679 19.585-6.528Zm-7.326-11.665-3.443-2.296-11.452 17.177 3.443 2.296 11.452-17.177Zm-17.727-10.186-2.013.503 5.008 20.028 2.012-.503-5.007-20.028Zm2.102 1.216-4.188-2.793-11.452 17.177 4.188 2.793 11.452-17.177Zm-3.402-2.148-.948-.948L156.34 68.22l.949.948 14.598-14.597Zm-7-4.689-5.052-1.684-6.529 19.585 5.052 1.684 6.529-19.585Zm-1.705 6.397 2.315-4.631-18.465-9.232-2.316 4.63 18.466 9.233Zm2.315-4.631 2.171-4.343-18.465-9.232-2.171 4.343 18.465 9.232Zm-4.904-3.136a5.79 5.79 0 0 1 2.589 7.767l-18.466-9.232c-3.668 7.338-.694 16.26 6.644 19.93l9.233-18.465Zm-.758-.314c.259.087.513.192.758.314l-9.233 18.465c.629.314 1.279.584 1.946.806l6.529-19.585Zm11.104 5.425c-1.7-1.7-3.772-2.98-6.052-3.741l-6.529 19.585a5.167 5.167 0 0 1-2.018-1.247l14.599-14.597Zm.162.303c.282.189.546.405.786.645L157.289 69.17c.721.722 1.511 1.37 2.36 1.935l11.452-17.177Zm.073 2.08a5.161 5.161 0 0 1 4.115.713l-11.452 17.177a15.484 15.484 0 0 0 12.345 2.138l-5.008-20.028Zm19.296 12.991c0-9.05-8.504-15.689-17.283-13.494l5.007 20.028c-4.251 1.063-8.368-2.152-8.368-6.534h20.644Zm-2.999-5.604a6.734 6.734 0 0 1 2.999 5.604h-20.644a13.91 13.91 0 0 0 6.193 11.573l11.452-17.177Zm9.543 10.282a15.484 15.484 0 0 0-6.1-7.986l-11.452 17.177a5.161 5.161 0 0 1-2.033-2.663l19.585-6.528Zm-.021 1.661a5.152 5.152 0 0 1 1.247 2.018l-19.585 6.528c.76 2.28 2.04 4.352 3.74 6.052l14.598-14.598Zm.162.304c.283.188.546.404.787.645l-14.599 14.597a15.511 15.511 0 0 0 2.36 1.935l11.452-17.177Zm10.715 11.064a15.484 15.484 0 0 0-6.1-7.987l-11.452 17.177a5.16 5.16 0 0 1-2.033-2.662l19.585-6.528Zm-5.843-2.225a7.078 7.078 0 0 1 6.715 4.84l-19.585 6.529a13.566 13.566 0 0 0 12.87 9.276V84.48Zm12.133 7.5a13.565 13.565 0 0 0-12.133-7.5v20.645a7.079 7.079 0 0 1-6.332-3.913l18.465-9.232Zm-2.407-1.732a5.46 5.46 0 0 1 2.855 2.627l-18.465 9.232a15.18 15.18 0 0 0 7.943 7.309l7.667-19.168Zm15.051 9.42a15.478 15.478 0 0 0-7.526-6.41l-7.668 19.168a5.16 5.16 0 0 1-2.508-2.136l17.702-10.621Zm-.31 4.355c1.813 0 3.493.951 4.426 2.506l-17.703 10.621a15.483 15.483 0 0 0 13.277 7.517v-20.644Zm12.403 4.535a15.483 15.483 0 0 0-10.949-4.535v20.644a5.161 5.161 0 0 1-3.65-1.511l14.599-14.598Zm8.025 13.886c0-3.752-1.491-7.351-4.144-10.004l-14.598 14.597a6.492 6.492 0 0 1-1.903-4.593h20.645Zm-4.442-6.162a6.495 6.495 0 0 1 4.442 6.162h-20.645a14.15 14.15 0 0 0 9.674 13.423l6.529-19.585Zm10.955 13.429a13.566 13.566 0 0 0-9.276-12.87l-6.528 19.585a7.077 7.077 0 0 1-4.84-6.715h20.644Zm-3.912-6.331a7.078 7.078 0 0 1 3.912 6.331h-20.644c0 5.139 2.903 9.836 7.499 12.134l9.233-18.465Zm8.255 12.166c0-4.926-2.783-9.43-7.19-11.633l-9.233 18.465a7.64 7.64 0 0 1-4.222-6.832h20.645Zm-7.638-7.638a7.638 7.638 0 0 1 7.638 7.638h-20.645c0 7.183 5.823 13.006 13.007 13.006v-20.644Zm10.352 2.198a15.426 15.426 0 0 0-7.936-2.198v20.644a5.219 5.219 0 0 1-2.686-.744l10.622-17.702Zm14.656 17.468a15.322 15.322 0 0 0-7.438-13.137l-10.622 17.702a5.323 5.323 0 0 1-2.585-4.565h20.645Zm-.895-2.954c.583.875.895 1.903.895 2.954h-20.645c0 3.024.895 5.981 2.573 8.497l17.177-11.451Zm5.146 9.345a15.495 15.495 0 0 0-2.138-4.833l-17.178 11.451a5.174 5.174 0 0 1-.713-1.611l20.029-5.007Zm1.426 6.212c.168.337.299.691.391 1.057l-20.029 5.006a15.43 15.43 0 0 0 1.173 3.169l18.465-9.232Zm-4.125-1.87a5.161 5.161 0 0 1 4.616 2.853l-18.465 9.232a15.484 15.484 0 0 0 13.849 8.56v-20.645Zm13.983 8.559a15.485 15.485 0 0 0-13.849-8.559v20.645a5.16 5.16 0 0 1-4.616-2.854l18.465-9.232Zm.049.285c.186.248.349.512.488.789l-18.466 9.232c.416.831.905 1.622 1.462 2.365l16.516-12.386Zm8.299 16.227c0-3.35-1.087-6.61-3.096-9.29l-16.517 12.386a5.16 5.16 0 0 1-1.032-3.096h20.645Zm-.87 2.535c.567.851.87 1.851.87 2.873h-20.645c0 3.053.904 6.038 2.597 8.578l17.178-11.451Zm-11.044 2.281c3.9-3.901 10.393-3.258 13.452 1.332l-17.177 11.451c4.167 6.251 13.011 7.126 18.323 1.814l-14.598-14.597Zm13.742-2.231a11.905 11.905 0 0 0-13.742 2.231l14.598 14.597a8.74 8.74 0 0 1-10.089 1.637l9.233-18.465Zm2.244 1.193c.281.094.555.207.82.339l-9.233 18.465c.609.305 1.238.566 1.884.781l6.529-19.585Zm6.817 22.629c7.014-7.015 4.195-18.958-5.216-22.095l-6.529 19.585c-5.148-1.717-6.69-8.25-2.853-12.088l14.598 14.598Zm2.138-5.353a7.756 7.756 0 0 1-2.273 5.487l-14.598-14.597a12.883 12.883 0 0 0-3.773 9.11h20.644Zm-16.009 12.5c8.132 2.033 16.009-4.117 16.009-12.5h-20.644c0-5.048 4.744-8.753 9.642-7.528l-5.007 20.028Zm5.344-4.992a7.839 7.839 0 0 1-8.913 4.1l5.007-20.028a12.805 12.805 0 0 0-14.559 6.696l18.465 9.232Zm-4.533-10.942c4.526 1.509 6.666 6.676 4.533 10.942l-18.465-9.232c-3.485 6.97.011 15.411 7.404 17.875l6.528-19.585Zm8.353 18.502c3.555-7.111-.012-15.721-7.554-18.235l-6.529 19.585c-4.376-1.459-6.446-6.456-4.383-10.582l18.466 9.232Zm-11.097 7.222a12.11 12.11 0 0 0 10.833-6.696l-18.465-9.232a8.532 8.532 0 0 1 7.632-4.717v20.645Zm3.15-9.849a7.853 7.853 0 0 1 1.471 9.065l-18.465-9.233a12.793 12.793 0 0 0 2.396 14.766l14.598-14.598Zm-5.943 21.455c9.646-2.411 12.974-14.424 5.943-21.455l-14.598 14.598c-4.316-4.316-2.273-11.69 3.648-13.171l5.007 20.028Zm3.507-13.034c4.28 4.281 2.255 11.594-3.618 13.062l-5.007-20.028c-9.695 2.424-13.039 14.497-5.973 21.563l14.598-14.597Zm-8.556-1.593a8.908 8.908 0 0 1 9.116 2.152l-14.599 14.598a11.736 11.736 0 0 0 12.011 2.835l-6.528-19.585Zm12.011 19.434c8.757-8.758-.262-23.35-12.011-19.434l6.528 19.585c-8.917 2.973-15.762-8.102-9.116-14.749l14.599 14.598Zm.222-8.506a8.566 8.566 0 0 1-1.604 9.888l-14.599-14.597a12.077 12.077 0 0 0-2.262 13.941l18.465-9.232Zm-13.172 17.245c9.856 1.971 17.667-8.255 13.172-17.245l-18.465 9.232c-3.188-6.376 2.352-13.629 9.342-12.231l-4.049 20.244Zm5.011-8.992c0 5.17-4.73 9.048-9.8 8.034l4.049-20.244c-7.705-1.541-14.894 4.352-14.894 12.21h20.645Zm-6.586-8.034a8.193 8.193 0 0 1 6.586 8.034h-20.645c0 5.935 4.19 11.045 10.01 12.209l4.049-20.243Zm15.327 18.617c3.56-7.12-.625-15.677-8.431-17.238l-4.049 20.244c-5.541-1.109-8.512-7.183-5.985-12.238l18.465 9.232Zm-22.872-3.251c0 12.205 16.454 16.089 21.912 5.172l-18.466-9.232c4.284-8.568 17.199-5.52 17.199 4.06h-20.645Zm9.078 9.078a9.078 9.078 0 0 1-9.078-9.078h20.645c0-6.388-5.179-11.566-11.567-11.566v20.644Zm7.224-8.151a8.15 8.15 0 0 1-8.151 8.151v-20.644c-6.9 0-12.493 5.593-12.493 12.493h20.644Zm-.545 2.988c.359.717.545 1.507.545 2.308h-20.644c0 2.404.559 4.774 1.634 6.924l18.465-9.232Zm1.114 13.51a12.61 12.61 0 0 0 0-11.282l-18.465 9.232a8.032 8.032 0 0 1 0-7.182l18.465 9.232Zm-8.72-11.62c6.676 0 11.018 7.025 8.033 12.996l-18.466-9.232c-3.877 7.755 1.762 16.88 10.433 16.88v-20.644Zm10.433 16.88c3.878-7.756-1.762-16.88-10.433-16.88v20.644c-6.676 0-11.018-7.025-8.032-12.996l18.465 9.232Zm-2.986-2.055a7.125 7.125 0 0 1 .444 7.139l-18.465-9.232a13.519 13.519 0 0 0 .843 13.544l17.178-11.451Zm-11.249 21.019c10.797 0 17.238-12.034 11.249-21.019l-17.178 11.451c-3.156-4.735.238-11.077 5.929-11.077v20.645Zm-9.58-.301c1 .2 2.017.301 3.037.301v-20.645c.34 0 .679.034 1.012.1l-4.049 20.244ZM268 288.621a5.164 5.164 0 0 1-4.662 1.412l4.049-20.244a15.483 15.483 0 0 0-13.985 4.235L268 288.621Zm4.401 10.252a13.899 13.899 0 0 0-7.495-14.719l-9.233 18.465a6.744 6.744 0 0 1-3.635-7.14l20.363 3.394Zm-15.91 19.046a15.034 15.034 0 0 0 14.83-12.563l-20.364-3.393a5.61 5.61 0 0 1 5.534-4.688v20.644Zm-12.51-6.695a15.035 15.035 0 0 0 12.51 6.695v-20.644c1.876 0 3.628.937 4.668 2.498l-17.178 11.451Zm-4.677-11.028c0 2.616.775 5.173 2.226 7.35l17.177-11.451a7.39 7.39 0 0 1 1.242 4.101h-20.645Zm8.611 7.294c-4.508.751-8.611-2.724-8.611-7.294h20.645c0-8.188-7.352-14.416-15.429-13.07l3.395 20.364Zm-150.479-1.58a15.482 15.482 0 0 0 16.069 11.693l-1.397-20.597a5.162 5.162 0 0 1 5.357 3.898l-20.029 5.006Zm-.194-2.017a5.159 5.159 0 0 1-.713-1.611l20.028-5.007a15.49 15.49 0 0 0-2.137-4.833l-17.178 11.451Zm-5.27-8.887a15.493 15.493 0 0 0 1.807 3.692l17.177-11.451c.255.382.457.795.602 1.231l-19.585 6.528Zm-.32-2.686a5.156 5.156 0 0 1-1.246-2.017l19.585-6.528a15.493 15.493 0 0 0-3.74-6.052L91.652 292.32Zm-8.38-16.411a15.484 15.484 0 0 0 4.457 12.488l14.599-14.597a5.162 5.162 0 0 1 1.486 4.163l-20.542-2.054Zm-6.809-30.921c0 3.516 1.197 6.927 3.393 9.672l16.121-12.896a5.16 5.16 0 0 1 1.13 3.224H76.464Zm4.535-17.857a15.485 15.485 0 0 0-4.535 10.948h20.645a5.162 5.162 0 0 1-1.512 3.65l-14.598-14.598Zm-.192 2.33a5.16 5.16 0 0 1 1.511-3.649l14.599 14.597a15.48 15.48 0 0 0 4.534-10.948H80.806Zm4.35-17.345a14.855 14.855 0 0 0-4.35 10.504h20.644c0 1.535-.61 3.007-1.695 4.093l-14.599-14.597Zm4.715 10.402c-5.209-1.736-6.77-8.347-2.887-12.23l14.598 14.598c6.969-6.97 4.168-18.836-5.182-21.953l-6.529 19.585Zm-8.033-14.33a5.16 5.16 0 0 1-1.032-3.097h20.644a15.48 15.48 0 0 0-3.096-9.289l-16.516 12.386Zm-6.893-9.844a15.466 15.466 0 0 0 1.762 3.002l16.516-12.386c.232.31.43.646.587 1l-18.865 8.384Zm193.689 87.506a5.162 5.162 0 0 1-1.512 3.649l-14.598-14.598a15.483 15.483 0 0 0-4.535 10.949h20.645Zm26.033-76.926c8.867 4.433 5.712 17.798-4.202 17.798v-20.645c-11.87 0-15.648 16.002-5.031 21.311l9.233-18.464ZM41.527 42.481c-9.533 1.315-15.57 10.915-12.626 20.076l19.655-6.317c.981 3.054-1.031 6.254-4.209 6.692l-2.82-20.45Zm39.279 167.46a13.257 13.257 0 0 0 9.065 12.577l6.529-19.585a7.387 7.387 0 0 1 5.05 7.008H80.806Zm5.29 52.519a5.162 5.162 0 0 1-1.106-3.738l20.542 2.055a15.478 15.478 0 0 0-3.316-11.213l-16.12 12.896Zm178.81 21.694a6.742 6.742 0 0 1 3.728 6.031h-20.645a13.902 13.902 0 0 0 7.684 12.434l9.233-18.465Zm34.792-60.138c2.778-5.557.526-12.314-5.031-15.092l-9.233 18.464a9.395 9.395 0 0 1-4.202-12.604l18.466 9.232ZM156.433 47.471c-5.806.801-9.837-5.63-6.586-10.507l17.178 11.451c6.62-9.931-1.589-23.026-13.413-21.395l2.821 20.451Z" mask="url(#a)"/>
  <ellipse cx="110.584" cy="59.789" fill="#F8F4EA" rx="9.604" ry="9.606"/>
  <ellipse cx="110.584" cy="59.789" fill="#F8F4EA" opacity=".3" rx="9.604" ry="9.606"/>
  <ellipse cx="137.459" cy="58.754" fill="#F8F4EA" rx="9.604" ry="9.606"/>
  <ellipse cx="137.459" cy="58.754" fill="#F8F4EA" opacity=".3" rx="9.604" ry="9.606"/>
  <ellipse cx="151.928" cy="245.84" fill="#F8F4EA" rx="9.604" ry="9.606"/>
  <ellipse cx="151.928" cy="245.84" fill="#F8F4EA" opacity=".3" rx="9.604" ry="9.606"/>
</svg>
