<svg xmlns="http://www.w3.org/2000/svg" width="269" height="225" fill="none" viewBox="0 0 269 225">
  <path fill="#98252C" fill-rule="evenodd" d="M.168 13.276a5 5 0 0 1 4.699-5.164L139.065.1a4.998 4.998 0 0 1 3.071.831l.918.612a4.793 4.793 0 0 1 1.329 6.646 4.793 4.793 0 0 0-.299 4.803l.718 1.435c.092.184.213.353.359.498l.052.052c.9.9.654 2.416-.484 2.985a1.863 1.863 0 0 0-.717 2.701l2.19 3.286a5 5 0 0 1 .84 2.774v2.288a5 5 0 0 0 2 4l3.519 2.64a5 5 0 0 1 1.744 5.581l-2.823 8.468a1.05 1.05 0 0 1-.996.718 1.05 1.05 0 0 0-1.018 1.304l1.084 4.335a4.54 4.54 0 0 1-1.497 4.588l-9.232 7.693a5.003 5.003 0 0 0-1.607 2.468l-3.563 12.473c-.143.498-.361.97-.648 1.4l-2.541 3.813a5 5 0 0 0-.691 3.986l1.138 4.55a4.753 4.753 0 0 1-.36 3.28l-.703 1.405a2.21 2.21 0 0 1-1.979 1.223 2.213 2.213 0 0 0-2.146 2.75l1.264 5.056c.099.397.149.804.149 1.213v2.323a5 5 0 0 0 5.443 4.981l85.155-7.57a3.61 3.61 0 0 1 3.929 3.595c0 .171-.012.342-.036.511l-1.898 13.283a5.004 5.004 0 0 0 .207 2.288l1.354 4.063a4.996 4.996 0 0 0 1.208 1.954l4.632 4.633a4.996 4.996 0 0 1 1.208 1.954l3.735 11.207a1.807 1.807 0 0 1-1.714 2.379h-4c-.329 0-.657-.033-.98-.097l-8.533-1.707a5.002 5.002 0 0 1-2.555-1.367l-3.767-3.768a5.002 5.002 0 0 0-3.536-1.464h-3.989a5 5 0 0 0-3.841 1.799l-7.221 8.666a4.998 4.998 0 0 0-.902 4.781l.352 1.057a4.998 4.998 0 0 0 3.531 3.269l5.739 1.435 6.257 1.564a5 5 0 0 0 3.986-.69l9.661-6.441a4.377 4.377 0 0 1 2.427-.735h3.338c1.718 0 2.835 1.808 2.067 3.345a2.313 2.313 0 0 1-1.336 1.159l-2.493.831a2.652 2.652 0 0 0-1.533 3.702 2.651 2.651 0 0 0 2.372 1.467h.876c1.08 0 2.126.44 2.889 1.203 1.641 1.641 4.328 1.668 5.969.027l.732-.732c.33-.33.605-.711.814-1.129 1.601-3.202 6.17-3.202 7.771 0l.316.631.061.123c.937 1.874-.426 4.078-2.521 4.078a2.817 2.817 0 0 0-2.52 1.558l-2.524 5.048a2.318 2.318 0 0 1-2.805 1.162c-1.811-.604-3.534 1.119-2.93 2.93l.126.378a1.858 1.858 0 0 1-.932 2.249 1.858 1.858 0 0 0-.249 3.174l11.421 8.158c.51.365 1.085.63 1.693.782l14.246 3.562a5.001 5.001 0 0 1 2.692 1.728l4.719 5.899a4.703 4.703 0 0 1-.347 6.263l-.175.174a4.454 4.454 0 0 1-6.301 0l-2.101-2.1a1.486 1.486 0 0 0-2.101 0c-.58.58-1.52.58-2.1 0l-4.272-4.273a5.002 5.002 0 0 0-2.323-1.315l-5.48-1.37a3.541 3.541 0 0 1-2.307-1.851 3.54 3.54 0 0 0-4.285-1.775l-.529.177a4.182 4.182 0 0 1-4.669-1.459l-3.556-4.741a5 5 0 0 0-2.419-1.744l-10.577-3.525a3.52 3.52 0 0 0-1.119-.182h-1.693c-1.853 0-3.059 1.951-2.23 3.609.194.388.486.719.847.96l3.524 2.35a5 5 0 0 1 2.227 4.16v8.422c0 .982-.291 1.942-.836 2.759l-.905 1.359a3.636 3.636 0 0 1-6.662-2.017v-.18a4.068 4.068 0 0 0-2.25-3.64l-4.299-2.151a5.004 5.004 0 0 0-3.818-.271l-4 1.334a4.91 4.91 0 0 0-.655.271l-1.826.913a5 5 0 0 0-2.615 3.26l-.449 1.797a5 5 0 0 1-5.558 3.737l-9.888-1.413a5.071 5.071 0 0 0-.707-.05h-5.451c-.33 0-.658-.033-.981-.097l-8.41-1.682a2 2 0 1 1 .878-3.902l1.676.419c1.667.417 3.054-1.313 2.286-2.849a2.006 2.006 0 0 0-.376-.523l-3.887-3.886a5 5 0 0 1-1.207-5.117l.807-2.423a1.617 1.617 0 0 0-2.878-1.408l-1.569 2.354a3.935 3.935 0 0 1-4.229 1.635l-4.368-1.092a4.992 4.992 0 0 1-2.323-1.315l-.774-.774a3.032 3.032 0 0 1-.568-.788l-1.267-2.534a.988.988 0 0 0-1.583-.257.99.99 0 0 1-1.637-.387l-.853-2.56a2.657 2.657 0 0 0-3.041-1.765l-4.808.962a2.839 2.839 0 0 1-3.395-2.784 2.84 2.84 0 0 0-2.84-2.839h-2.282c-.776 0-1.542.181-2.236.528l-7.347 3.673c-2.066 1.034-2.514 3.789-.88 5.423l.121.12a3.51 3.51 0 0 1-.376 5.288l-3.833 2.875c-.866.649-1.918 1-3 1H81.118c-.85 0-1.685-.217-2.428-.63l-17.018-9.455a5.014 5.014 0 0 0-1.606-.561L49.34 195.54a5.003 5.003 0 0 0-2.035.081l-7.394 1.849-16.207 4.052a5.007 5.007 0 0 1-1.213.149h-1.946a2.652 2.652 0 0 1-.839-5.168l.977-.326a3.544 3.544 0 0 0 2.424-3.363v-11.535c0-.408.05-.816.149-1.212l1.503-6.012a4.998 4.998 0 0 0-.379-3.448l-2.256-4.513a5 5 0 0 1 0-4.472l.455-.91c.347-.694.528-1.46.528-2.236v-3.941c0-.777.18-1.542.527-2.236l3.515-7.03c.106-.211.196-.43.271-.655l1.732-5.195a5 5 0 0 0 .256-1.581v-10.923c0-.557.222-1.092.616-1.486.82-.82.82-2.15 0-2.971a2.1 2.1 0 0 1-.616-1.485v-3.361a5.002 5.002 0 0 0-1.464-3.536l-3.373-3.373a5 5 0 0 1-1.464-3.535v-2.161a5 5 0 0 0-1.465-3.535l-1.994-1.994a2.536 2.536 0 0 1-.743-1.793 2.54 2.54 0 0 0-.742-1.794l-1.994-1.994a5 5 0 0 1-1.465-3.535v-4.666a5 5 0 0 0-1-3l-5.088-6.785a4.997 4.997 0 0 0-.465-.535l-4.657-4.658a5 5 0 0 1-1.461-3.363L.168 13.275Z" clip-rule="evenodd"/>
  <path fill="#fff" d="M169.358 96.332c-6.926 0-12.542 5.615-12.542 12.542 0 2.478.72 4.774 1.96 6.718.06.095.106.188.168.281l7.782 14.445c.365 1.05 1.401 1.847 2.576 1.847 1.176 0 2.154-.797 2.519-1.847l8.679-15.677a12.514 12.514 0 0 0 1.399-5.767c0-6.927-5.615-12.542-12.541-12.542Zm-.056 7.111a6.27 6.27 0 1 1 0 12.542 6.27 6.27 0 0 1 0-12.542Z"/>
</svg>
