<svg xmlns="http://www.w3.org/2000/svg" width="352" height="294" fill="none" viewBox="0 0 352 294">
  <mask id="a" width="287" height="244" x="31.844" y="24.922" fill="#000" maskUnits="userSpaceOnUse">
    <path fill="#fff" d="M31.844 24.922h287v244h-287z"/>
    <path fill-rule="evenodd" d="M37.017 44.642a5.154 5.154 0 0 1 4.844-5.322l138.933-8.295a5.154 5.154 0 0 1 3.166.857l.956.637a4.963 4.963 0 0 1 1.376 6.88 4.96 4.96 0 0 0-.31 4.97l.743 1.486c.096.19.221.365.372.516l.054.054a1.93 1.93 0 0 1-.502 3.09 1.93 1.93 0 0 0-.742 2.795l2.271 3.407c.564.846.865 1.841.865 2.858v2.387c0 1.622.764 3.15 2.062 4.123l3.664 2.748a5.154 5.154 0 0 1 1.797 5.753l-2.926 8.78a1.087 1.087 0 0 1-1.031.742c-.707 0-1.225.664-1.054 1.35l1.122 4.487a4.698 4.698 0 0 1-1.55 4.749l-9.561 7.968a5.147 5.147 0 0 0-1.656 2.543l-3.691 12.921a5.203 5.203 0 0 1-.667 1.443l-2.638 3.957a5.151 5.151 0 0 0-.712 4.108l1.18 4.72a4.919 4.919 0 0 1-.373 3.395l-.727 1.454a2.29 2.29 0 0 1-2.048 1.266 2.29 2.29 0 0 0-2.222 2.846l1.309 5.236c.102.409.154.829.154 1.25v2.431a5.154 5.154 0 0 0 5.61 5.134l88.165-7.838a3.737 3.737 0 0 1 4.03 4.251l-1.965 13.753c-.113.792-.04 1.6.213 2.359l1.405 4.215a5.144 5.144 0 0 0 1.245 2.014l4.802 4.803a5.155 5.155 0 0 1 1.245 2.015l3.868 11.604a1.87 1.87 0 0 1-1.775 2.462h-4.142a5.11 5.11 0 0 1-1.01-.1l-8.841-1.768a5.155 5.155 0 0 1-2.634-1.409l-3.91-3.911a5.154 5.154 0 0 0-3.644-1.509h-4.148c-1.53 0-2.98.679-3.96 1.854l-7.488 8.987a5.156 5.156 0 0 0-.93 4.929l.372 1.116a5.156 5.156 0 0 0 3.639 3.37l5.953 1.488 6.485 1.621a5.152 5.152 0 0 0 4.109-.711l10.008-6.673a4.528 4.528 0 0 1 2.512-.76h3.455c1.778 0 2.935 1.871 2.14 3.462a2.394 2.394 0 0 1-1.384 1.2l-2.58.86a2.745 2.745 0 0 0 .869 5.35h.906a4.25 4.25 0 0 1 2.991 1.245c1.698 1.699 4.48 1.727 6.178.029l.758-.758c.341-.342.626-.736.842-1.169 1.657-3.314 6.387-3.314 8.044 0l.327.653.063.127c.97 1.94-.44 4.222-2.609 4.222a2.917 2.917 0 0 0-2.609 1.612l-2.612 5.225a2.399 2.399 0 0 1-2.904 1.203c-1.874-.625-3.658 1.158-3.033 3.033l.131.391c.302.908-.109 1.9-.965 2.328-1.296.648-1.437 2.443-.258 3.285l11.825 8.447c.526.376 1.118.65 1.746.806l14.757 3.69a5.154 5.154 0 0 1 2.774 1.78l4.889 6.112a4.867 4.867 0 0 1-.359 6.483l-.181.181a4.613 4.613 0 0 1-6.523 0l-2.174-2.175c-.6-.6-1.574-.6-2.174 0-.6.601-1.574.601-2.174 0l-4.427-4.426a5.143 5.143 0 0 0-2.394-1.356l-5.678-1.42a3.666 3.666 0 0 1-2.388-1.915 3.662 3.662 0 0 0-4.435-1.837l-.548.182a4.328 4.328 0 0 1-4.833-1.509l-3.684-4.913a5.156 5.156 0 0 0-2.494-1.798l-10.954-3.651a3.648 3.648 0 0 0-1.158-.188H254.1c-1.919 0-3.167 2.019-2.309 3.735.201.402.503.745.877.994l3.658 2.438a5.155 5.155 0 0 1 2.294 4.289v8.729c0 1.017-.3 2.01-.864 2.856l-.938 1.406a3.763 3.763 0 0 1-6.895-2.087v-.187a4.213 4.213 0 0 0-2.329-3.768l-4.458-2.229a5.153 5.153 0 0 0-3.935-.28l-4.15 1.383a5.104 5.104 0 0 0-.675.28l-1.901.95a5.155 5.155 0 0 0-2.695 3.36l-.472 1.889a5.155 5.155 0 0 1-5.729 3.852l-10.256-1.465a5.076 5.076 0 0 0-.729-.052h-5.646c-.339 0-.678-.034-1.011-.1l-8.706-1.742a2.07 2.07 0 1 1 .908-4.038l1.735.434c1.725.431 3.161-1.36 2.366-2.95a2.1 2.1 0 0 0-.39-.541l-4.032-4.032a5.155 5.155 0 0 1-1.245-5.274l.841-2.52a1.674 1.674 0 0 0-2.98-1.458l-1.624 2.437a4.073 4.073 0 0 1-4.377 1.692l-4.527-1.132a5.153 5.153 0 0 1-2.395-1.355l-.805-.805a3.132 3.132 0 0 1-.587-.816l-1.312-2.624a1.024 1.024 0 0 0-1.639-.265 1.024 1.024 0 0 1-1.694-.4l-.883-2.65a2.75 2.75 0 0 0-3.148-1.827l-4.976.995a2.939 2.939 0 0 1-3.515-2.881 2.94 2.94 0 0 0-2.939-2.939h-2.367c-.8 0-1.589.186-2.305.544l-7.609 3.805c-2.139 1.07-2.602 3.921-.911 5.612l.125.125a3.632 3.632 0 0 1-.389 5.473l-3.973 2.98a5.157 5.157 0 0 1-3.093 1.031h-18.689a5.148 5.148 0 0 1-2.503-.649l-17.623-9.791a5.162 5.162 0 0 0-1.656-.579l-11.11-1.851a5.15 5.15 0 0 0-2.098.083l-7.657 1.915-16.779 4.195a5.165 5.165 0 0 1-1.25.154H58.11a2.746 2.746 0 0 1-.868-5.35l1.01-.337a3.67 3.67 0 0 0 2.51-3.482v-11.941c0-.422.051-.841.154-1.25l1.558-6.233a5.156 5.156 0 0 0-.39-3.555l-2.344-4.687a5.155 5.155 0 0 1 0-4.61l.478-.956a5.156 5.156 0 0 0 .544-2.305v-4.09c0-.8.186-1.589.544-2.305l3.64-7.282c.11-.218.203-.443.28-.675l1.794-5.382a5.156 5.156 0 0 0 .265-1.63v-11.309c0-.577.229-1.13.636-1.538.85-.849.85-2.226 0-3.075a2.176 2.176 0 0 1-.636-1.538v-3.488a5.156 5.156 0 0 0-1.51-3.644l-3.504-3.504a5.154 5.154 0 0 1-1.51-3.644v-2.254a5.152 5.152 0 0 0-1.509-3.644l-2.07-2.071a2.625 2.625 0 0 1-.769-1.856c0-.696-.276-1.364-.768-1.856l-2.07-2.071a5.152 5.152 0 0 1-1.51-3.644v-4.845a5.16 5.16 0 0 0-1.03-3.092l-5.273-7.03a5.028 5.028 0 0 0-.48-.552l-4.827-4.828a5.154 5.154 0 0 1-1.506-3.467l-1.931-56.006Z" clip-rule="evenodd"/>
  </mask>
  <path fill="#98252C" fill-rule="evenodd" d="M37.017 44.642a5.154 5.154 0 0 1 4.844-5.322l138.933-8.295a5.154 5.154 0 0 1 3.166.857l.956.637a4.963 4.963 0 0 1 1.376 6.88 4.96 4.96 0 0 0-.31 4.97l.743 1.486c.096.19.221.365.372.516l.054.054a1.93 1.93 0 0 1-.502 3.09 1.93 1.93 0 0 0-.742 2.795l2.271 3.407c.564.846.865 1.841.865 2.858v2.387c0 1.622.764 3.15 2.062 4.123l3.664 2.748a5.154 5.154 0 0 1 1.797 5.753l-2.926 8.78a1.087 1.087 0 0 1-1.031.742c-.707 0-1.225.664-1.054 1.35l1.122 4.487a4.698 4.698 0 0 1-1.55 4.749l-9.561 7.968a5.147 5.147 0 0 0-1.656 2.543l-3.691 12.921a5.203 5.203 0 0 1-.667 1.443l-2.638 3.957a5.151 5.151 0 0 0-.712 4.108l1.18 4.72a4.919 4.919 0 0 1-.373 3.395l-.727 1.454a2.29 2.29 0 0 1-2.048 1.266 2.29 2.29 0 0 0-2.222 2.846l1.309 5.236c.102.409.154.829.154 1.25v2.431a5.154 5.154 0 0 0 5.61 5.134l88.165-7.838a3.737 3.737 0 0 1 4.03 4.251l-1.965 13.753c-.113.792-.04 1.6.213 2.359l1.405 4.215a5.144 5.144 0 0 0 1.245 2.014l4.802 4.803a5.155 5.155 0 0 1 1.245 2.015l3.868 11.604a1.87 1.87 0 0 1-1.775 2.462h-4.142a5.11 5.11 0 0 1-1.01-.1l-8.841-1.768a5.155 5.155 0 0 1-2.634-1.409l-3.91-3.911a5.154 5.154 0 0 0-3.644-1.509h-4.148c-1.53 0-2.98.679-3.96 1.854l-7.488 8.987a5.156 5.156 0 0 0-.93 4.929l.372 1.116a5.156 5.156 0 0 0 3.639 3.37l5.953 1.488 6.485 1.621a5.152 5.152 0 0 0 4.109-.711l10.008-6.673a4.528 4.528 0 0 1 2.512-.76h3.455c1.778 0 2.935 1.871 2.14 3.462a2.394 2.394 0 0 1-1.384 1.2l-2.58.86a2.745 2.745 0 0 0 .869 5.35h.906a4.25 4.25 0 0 1 2.991 1.245c1.698 1.699 4.48 1.727 6.178.029l.758-.758c.341-.342.626-.736.842-1.169 1.657-3.314 6.387-3.314 8.044 0l.327.653.063.127c.97 1.94-.44 4.222-2.609 4.222a2.917 2.917 0 0 0-2.609 1.612l-2.612 5.225a2.399 2.399 0 0 1-2.904 1.203c-1.874-.625-3.658 1.158-3.033 3.033l.131.391c.302.908-.109 1.9-.965 2.328-1.296.648-1.437 2.443-.258 3.285l11.825 8.447c.526.376 1.118.65 1.746.806l14.757 3.69a5.154 5.154 0 0 1 2.774 1.78l4.889 6.112a4.867 4.867 0 0 1-.359 6.483l-.181.181a4.613 4.613 0 0 1-6.523 0l-2.174-2.175c-.6-.6-1.574-.6-2.174 0-.6.601-1.574.601-2.174 0l-4.427-4.426a5.143 5.143 0 0 0-2.394-1.356l-5.678-1.42a3.666 3.666 0 0 1-2.388-1.915 3.662 3.662 0 0 0-4.435-1.837l-.548.182a4.328 4.328 0 0 1-4.833-1.509l-3.684-4.913a5.156 5.156 0 0 0-2.494-1.798l-10.954-3.651a3.648 3.648 0 0 0-1.158-.188H254.1c-1.919 0-3.167 2.019-2.309 3.735.201.402.503.745.877.994l3.658 2.438a5.155 5.155 0 0 1 2.294 4.289v8.729c0 1.017-.3 2.01-.864 2.856l-.938 1.406a3.763 3.763 0 0 1-6.895-2.087v-.187a4.213 4.213 0 0 0-2.329-3.768l-4.458-2.229a5.153 5.153 0 0 0-3.935-.28l-4.15 1.383a5.104 5.104 0 0 0-.675.28l-1.901.95a5.155 5.155 0 0 0-2.695 3.36l-.472 1.889a5.155 5.155 0 0 1-5.729 3.852l-10.256-1.465a5.076 5.076 0 0 0-.729-.052h-5.646c-.339 0-.678-.034-1.011-.1l-8.706-1.742a2.07 2.07 0 1 1 .908-4.038l1.735.434c1.725.431 3.161-1.36 2.366-2.95a2.1 2.1 0 0 0-.39-.541l-4.032-4.032a5.155 5.155 0 0 1-1.245-5.274l.841-2.52a1.674 1.674 0 0 0-2.98-1.458l-1.624 2.437a4.073 4.073 0 0 1-4.377 1.692l-4.527-1.132a5.153 5.153 0 0 1-2.395-1.355l-.805-.805a3.132 3.132 0 0 1-.587-.816l-1.312-2.624a1.024 1.024 0 0 0-1.639-.265 1.024 1.024 0 0 1-1.694-.4l-.883-2.65a2.75 2.75 0 0 0-3.148-1.827l-4.976.995a2.939 2.939 0 0 1-3.515-2.881 2.94 2.94 0 0 0-2.939-2.939h-2.367c-.8 0-1.589.186-2.305.544l-7.609 3.805c-2.139 1.07-2.602 3.921-.911 5.612l.125.125a3.632 3.632 0 0 1-.389 5.473l-3.973 2.98a5.157 5.157 0 0 1-3.093 1.031h-18.689a5.148 5.148 0 0 1-2.503-.649l-17.623-9.791a5.162 5.162 0 0 0-1.656-.579l-11.11-1.851a5.15 5.15 0 0 0-2.098.083l-7.657 1.915-16.779 4.195a5.165 5.165 0 0 1-1.25.154H58.11a2.746 2.746 0 0 1-.868-5.35l1.01-.337a3.67 3.67 0 0 0 2.51-3.482v-11.941c0-.422.051-.841.154-1.25l1.558-6.233a5.156 5.156 0 0 0-.39-3.555l-2.344-4.687a5.155 5.155 0 0 1 0-4.61l.478-.956a5.156 5.156 0 0 0 .544-2.305v-4.09c0-.8.186-1.589.544-2.305l3.64-7.282c.11-.218.203-.443.28-.675l1.794-5.382a5.156 5.156 0 0 0 .265-1.63v-11.309c0-.577.229-1.13.636-1.538.85-.849.85-2.226 0-3.075a2.176 2.176 0 0 1-.636-1.538v-3.488a5.156 5.156 0 0 0-1.51-3.644l-3.504-3.504a5.154 5.154 0 0 1-1.51-3.644v-2.254a5.152 5.152 0 0 0-1.509-3.644l-2.07-2.071a2.625 2.625 0 0 1-.769-1.856c0-.696-.276-1.364-.768-1.856l-2.07-2.071a5.152 5.152 0 0 1-1.51-3.644v-4.845a5.16 5.16 0 0 0-1.03-3.092l-5.273-7.03a5.028 5.028 0 0 0-.48-.552l-4.827-4.828a5.154 5.154 0 0 1-1.506-3.467l-1.931-56.006Z" clip-rule="evenodd"/>
  <path stroke="#F8F4EA" stroke-linecap="round" stroke-linejoin="round" stroke-width="10.308" d="M37.017 44.642a5.154 5.154 0 0 1 4.844-5.322l138.933-8.295a5.154 5.154 0 0 1 3.166.857l.956.637a4.963 4.963 0 0 1 1.376 6.88 4.96 4.96 0 0 0-.31 4.97l.743 1.486c.096.19.221.365.372.516l.054.054a1.93 1.93 0 0 1-.502 3.09 1.93 1.93 0 0 0-.742 2.795l2.271 3.407c.564.846.865 1.841.865 2.858v2.387c0 1.622.764 3.15 2.062 4.123l3.664 2.748a5.154 5.154 0 0 1 1.797 5.753l-2.926 8.78a1.087 1.087 0 0 1-1.031.742c-.707 0-1.225.664-1.054 1.35l1.122 4.487a4.698 4.698 0 0 1-1.55 4.749l-9.561 7.968a5.147 5.147 0 0 0-1.656 2.543l-3.691 12.921a5.203 5.203 0 0 1-.667 1.443l-2.638 3.957a5.151 5.151 0 0 0-.712 4.108l1.18 4.72a4.919 4.919 0 0 1-.373 3.395l-.727 1.454a2.29 2.29 0 0 1-2.048 1.266 2.29 2.29 0 0 0-2.222 2.846l1.309 5.236c.102.409.154.829.154 1.25v2.431a5.154 5.154 0 0 0 5.61 5.134l88.165-7.838a3.737 3.737 0 0 1 4.03 4.251l-1.965 13.753c-.113.792-.04 1.6.213 2.359l1.405 4.215a5.144 5.144 0 0 0 1.245 2.014l4.802 4.803a5.155 5.155 0 0 1 1.245 2.015l3.868 11.604a1.87 1.87 0 0 1-1.775 2.462h-4.142a5.11 5.11 0 0 1-1.01-.1l-8.841-1.768a5.155 5.155 0 0 1-2.634-1.409l-3.91-3.911a5.154 5.154 0 0 0-3.644-1.509h-4.148c-1.53 0-2.98.679-3.96 1.854l-7.488 8.987a5.156 5.156 0 0 0-.93 4.929l.372 1.116a5.156 5.156 0 0 0 3.639 3.37l5.953 1.488 6.485 1.621a5.152 5.152 0 0 0 4.109-.711l10.008-6.673a4.528 4.528 0 0 1 2.512-.76h3.455c1.778 0 2.935 1.871 2.14 3.462a2.394 2.394 0 0 1-1.384 1.2l-2.58.86a2.745 2.745 0 0 0 .869 5.35h.906a4.25 4.25 0 0 1 2.991 1.245c1.698 1.699 4.48 1.727 6.178.029l.758-.758c.341-.342.626-.736.842-1.169 1.657-3.314 6.387-3.314 8.044 0l.327.653.063.127c.97 1.94-.44 4.222-2.609 4.222a2.917 2.917 0 0 0-2.609 1.612l-2.612 5.225a2.399 2.399 0 0 1-2.904 1.203c-1.874-.625-3.658 1.158-3.033 3.033l.131.391c.302.908-.109 1.9-.965 2.328-1.296.648-1.437 2.443-.258 3.285l11.825 8.447c.526.376 1.118.65 1.746.806l14.757 3.69a5.154 5.154 0 0 1 2.774 1.78l4.889 6.112a4.867 4.867 0 0 1-.359 6.483l-.181.181a4.613 4.613 0 0 1-6.523 0l-2.174-2.175c-.6-.6-1.574-.6-2.174 0-.6.601-1.574.601-2.174 0l-4.427-4.426a5.143 5.143 0 0 0-2.394-1.356l-5.678-1.42a3.666 3.666 0 0 1-2.388-1.915 3.662 3.662 0 0 0-4.435-1.837l-.548.182a4.328 4.328 0 0 1-4.833-1.509l-3.684-4.913a5.156 5.156 0 0 0-2.494-1.798l-10.954-3.651a3.648 3.648 0 0 0-1.158-.188H254.1c-1.919 0-3.167 2.019-2.309 3.735.201.402.503.745.877.994l3.658 2.438a5.155 5.155 0 0 1 2.294 4.289v8.729c0 1.017-.3 2.01-.864 2.856l-.938 1.406a3.763 3.763 0 0 1-6.895-2.087v-.187a4.213 4.213 0 0 0-2.329-3.768l-4.458-2.229a5.153 5.153 0 0 0-3.935-.28l-4.15 1.383a5.104 5.104 0 0 0-.675.28l-1.901.95a5.155 5.155 0 0 0-2.695 3.36l-.472 1.889a5.155 5.155 0 0 1-5.729 3.852l-10.256-1.465a5.076 5.076 0 0 0-.729-.052h-5.646c-.339 0-.678-.034-1.011-.1l-8.706-1.742a2.07 2.07 0 1 1 .908-4.038l1.735.434c1.725.431 3.161-1.36 2.366-2.95a2.1 2.1 0 0 0-.39-.541l-4.032-4.032a5.155 5.155 0 0 1-1.245-5.274l.841-2.52a1.674 1.674 0 0 0-2.98-1.458l-1.624 2.437a4.073 4.073 0 0 1-4.377 1.692l-4.527-1.132a5.153 5.153 0 0 1-2.395-1.355l-.805-.805a3.132 3.132 0 0 1-.587-.816l-1.312-2.624a1.024 1.024 0 0 0-1.639-.265 1.024 1.024 0 0 1-1.694-.4l-.883-2.65a2.75 2.75 0 0 0-3.148-1.827l-4.976.995a2.939 2.939 0 0 1-3.515-2.881 2.94 2.94 0 0 0-2.939-2.939h-2.367c-.8 0-1.589.186-2.305.544l-7.609 3.805c-2.139 1.07-2.602 3.921-.911 5.612l.125.125a3.632 3.632 0 0 1-.389 5.473l-3.973 2.98a5.157 5.157 0 0 1-3.093 1.031h-18.689a5.148 5.148 0 0 1-2.503-.649l-17.623-9.791a5.162 5.162 0 0 0-1.656-.579l-11.11-1.851a5.15 5.15 0 0 0-2.098.083l-7.657 1.915-16.779 4.195a5.165 5.165 0 0 1-1.25.154H58.11a2.746 2.746 0 0 1-.868-5.35l1.01-.337a3.67 3.67 0 0 0 2.51-3.482v-11.941c0-.422.051-.841.154-1.25l1.558-6.233a5.156 5.156 0 0 0-.39-3.555l-2.344-4.687a5.155 5.155 0 0 1 0-4.61l.478-.956a5.156 5.156 0 0 0 .544-2.305v-4.09c0-.8.186-1.589.544-2.305l3.64-7.282c.11-.218.203-.443.28-.675l1.794-5.382a5.156 5.156 0 0 0 .265-1.63v-11.309c0-.577.229-1.13.636-1.538.85-.849.85-2.226 0-3.075a2.176 2.176 0 0 1-.636-1.538v-3.488a5.156 5.156 0 0 0-1.51-3.644l-3.504-3.504a5.154 5.154 0 0 1-1.51-3.644v-2.254a5.152 5.152 0 0 0-1.509-3.644l-2.07-2.071a2.625 2.625 0 0 1-.769-1.856c0-.696-.276-1.364-.768-1.856l-2.07-2.071a5.152 5.152 0 0 1-1.51-3.644v-4.845a5.16 5.16 0 0 0-1.03-3.092l-5.273-7.03a5.028 5.028 0 0 0-.48-.552l-4.827-4.828a5.154 5.154 0 0 1-1.506-3.467l-1.931-56.006Z" clip-rule="evenodd" mask="url(#a)"/>
  <circle cx="211.892" cy="175.048" r="9.517" fill="#F8F4EA"/>
  <circle cx="211.892" cy="175.048" r="9.517" fill="#F8F4EA" opacity=".3"/>
</svg>
