<svg xmlns="http://www.w3.org/2000/svg" width="250" height="374" fill="none" viewBox="0 0 250 374">
  <path fill="#98252C" stroke="#F8F4EA" stroke-linecap="round" stroke-linejoin="round" stroke-width="5" d="m190.687 323.973 1.116-2.238-1.116 2.238a7.505 7.505 0 0 0 3.347.788h4.259a5.227 5.227 0 0 0 3.692-1.527.23.23 0 0 1 .264-.043l1.886.941 1.116-2.237-1.116 2.237c4.059 2.024 8.97-.011 10.408-4.312a7.463 7.463 0 0 0 .301-3.475l-12.895-85.749a2.43 2.43 0 0 1-.028-.371V46.002a7.5 7.5 0 0 0-4.153-6.711l-.186-.093a2.26 2.26 0 0 1-1.014-1.012 7.266 7.266 0 0 0-7.246-3.97l-97.67 10.147a7.055 7.055 0 0 0-6.325 7.017c0 .688-.344 1.33-.917 1.71l-2.63 1.749a6.763 6.763 0 0 0-3.018 5.631v.98c0 .433-.35.783-.782.783a5.782 5.782 0 0 0-5.782 5.782v13.68a2.5 2.5 0 0 1-1.116 2.082l-2.284 1.519a7.09 7.09 0 0 0-3.164 5.904 2.09 2.09 0 0 1-.614 1.48l-5.216 5.202a5.582 5.582 0 0 0 0 7.905l.304.304 1.766-1.77-1.766 1.77a.153.153 0 0 1-.04.246l-4.944 2.465a7.501 7.501 0 0 0-4.006 8.187l.995 4.964a2.5 2.5 0 0 1-.453 1.994l1.998 1.503-1.998-1.503-3.492 4.645a5.801 5.801 0 0 0 .54 7.594l1.765-1.77-1.765 1.77.155.155a.583.583 0 0 1 0 .825 5.582 5.582 0 0 0 0 7.905l.907.905c.35.349.547.822.547 1.317v7.585c0 1.484.44 2.935 1.264 4.168l2.079-1.389-2.078 1.389 1.25 1.871a2.497 2.497 0 0 1-.312 3.156 7.499 7.499 0 0 0-2.203 5.308v1.794a7.502 7.502 0 0 0 3.347 6.246l.184.122a2.47 2.47 0 0 1 .686 3.43 7.472 7.472 0 0 0-.468 7.5l.747 1.491c.122.241.264.471.426.687a4.436 4.436 0 0 0-1.091 6.062l2.312 3.459a2.5 2.5 0 0 1 .421 1.389v2.527a7.499 7.499 0 0 0 3.008 6.005l3.855 2.884a2.501 2.501 0 0 1 .874 2.795l-2.714 8.121a3.596 3.596 0 0 0-2.42 4.307l1.128 4.497a2.212 2.212 0 0 1-.731 2.238l-9.664 8.032a7.504 7.504 0 0 0-2.416 3.703l-3.737 13.043 2.404.688-2.404-.688a2.45 2.45 0 0 1-.324.7l-2.71 4.054 2.078 1.389-2.078-1.389a7.5 7.5 0 0 0-1.04 5.991l1.204 4.802 2.425-.608-2.425.608a2.44 2.44 0 0 1-.186 1.687l-.676 1.349c-3.064.075-5.29 2.978-4.539 5.971l1.32 5.267c.05.198.075.402.075.607v2.65c0 4.404 3.776 7.86 8.162 7.471l88.943-7.886a1.252 1.252 0 0 1 1.348 1.423l-1.983 13.841a7.507 7.507 0 0 0 .311 3.441l1.439 4.304a7.483 7.483 0 0 0 1.817 2.933l1.765-1.77-1.765 1.77 5 4.987c.24.24.429.525.555.84l3.772 9.405a.59.59 0 0 1 .042.22c0 3.527 3.226 6.172 6.685 5.482l4.4-.877a7.5 7.5 0 0 0 5.646-4.978l1.158-3.464a4.65 4.65 0 0 0 .198-.853l.997.663a5.613 5.613 0 0 0 6.218 0l4.84-3.218c.038-.025.076-.052.113-.08l6.284-4.701a2.5 2.5 0 0 1 2.614-.235l4.94 2.464Z"/>
  <circle cx="108.772" cy="162.112" r="8.947" fill="#F8F4EA"/>
  <circle cx="108.772" cy="162.112" r="8.947" fill="#F8F4EA" opacity=".3"/>
  <circle cx="69.772" cy="249.112" r="8.947" fill="#F8F4EA"/>
  <circle cx="69.772" cy="249.112" r="8.947" fill="#F8F4EA" opacity=".3"/>
  <circle cx="80.772" cy="211.112" r="8.947" fill="#F8F4EA"/>
  <circle cx="80.772" cy="211.112" r="8.947" fill="#F8F4EA" opacity=".3"/>
  <circle cx="88.772" cy="177.112" r="8.947" fill="#F8F4EA"/>
  <circle cx="88.772" cy="177.112" r="8.947" fill="#F8F4EA" opacity=".3"/>
</svg>
