<svg xmlns="http://www.w3.org/2000/svg" width="169" height="290" fill="none" viewBox="0 0 169 290">
  <path fill="#98252C" fill-rule="evenodd" d="M145.989.329a4.58 4.58 0 0 1 4.571 2.507 4.58 4.58 0 0 0 2.048 2.048l.107.054a4.937 4.937 0 0 1 2.729 4.416v177.239c0 .249.019.496.055.742l12.379 82.53a4.77 4.77 0 0 1-6.85 4.974l-1.796-.899a2.618 2.618 0 0 0-3.021.491 2.617 2.617 0 0 1-1.851.766h-4.037c-.777 0-1.542-.18-2.236-.528l-4.583-2.291a5 5 0 0 0-5.236.472l-5.93 4.448-4.645 3.097a2.987 2.987 0 0 1-3.314 0l-1.429-.952c-1.374-.917-3.216.069-3.216 1.721 0 .222-.036.443-.106.654l-1.077 3.231a5 5 0 0 1-3.763 3.322l-4.099.82a2.976 2.976 0 0 1-3.559-2.917 2.99 2.99 0 0 0-.212-1.105l-3.608-9.019a5.01 5.01 0 0 0-1.106-1.678l-4.742-4.742a4.998 4.998 0 0 1-1.208-1.955l-1.354-4.062a5.002 5.002 0 0 1-.206-2.288l1.897-13.283a3.61 3.61 0 0 0-3.893-4.106l-85.155 7.569a5 5 0 0 1-5.442-4.98v-2.323c0-.409-.05-.816-.15-1.213l-1.264-5.057a2.213 2.213 0 0 1 2.147-2.749c.838 0 1.604-.473 1.979-1.223l.702-1.405a4.754 4.754 0 0 0 .36-3.279l-1.137-4.551a5 5 0 0 1 .69-3.986l2.541-3.813a5 5 0 0 0 .648-1.4l3.563-12.473a5.003 5.003 0 0 1 1.607-2.468l9.232-7.694a4.538 4.538 0 0 0 1.497-4.587l-1.083-4.335a1.05 1.05 0 0 1 1.018-1.304c.451 0 .852-.289.995-.718l2.823-8.468a5 5 0 0 0-1.743-5.581l-3.52-2.64a5 5 0 0 1-2-4v-2.288a5 5 0 0 0-.84-2.774l-2.19-3.286a1.864 1.864 0 0 1 .717-2.701 1.864 1.864 0 0 0 .484-2.985l-.052-.052a1.927 1.927 0 0 1-.359-.498l-.717-1.436a4.793 4.793 0 0 1 .299-4.802 4.792 4.792 0 0 0-1.33-6.646l-.117-.078a4.935 4.935 0 0 1-2.197-4.106v-1.667c0-1.277.507-2.502 1.41-3.405a4.815 4.815 0 0 0 .602-6.075l-1.172-1.759a4.998 4.998 0 0 1-.84-2.773v-7.25a4.2 4.2 0 0 0-1.23-2.97l-.87-.871a2.97 2.97 0 0 1 0-4.201 2.971 2.971 0 0 0 0-4.201l-.15-.15a3.182 3.182 0 0 1-.295-4.16l3.305-4.406a5 5 0 0 0 .902-3.98l-.913-4.567a5 5 0 0 1 2.667-5.453l4.615-2.308a2.556 2.556 0 0 0 .664-4.094l-.292-.293a2.971 2.971 0 0 1 0-4.201l5.005-5.006a4.426 4.426 0 0 0 1.296-3.13c0-1.48.74-2.861 1.97-3.682l2.106-1.403a5 5 0 0 0 2.226-4.16V30.46a3.15 3.15 0 0 1 3.151-3.151 3.15 3.15 0 0 0 3.15-3.151v-.955c0-1.372.687-2.654 1.829-3.415l2.52-1.68a4.388 4.388 0 0 0 1.954-3.651 4.388 4.388 0 0 1 3.933-4.364L145.989.329Z" clip-rule="evenodd"/>
  <path fill="#fff" d="M70.323 107.682c-6.926 0-12.542 5.615-12.542 12.541 0 2.478.72 4.775 1.96 6.719.06.095.106.188.168.281l7.782 14.444c.365 1.05 1.4 1.848 2.576 1.848 1.175 0 2.154-.798 2.52-1.848l8.678-15.677a12.51 12.51 0 0 0 1.4-5.767c0-6.926-5.616-12.541-12.542-12.541Zm-.056 7.11a6.271 6.271 0 1 1 0 12.542 6.271 6.271 0 0 1 0-12.542Zm32.056 45.89c-6.926 0-12.542 5.615-12.542 12.541 0 2.478.72 4.775 1.96 6.719.06.095.106.188.168.281l7.782 14.444c.365 1.05 1.401 1.848 2.576 1.848s2.154-.798 2.519-1.848l8.679-15.677a12.511 12.511 0 0 0 1.399-5.767c0-6.926-5.615-12.541-12.541-12.541Zm-.056 7.11a6.271 6.271 0 1 1-.001 12.543 6.271 6.271 0 0 1 .001-12.543Z"/>
  <path fill="#fff" d="M127.323 157.682c-6.926 0-12.542 5.615-12.542 12.541 0 2.478.72 4.775 1.96 6.719.06.095.106.188.168.281l7.782 14.444c.365 1.05 1.401 1.848 2.576 1.848s2.154-.798 2.519-1.848l8.679-15.677a12.511 12.511 0 0 0 1.399-5.767c0-6.926-5.615-12.541-12.541-12.541Zm-.056 7.11a6.271 6.271 0 1 1-.001 12.543 6.271 6.271 0 0 1 .001-12.543Zm-93.944 26.89c-6.927 0-12.542 5.615-12.542 12.541 0 2.478.72 4.775 1.96 6.719.06.095.106.188.168.281l7.782 14.444c.365 1.05 1.4 1.848 2.576 1.848 1.175 0 2.154-.798 2.52-1.848l8.678-15.677a12.51 12.51 0 0 0 1.4-5.767c0-6.926-5.616-12.541-12.542-12.541Zm-.056 7.11a6.271 6.271 0 1 1 0 12.542 6.271 6.271 0 0 1 0-12.542Zm3.056-44.11c-6.927 0-12.542 5.615-12.542 12.541 0 2.478.72 4.775 1.96 6.719.06.095.106.188.168.281l7.782 14.444c.365 1.05 1.4 1.848 2.576 1.848 1.175 0 2.154-.798 2.52-1.848l8.678-15.677a12.51 12.51 0 0 0 1.4-5.767c0-6.926-5.616-12.541-12.542-12.541Zm-.056 7.11a6.271 6.271 0 1 1 0 12.542 6.271 6.271 0 0 1 0-12.542Zm15.056-39.11c-6.926 0-12.542 5.615-12.542 12.541 0 2.478.72 4.775 1.96 6.719.06.095.106.188.168.281l7.782 14.444c.365 1.05 1.4 1.848 2.576 1.848 1.175 0 2.154-.798 2.52-1.848l8.678-15.677a12.51 12.51 0 0 0 1.4-5.767c0-6.926-5.616-12.541-12.542-12.541Zm-.056 7.11a6.271 6.271 0 1 1 0 12.542 6.271 6.271 0 0 1 0-12.542Zm25.056 35.89c-6.926 0-12.542 5.615-12.542 12.541 0 2.478.72 4.775 1.96 6.719.06.095.106.188.168.281l7.782 14.444c.365 1.05 1.4 1.848 2.576 1.848 1.175 0 2.154-.798 2.52-1.848l8.678-15.677a12.51 12.51 0 0 0 1.4-5.767c0-6.926-5.616-12.541-12.542-12.541Zm-.056 7.11a6.271 6.271 0 1 1 0 12.542 6.271 6.271 0 0 1 0-12.542Zm26.056-8.11c-6.926 0-12.542 5.615-12.542 12.541 0 2.478.72 4.775 1.96 6.719.06.095.106.188.168.281l7.782 14.444c.365 1.05 1.401 1.848 2.576 1.848s2.154-.798 2.519-1.848l8.679-15.677a12.511 12.511 0 0 0 1.399-5.767c0-6.926-5.615-12.541-12.541-12.541Zm-.056 7.11a6.271 6.271 0 1 1-.001 12.543 6.271 6.271 0 0 1 .001-12.543Z"/>
</svg>
