<svg xmlns="http://www.w3.org/2000/svg" width="482" height="254" fill="none" viewBox="0 0 482 254">
  <mask id="a" width="431" height="202" x="25.473" y="25.723" fill="#000" maskUnits="userSpaceOnUse">
    <path fill="#fff" d="M25.473 25.723h431v202h-431z"/>
    <path fill-rule="evenodd" d="M150.098 89.28a5.09 5.09 0 0 1 4.176-5.007l263.327-48.07a5.09 5.09 0 0 1 4.514 1.407l6.523 6.523c.11.11.209.231.295.36l3.455 5.183c.885 1.328-.789 2.863-2.035 1.866l-.75-.6c-.866-.693-2.102.17-1.752 1.222.327.98-.742 1.838-1.629 1.306l-7.186-4.312a2.022 2.022 0 0 0-1.945-.075c-1.428.714-1.505 2.722-.136 3.543l4.144 2.487c1.48.888 1.396 3.06-.148 3.832a2.188 2.188 0 0 1-1.509.166l-4.53-1.133c-.916-.229-1.551.894-.884 1.561.747.747-.13 1.963-1.074 1.49l-5.058-2.528a1.849 1.849 0 0 0-2.676 1.653v.231c0 .666.333 1.288.887 1.657l.805.537c2.255 1.503 2.255 4.817 0 6.32l-.611.408a4.29 4.29 0 0 1-2.379.72h-3.303a5.09 5.09 0 0 1-4.938-3.856l-1.028-4.112a5.086 5.086 0 0 1-.152-1.234v-5.806a2.144 2.144 0 0 0-4.288 0v9.179c0 1.005.298 1.987.855 2.823l2.724 4.086a4.23 4.23 0 0 1 .709 2.343 4.224 4.224 0 0 0 5.053 4.143l4.284-.857a4.653 4.653 0 0 0 2.379-1.273l.641-.642a3.748 3.748 0 0 1 5.3 0 3.748 3.748 0 0 0 3.835.906l2.869-.957a4.197 4.197 0 0 0 2.164-1.652l.256-.384c1.538-2.308 4.929-2.308 6.467 0 .665.998.832 2.247.453 3.384l-.96 2.88a2.127 2.127 0 0 0 1.067 2.574l.659.33a1.595 1.595 0 0 1 .414 2.554c-1.005 1.005-.293 2.723 1.128 2.723h1.009c.924 0 1.729-.628 1.953-1.525l1.477-5.91a4.032 4.032 0 0 0-.086-2.257l-.365-1.095c-.692-2.076.853-4.22 3.042-4.22h.851c.693 0 1.327-.393 1.638-1.013.674-1.35 2.6-1.35 3.275 0l2.197 4.395c.298.595.453 1.252.453 1.917v8.536c0 1.524-1.603 2.515-2.966 1.833a2.05 2.05 0 0 0-2.366.384l-.571.57c-.347.348-.61.772-.765 1.24l-3.671 11.014a5.086 5.086 0 0 1-1.23 1.989l-1.947 1.948a5.095 5.095 0 0 1-3.6 1.491h-4.691a4.286 4.286 0 0 1-3.031-1.256l-1.236-1.236a2.54 2.54 0 0 0-3.592 0l-.261.261a2.274 2.274 0 0 1-3.642-.591l-.224-.449a1.578 1.578 0 0 1 .296-1.822c1.085-1.086.139-2.926-1.376-2.673l-4.551.758a2.264 2.264 0 0 0-1.512 3.489c1.003 1.504-.075 3.519-1.883 3.519h-8.232c-.267 0-.533-.033-.792-.098l-1.762-.44c-2.27-.568-4.049 1.956-2.751 3.903a2.556 2.556 0 0 0 1.709 1.105l11.354 1.893c.276.046.556.069.837.069h9.792a2.65 2.65 0 0 1 1.185 5.02l-3.26 1.63c-1.421.711-1.274 2.785.234 3.288a1.782 1.782 0 0 1 .862 2.761l-3.42 4.561a5.089 5.089 0 0 1-4.072 2.036h-3.177c-.467 0-.927-.108-1.344-.317l-.798-.399c-2.692-1.346-5.327 1.914-3.447 4.264.384.48.915.821 1.511.97l7.048 1.762c.404.101.819.152 1.235.152h1.304a4.405 4.405 0 0 0 3.665-1.961l.929-1.394c1.061-1.592 3.335-1.793 4.687-.44a2.99 2.99 0 0 0 3.637.46c2.545-1.527 5.506 1.215 4.179 3.869l-1.893 3.788a4.2 4.2 0 0 1-6.085 1.616l-.091-.061a4.296 4.296 0 0 0-4.766 0l-4.049 2.699-9.042 5.426a3.09 3.09 0 0 1-3.304-.078l-.263-.176c-1.941-1.294-4.542.098-4.542 2.431a2.92 2.92 0 0 1-.584 1.752l-1.981 2.641c-1.549 2.067-4.803 1.41-5.43-1.096l-.242-.97a1.788 1.788 0 1 0-3.333 1.233l.283.566a1.763 1.763 0 0 1-.33 2.034 1.762 1.762 0 0 0 0 2.492l.745.745a2.817 2.817 0 0 1-.301 4.245l-5.18 3.885a5.101 5.101 0 0 0-1.311 1.454l-5.709 9.515a5.2 5.2 0 0 0-.361.729l-4.032 10.081a1.449 1.449 0 0 0-.104.54v1.358c0 1.194-1.61 1.574-2.144.506s-2.144-.688-2.144.506v10.817a3.685 3.685 0 0 1-3.685 3.685h-11.358c-1.35 0-2.644.537-3.599 1.491l-1.947 1.948c-.559.558-1.24.98-1.99 1.229l-2.813.938a5.09 5.09 0 0 1-4.595-.706l-58.363-42.266a5.087 5.087 0 0 0-3.759-.908l-49.088 7.552a5.09 5.09 0 0 1-5.713-3.796l-.58-2.321a5.087 5.087 0 0 0-1.884-2.838l-5.437-4.078a2.44 2.44 0 0 0-3.189.227c-1.282 1.283-3.466.767-4.04-.954l-.17-.511a2.773 2.773 0 0 0-2.998-1.872l-61.352 8.181a5.065 5.065 0 0 0-1.333.367l-12.726 5.454a4.873 4.873 0 0 0-2.438 2.299l-.626 1.252a2.603 2.603 0 0 1-2.329 1.44 2.62 2.62 0 0 0-1.026.21l-13.897 5.957c-.41.176-.843.297-1.285.36l-53.552 7.651a5.09 5.09 0 0 1-5.81-5.039v-7.858a3.093 3.093 0 0 1 3.842-3l1.528.382a5.091 5.091 0 0 0 6.255-4.102l.927-5.561a5.089 5.089 0 0 1 1.763-3.074l9.995-8.331a5.092 5.092 0 0 1 3.26-1.179h6.566a5.09 5.09 0 0 0 3.83-1.739l11.966-13.675a5.09 5.09 0 0 1 3.83-1.739h2.093a5.09 5.09 0 0 0 4.992-4.092l.878-4.39a2.784 2.784 0 0 1 2.729-2.238 2.781 2.781 0 0 0 2.64-1.903l.726-2.177a4.957 4.957 0 0 1 3.136-3.136l1.424-.475a3.227 3.227 0 0 1 3.907 1.619 3.23 3.23 0 0 0 2.887 1.784h.052a3.312 3.312 0 0 0 3.074-2.081l2.431-6.079a5.09 5.09 0 0 1 3.728-3.101l6.866-1.373a3.412 3.412 0 0 1 2.197.294 3.416 3.416 0 0 0 4.667-1.709l4.619-10.778a5.082 5.082 0 0 1 1.079-1.595l3.15-3.15c.285-.285.67-.444 1.072-.444.838 0 1.516-.68 1.516-1.516V89.28Z" clip-rule="evenodd"/>
  </mask>
  <path fill="#98252C" fill-rule="evenodd" d="M150.098 89.28a5.09 5.09 0 0 1 4.176-5.007l263.327-48.07a5.09 5.09 0 0 1 4.514 1.407l6.523 6.523c.11.11.209.231.295.36l3.455 5.183c.885 1.328-.789 2.863-2.035 1.866l-.75-.6c-.866-.693-2.102.17-1.752 1.222.327.98-.742 1.838-1.629 1.306l-7.186-4.312a2.022 2.022 0 0 0-1.945-.075c-1.428.714-1.505 2.722-.136 3.543l4.144 2.487c1.48.888 1.396 3.06-.148 3.832a2.188 2.188 0 0 1-1.509.166l-4.53-1.133c-.916-.229-1.551.894-.884 1.561.747.747-.13 1.963-1.074 1.49l-5.058-2.528a1.849 1.849 0 0 0-2.676 1.653v.231c0 .666.333 1.288.887 1.657l.805.537c2.255 1.503 2.255 4.817 0 6.32l-.611.408a4.29 4.29 0 0 1-2.379.72h-3.303a5.09 5.09 0 0 1-4.938-3.856l-1.028-4.112a5.086 5.086 0 0 1-.152-1.234v-5.806a2.144 2.144 0 0 0-4.288 0v9.179c0 1.005.298 1.987.855 2.823l2.724 4.086a4.23 4.23 0 0 1 .709 2.343 4.224 4.224 0 0 0 5.053 4.143l4.284-.857a4.653 4.653 0 0 0 2.379-1.273l.641-.642a3.748 3.748 0 0 1 5.3 0 3.748 3.748 0 0 0 3.835.906l2.869-.957a4.197 4.197 0 0 0 2.164-1.652l.256-.384c1.538-2.308 4.929-2.308 6.467 0 .665.998.832 2.247.453 3.384l-.96 2.88a2.127 2.127 0 0 0 1.067 2.574l.659.33a1.595 1.595 0 0 1 .414 2.554c-1.005 1.005-.293 2.723 1.128 2.723h1.009c.924 0 1.729-.628 1.953-1.525l1.477-5.91a4.032 4.032 0 0 0-.086-2.257l-.365-1.095c-.692-2.076.853-4.22 3.042-4.22h.851c.693 0 1.327-.393 1.638-1.013.674-1.35 2.6-1.35 3.275 0l2.197 4.395c.298.595.453 1.252.453 1.917v8.536c0 1.524-1.603 2.515-2.966 1.833a2.05 2.05 0 0 0-2.366.384l-.571.57c-.347.348-.61.772-.765 1.24l-3.671 11.014a5.086 5.086 0 0 1-1.23 1.989l-1.947 1.948a5.095 5.095 0 0 1-3.6 1.491h-4.691a4.286 4.286 0 0 1-3.031-1.256l-1.236-1.236a2.54 2.54 0 0 0-3.592 0l-.261.261a2.274 2.274 0 0 1-3.642-.591l-.224-.449a1.578 1.578 0 0 1 .296-1.822c1.085-1.086.139-2.926-1.376-2.673l-4.551.758a2.264 2.264 0 0 0-1.512 3.489c1.003 1.504-.075 3.519-1.883 3.519h-8.232c-.267 0-.533-.033-.792-.098l-1.762-.44c-2.27-.568-4.049 1.956-2.751 3.903a2.556 2.556 0 0 0 1.709 1.105l11.354 1.893c.276.046.556.069.837.069h9.792a2.65 2.65 0 0 1 1.185 5.02l-3.26 1.63c-1.421.711-1.274 2.785.234 3.288a1.782 1.782 0 0 1 .862 2.761l-3.42 4.561a5.089 5.089 0 0 1-4.072 2.036h-3.177c-.467 0-.927-.108-1.344-.317l-.798-.399c-2.692-1.346-5.327 1.914-3.447 4.264.384.48.915.821 1.511.97l7.048 1.762c.404.101.819.152 1.235.152h1.304a4.405 4.405 0 0 0 3.665-1.961l.929-1.394c1.061-1.592 3.335-1.793 4.687-.44a2.99 2.99 0 0 0 3.637.46c2.545-1.527 5.506 1.215 4.179 3.869l-1.893 3.788a4.2 4.2 0 0 1-6.085 1.616l-.091-.061a4.296 4.296 0 0 0-4.766 0l-4.049 2.699-9.042 5.426a3.09 3.09 0 0 1-3.304-.078l-.263-.176c-1.941-1.294-4.542.098-4.542 2.431a2.92 2.92 0 0 1-.584 1.752l-1.981 2.641c-1.549 2.067-4.803 1.41-5.43-1.096l-.242-.97a1.788 1.788 0 1 0-3.333 1.233l.283.566a1.763 1.763 0 0 1-.33 2.034 1.762 1.762 0 0 0 0 2.492l.745.745a2.817 2.817 0 0 1-.301 4.245l-5.18 3.885a5.101 5.101 0 0 0-1.311 1.454l-5.709 9.515a5.2 5.2 0 0 0-.361.729l-4.032 10.081a1.449 1.449 0 0 0-.104.54v1.358c0 1.194-1.61 1.574-2.144.506s-2.144-.688-2.144.506v10.817a3.685 3.685 0 0 1-3.685 3.685h-11.358c-1.35 0-2.644.537-3.599 1.491l-1.947 1.948c-.559.558-1.24.98-1.99 1.229l-2.813.938a5.09 5.09 0 0 1-4.595-.706l-58.363-42.266a5.087 5.087 0 0 0-3.759-.908l-49.088 7.552a5.09 5.09 0 0 1-5.713-3.796l-.58-2.321a5.087 5.087 0 0 0-1.884-2.838l-5.437-4.078a2.44 2.44 0 0 0-3.189.227c-1.282 1.283-3.466.767-4.04-.954l-.17-.511a2.773 2.773 0 0 0-2.998-1.872l-61.352 8.181a5.065 5.065 0 0 0-1.333.367l-12.726 5.454a4.873 4.873 0 0 0-2.438 2.299l-.626 1.252a2.603 2.603 0 0 1-2.329 1.44 2.62 2.62 0 0 0-1.026.21l-13.897 5.957c-.41.176-.843.297-1.285.36l-53.552 7.651a5.09 5.09 0 0 1-5.81-5.039v-7.858a3.093 3.093 0 0 1 3.842-3l1.528.382a5.091 5.091 0 0 0 6.255-4.102l.927-5.561a5.089 5.089 0 0 1 1.763-3.074l9.995-8.331a5.092 5.092 0 0 1 3.26-1.179h6.566a5.09 5.09 0 0 0 3.83-1.739l11.966-13.675a5.09 5.09 0 0 1 3.83-1.739h2.093a5.09 5.09 0 0 0 4.992-4.092l.878-4.39a2.784 2.784 0 0 1 2.729-2.238 2.781 2.781 0 0 0 2.64-1.903l.726-2.177a4.957 4.957 0 0 1 3.136-3.136l1.424-.475a3.227 3.227 0 0 1 3.907 1.619 3.23 3.23 0 0 0 2.887 1.784h.052a3.312 3.312 0 0 0 3.074-2.081l2.431-6.079a5.09 5.09 0 0 1 3.728-3.101l6.866-1.373a3.412 3.412 0 0 1 2.197.294 3.416 3.416 0 0 0 4.667-1.709l4.619-10.778a5.082 5.082 0 0 1 1.079-1.595l3.15-3.15c.285-.285.67-.444 1.072-.444.838 0 1.516-.68 1.516-1.516V89.28Z" clip-rule="evenodd"/>
  <path stroke="#F8F4EA" stroke-linecap="round" stroke-linejoin="round" stroke-width="20.361" d="M150.098 89.28a5.09 5.09 0 0 1 4.176-5.007l263.327-48.07a5.09 5.09 0 0 1 4.514 1.407l6.523 6.523c.11.11.209.231.295.36l3.455 5.183c.885 1.328-.789 2.863-2.035 1.866l-.75-.6c-.866-.693-2.102.17-1.752 1.222.327.98-.742 1.838-1.629 1.306l-7.186-4.312a2.022 2.022 0 0 0-1.945-.075c-1.428.714-1.505 2.722-.136 3.543l4.144 2.487c1.48.888 1.396 3.06-.148 3.832a2.188 2.188 0 0 1-1.509.166l-4.53-1.133c-.916-.229-1.551.894-.884 1.561.747.747-.13 1.963-1.074 1.49l-5.058-2.528a1.849 1.849 0 0 0-2.676 1.653v.231c0 .666.333 1.288.887 1.657l.805.537c2.255 1.503 2.255 4.817 0 6.32l-.611.408a4.29 4.29 0 0 1-2.379.72h-3.303a5.09 5.09 0 0 1-4.938-3.856l-1.028-4.112a5.086 5.086 0 0 1-.152-1.234v-5.806a2.144 2.144 0 0 0-4.288 0v9.179c0 1.005.298 1.987.855 2.823l2.724 4.086a4.23 4.23 0 0 1 .709 2.343 4.224 4.224 0 0 0 5.053 4.143l4.284-.857a4.653 4.653 0 0 0 2.379-1.273l.641-.642a3.748 3.748 0 0 1 5.3 0 3.748 3.748 0 0 0 3.835.906l2.869-.957a4.197 4.197 0 0 0 2.164-1.652l.256-.384c1.538-2.308 4.929-2.308 6.467 0 .665.998.832 2.247.453 3.384l-.96 2.88a2.127 2.127 0 0 0 1.067 2.574l.659.33a1.595 1.595 0 0 1 .414 2.554c-1.005 1.005-.293 2.723 1.128 2.723h1.009c.924 0 1.729-.628 1.953-1.525l1.477-5.91a4.032 4.032 0 0 0-.086-2.257l-.365-1.095c-.692-2.076.853-4.22 3.042-4.22h.851c.693 0 1.327-.393 1.638-1.013.674-1.35 2.6-1.35 3.275 0l2.197 4.395c.298.595.453 1.252.453 1.917v8.536c0 1.524-1.603 2.515-2.966 1.833a2.05 2.05 0 0 0-2.366.384l-.571.57c-.347.348-.61.772-.765 1.24l-3.671 11.014a5.086 5.086 0 0 1-1.23 1.989l-1.947 1.948a5.095 5.095 0 0 1-3.6 1.491h-4.691a4.286 4.286 0 0 1-3.031-1.256l-1.236-1.236a2.54 2.54 0 0 0-3.592 0l-.261.261a2.274 2.274 0 0 1-3.642-.591l-.224-.449a1.578 1.578 0 0 1 .296-1.822c1.085-1.086.139-2.926-1.376-2.673l-4.551.758a2.264 2.264 0 0 0-1.512 3.489c1.003 1.504-.075 3.519-1.883 3.519h-8.232c-.267 0-.533-.033-.792-.098l-1.762-.44c-2.27-.568-4.049 1.956-2.751 3.903a2.556 2.556 0 0 0 1.709 1.105l11.354 1.893c.276.046.556.069.837.069h9.792a2.65 2.65 0 0 1 1.185 5.02l-3.26 1.63c-1.421.711-1.274 2.785.234 3.288a1.782 1.782 0 0 1 .862 2.761l-3.42 4.561a5.089 5.089 0 0 1-4.072 2.036h-3.177c-.467 0-.927-.108-1.344-.317l-.798-.399c-2.692-1.346-5.327 1.914-3.447 4.264.384.48.915.821 1.511.97l7.048 1.762c.404.101.819.152 1.235.152h1.304a4.405 4.405 0 0 0 3.665-1.961l.929-1.394c1.061-1.592 3.335-1.793 4.687-.44a2.99 2.99 0 0 0 3.637.46c2.545-1.527 5.506 1.215 4.179 3.869l-1.893 3.788a4.2 4.2 0 0 1-6.085 1.616l-.091-.061a4.296 4.296 0 0 0-4.766 0l-4.049 2.699-9.042 5.426a3.09 3.09 0 0 1-3.304-.078l-.263-.176c-1.941-1.294-4.542.098-4.542 2.431a2.92 2.92 0 0 1-.584 1.752l-1.981 2.641c-1.549 2.067-4.803 1.41-5.43-1.096l-.242-.97a1.788 1.788 0 1 0-3.333 1.233l.283.566a1.763 1.763 0 0 1-.33 2.034 1.762 1.762 0 0 0 0 2.492l.745.745a2.817 2.817 0 0 1-.301 4.245l-5.18 3.885a5.101 5.101 0 0 0-1.311 1.454l-5.709 9.515a5.2 5.2 0 0 0-.361.729l-4.032 10.081a1.449 1.449 0 0 0-.104.54v1.358c0 1.194-1.61 1.574-2.144.506s-2.144-.688-2.144.506v10.817a3.685 3.685 0 0 1-3.685 3.685h-11.358c-1.35 0-2.644.537-3.599 1.491l-1.947 1.948c-.559.558-1.24.98-1.99 1.229l-2.813.938a5.09 5.09 0 0 1-4.595-.706l-58.363-42.266a5.087 5.087 0 0 0-3.759-.908l-49.088 7.552a5.09 5.09 0 0 1-5.713-3.796l-.58-2.321a5.087 5.087 0 0 0-1.884-2.838l-5.437-4.078a2.44 2.44 0 0 0-3.189.227c-1.282 1.283-3.466.767-4.04-.954l-.17-.511a2.773 2.773 0 0 0-2.998-1.872l-61.352 8.181a5.065 5.065 0 0 0-1.333.367l-12.726 5.454a4.873 4.873 0 0 0-2.438 2.299l-.626 1.252a2.603 2.603 0 0 1-2.329 1.44 2.62 2.62 0 0 0-1.026.21l-13.897 5.957c-.41.176-.843.297-1.285.36l-53.552 7.651a5.09 5.09 0 0 1-5.81-5.039v-7.858a3.093 3.093 0 0 1 3.842-3l1.528.382a5.091 5.091 0 0 0 6.255-4.102l.927-5.561a5.089 5.089 0 0 1 1.763-3.074l9.995-8.331a5.092 5.092 0 0 1 3.26-1.179h6.566a5.09 5.09 0 0 0 3.83-1.739l11.966-13.675a5.09 5.09 0 0 1 3.83-1.739h2.093a5.09 5.09 0 0 0 4.992-4.092l.878-4.39a2.784 2.784 0 0 1 2.729-2.238 2.781 2.781 0 0 0 2.64-1.903l.726-2.177a4.957 4.957 0 0 1 3.136-3.136l1.424-.475a3.227 3.227 0 0 1 3.907 1.619 3.23 3.23 0 0 0 2.887 1.784h.052a3.312 3.312 0 0 0 3.074-2.081l2.431-6.079a5.09 5.09 0 0 1 3.728-3.101l6.866-1.373a3.412 3.412 0 0 1 2.197.294 3.416 3.416 0 0 0 4.667-1.709l4.619-10.778a5.082 5.082 0 0 1 1.079-1.595l3.15-3.15c.285-.285.67-.444 1.072-.444.838 0 1.516-.68 1.516-1.516V89.28Z" clip-rule="evenodd" mask="url(#a)"/>
  <ellipse cx="196.15" cy="93.175" fill="#F8F4EA" rx="9.802" ry="9.804"/>
  <ellipse cx="196.15" cy="93.175" fill="#F8F4EA" opacity=".3" rx="9.802" ry="9.804"/>
  <ellipse cx="293.107" cy="141.144" fill="#F8F4EA" rx="9.802" ry="9.804"/>
  <ellipse cx="293.107" cy="141.144" fill="#F8F4EA" opacity=".3" rx="9.802" ry="9.804"/>
  <ellipse cx="355.364" cy="101.339" fill="#F8F4EA" rx="9.802" ry="9.804"/>
  <ellipse cx="355.364" cy="101.339" fill="#F8F4EA" opacity=".3" rx="9.802" ry="9.804"/>
</svg>
