<svg xmlns="http://www.w3.org/2000/svg" width="2168" height="2058" fill="none" viewBox="0 0 2168 2058">
  <path fill="#98252C" fill-rule="evenodd" d="M612.384 4.913a5 5 0 0 1 5.07-4.842l465.046 6.74a5.004 5.004 0 0 1 4.93 5v361.751c0 2.761 2.24 5 5 5H1106c1.33 0 2.6.527 3.54 1.464l37.65 37.648a4.985 4.985 0 0 0 5.11 1.208l16.95-5.649a4.98 4.98 0 0 1 1.58-.256h9.86c1.9 0 3.63-1.07 4.47-2.764l2.4-4.797c1.53-3.053 5.6-3.713 8.01-1.299l21.16 21.161a4.995 4.995 0 0 1 1.47 3.535v13.578c0 2.762 2.23 5 5 5h28.6c.53 0 1.07.087 1.58.257l38.94 12.982c1.03.342 2.14.342 3.16 0l16.14-5.378a4.985 4.985 0 0 1 5.11 1.208l15.57 15.564a5 5 0 0 0 6.31.625l15.97-10.652c.83-.548 1.79-.84 2.78-.84h34.78c2.76 0 5 2.239 5 5v12.045a5.005 5.005 0 0 0 3.42 4.744l15.26 5.088a4.982 4.982 0 0 1 2.89 2.507l10.02 20.033c1.44 2.884 5.19 3.669 7.67 1.605l30.82-25.683c2.7-2.254 6.83-1.08 7.94 2.26l3.43 10.28a4.997 4.997 0 0 0 4.74 3.419h8.65c.99 0 1.95.292 2.77.84l16.98 11.316a5.001 5.001 0 0 0 5.01.312l20.07-10.038a5.001 5.001 0 0 1 6.88 2.616l7.9 19.753c1.55 3.885 6.91 4.257 8.98.624l19.86-34.754a5.006 5.006 0 0 1 6.92-1.807l28.06 16.838c1.25.751 2.76.917 4.15.456l15.53-5.179a5.005 5.005 0 0 1 5.12 1.208l10.75 10.746a4.89 4.89 0 0 0 1.95 1.208l39.4 13.136c.51.17 1.05.257 1.59.257h9.35c2.15 0 4.06-1.378 4.74-3.419l4.82-14.477a5.012 5.012 0 0 1 3.77-3.322l31.08-6.217c.32-.065.65-.097.98-.097h12.46c.54 0 1.07-.087 1.58-.257l39.14-13.049c.9-.3 1.87-.338 2.8-.107l24.32 6.081c1.16.29 2.38.155 3.45-.378l24.02-12.013a5.01 5.01 0 0 1 3.82-.271l38.21 12.738c.73.245 1.4.659 1.95 1.208l19.47 19.464c.23.232.48.442.76.624l19.34 12.896c.59.393 1.25.656 1.95.772l39.5 6.583c.49.082.96.237 1.41.46l23.63 11.818c1.93.962 4.25.585 5.78-.937l2.87-2.87a4.983 4.983 0 0 1 3.53-1.464h30.27c1.33 0 2.6.526 3.54 1.464l3.95 3.954a4.985 4.985 0 0 1 1.46 3.535v97.673a3.505 3.505 0 0 0 3.51 3.501c1.88 0 3.43 1.494 3.49 3.38l6.7 194.255a5.056 5.056 0 0 0 1.46 3.364l19.01 19.004c.16.167.32.346.46.535l19.43 25.914c.65.866 1 1.918 1 3v23.794c0 1.326.53 2.598 1.47 3.536l10.84 10.837a5.028 5.028 0 0 1 1.46 3.535v2.741a5.03 5.03 0 0 0 1.46 3.536l10.84 10.837a4.984 4.984 0 0 1 1.46 3.535v16.507c0 1.326.53 2.598 1.47 3.535l12.3 12.302 5.42 5.423c.93.93 1.46 2.2 1.46 3.53v16.51c0 1.32.53 2.6 1.47 3.53l1.88 1.89a5.003 5.003 0 0 1 0 7.07l-1.88 1.88c-.94.94-1.47 2.21-1.47 3.54v38.41c0 .54-.08 1.07-.25 1.58l-6.52 19.54c-.07.23-.16.45-.27.66l-13.08 26.16a5.08 5.08 0 0 0-.53 2.23v18.29c0 .78-.18 1.54-.52 2.24l-5.24 10.47a5.02 5.02 0 0 0 0 4.47l11.82 23.64c.53 1.07.67 2.3.38 3.45l-6.1 24.4c-.22.88-.67 1.68-1.31 2.32l-12.22 12.21c-.38.38-.69.82-.93 1.3l-13.41 26.81-5.58 11.17c-.8 1.6-.68 3.52.31 5.01l6.98 10.46c2.21 3.32-.17 7.77-4.17 7.77h-16.89c-.85 0-1.68.22-2.43.63l-59.67 33.16c-.75.41-1.58.63-2.43.63h-25.74c-.33 0-.66.03-.98.1l-22.09 4.41c-4.37.88-7.61-3.97-5.14-7.67l6.7-10.05c.24-.37.44-.77.58-1.19l5.3-15.9c.79-2.36-.28-4.94-2.51-6.06l-7.65-3.82a4.957 4.957 0 0 0-4.47 0l-10.8 5.4c-.48.24-.92.56-1.3.94l-11.19 11.19a4.997 4.997 0 0 1-4.75 1.31l-16.7-4.17c-3.66-.92-6.98 2.4-6.06 6.06l4.65 18.61c.14.55.37 1.08.69 1.56l13.01 19.51c.18.28.39.53.62.77l10.87 10.86c1.52 1.53 1.9 3.85.94 5.78l-4.91 9.81c-.24.48-.56.92-.94 1.3l-24.41 24.41a5.003 5.003 0 0 1-5.77.94l-1.4-.7c-3.72-1.86-7.95 1.37-7.13 5.45l4.29 21.48c.36 1.79-.29 3.64-1.7 4.82l-39.01 32.51-40.35 26.9c-.62.41-1.33.68-2.07.79l-44.46 6.35a5.001 5.001 0 0 0-3.76 2.71l-4.33 8.66a5.003 5.003 0 0 1-4.48 2.77h-26.52c-2.65 0-4.8-2.15-4.8-4.8 0-3.83-4.27-6.12-7.46-3.99l-9.77 6.51a4.996 4.996 0 0 1-6.31-.62l-10.87-10.87-2.09-2.09c-3.5-3.49-9.41-.33-8.44 4.52l1.96 9.77c.75 3.77-2.84 6.94-6.49 5.73l-11.35-3.79c-.74-.24-1.41-.66-1.95-1.21l-9.4-9.39a4.985 4.985 0 0 0-7.07 0l-.8.8a5.003 5.003 0 0 0-.94 5.77l11.41 22.82c.49.96 1.27 1.75 2.24 2.23l7.44 3.72c2.38 1.19 2.89 4.36 1.01 6.24-2.79 2.79-.13 7.49 3.7 6.53l7.67-1.91c3.16-.79 6.22 1.59 6.22 4.85v4.53c0 1.75-.92 3.38-2.43 4.28l-28.24 16.95a4.999 4.999 0 0 1-6.48-1.17l-19.05-23.82c-2.48-3.09-7.4-2.22-8.65 1.54l-3.72 11.16a5.03 5.03 0 0 0-.26 1.58v32.43c0 .77-.18 1.54-.53 2.23l-.31.62c-2.07 4.15-8.19 3.48-9.32-1.02l-1.88-7.54c-.84-3.35-4.75-4.86-7.63-2.94l-34.28 22.86a4.92 4.92 0 0 0-1.7 1.92l-4.68 9.35c-.96 1.93-.58 4.25.94 5.78l8.74 8.74a4.257 4.257 0 0 0 5.38.53c3.88-2.58 8.5 2.04 5.92 5.92l-13.99 20.98a4.982 4.982 0 0 1-4.78 2.19l-48.49-6.06c-2.1-.26-4.14.83-5.09 2.73l-2.72 5.44c-1.36 2.72 0 6.02 2.89 6.98l14.41 4.8c.51.17.99.43 1.42.75l23.81 17.86a5.002 5.002 0 0 1 1.64 5.86l-23.29 58.23c-1.33 3.33-5.64 4.22-8.17 1.68l-5.51-5.51a5.009 5.009 0 0 0-6.31-.62l-13.82 9.22a4.997 4.997 0 0 1-6.31-.63l-11.87-11.87c-3.59-3.58-9.62-.17-8.39 4.75l1.82 7.27a4.99 4.99 0 0 1-1.31 4.75l-1.35 1.35a5.003 5.003 0 0 0 0 7.07l2.28 2.27c.7.7 1.59 1.18 2.55 1.37l31.25 6.25c1.09.22 2.22.07 3.22-.43l3.69-1.85c3.61-1.8 7.76 1.19 7.19 5.18l-5.3 37.09a4.924 4.924 0 0 1-1.42 2.82l-4.23 4.24c-.94.94-1.47 2.21-1.47 3.54v34.23c0 2.76 2.24 5 5 5h4.53c2.44 0 4.53 1.76 4.93 4.17l5.92 35.52a5.06 5.06 0 0 1-.46 3.06l-4.93 9.86c-.76 1.52-.69 3.34.19 4.8l19.03 31.72c.13.23.25.47.35.72l12.91 32.27a5.016 5.016 0 0 0 2.41 2.62l8.48 4.24a5 5 0 0 1 2.61 5.68l-5.57 22.3a5 5 0 0 1-1.32 2.32l-10.78 10.79a4.997 4.997 0 0 1-4.75 1.31l-23.44-5.86c-.88-.22-1.68-.67-2.32-1.31l-25.09-25.09a4.994 4.994 0 0 0-3.54-1.46h-92.52c-1.14 0-2.24-.39-3.13-1.1l-32.02-25.62c-.67-.54-1.46-.89-2.31-1.03l-38.43-6.41a5.056 5.056 0 0 1-2.71-1.39l-24.93-24.94a5.036 5.036 0 0 0-3.54-1.46h-41.1c-2.76 0-5-2.24-5-5v-12.56a5 5 0 0 0-2.77-4.47l-8.94-4.47a5.044 5.044 0 0 1-2.62-3.26l-12.96-51.86c-.16-.64-.45-1.25-.85-1.78l-19.83-26.44c-.14-.19-.29-.37-.46-.54l-12.05-12.05a4.988 4.988 0 0 1-1.46-3.53v-30.83c0-.99-.3-1.96-.84-2.78l-11.32-16.97c-1-1.5-1.11-3.41-.31-5.01l5.05-10.12c.35-.69.53-1.46.53-2.23v-18.66c0-.54-.08-1.07-.25-1.58l-5.97-17.92a5.071 5.071 0 0 0-2.51-2.89l-25.21-12.6c-.31-.16-.61-.35-.88-.57l-32.85-26.28a5.06 5.06 0 0 1-1.62-2.32l-6.2-18.61a4.72 4.72 0 0 0-.59-1.19l-26.6-39.91c-.37-.55-.84-1.02-1.39-1.39l-18.98-12.66c-.55-.36-1.02-.83-1.39-1.38l-12.77-19.17c-.29-.43-.51-.9-.65-1.4l-13.3-46.54a4.98 4.98 0 0 0-.81-1.63l-19.6-26.14c-.32-.43-.58-.91-.75-1.42l-6.36-19.11c-.17-.51-.43-.99-.75-1.42l-19.159-25.55c-.649-.87-1-1.92-1-3v-30.07c0-1.67-.835-3.23-2.226-4.16l-16.195-10.8a5.005 5.005 0 0 1-2.226-4.16v-8.19c0-1.79-.961-3.45-2.519-4.34l-43.139-24.65a5.002 5.002 0 0 1-2.519-4.34v-6.96c0-2.3-1.562-4.3-3.787-4.85l-19.956-4.99a5.007 5.007 0 0 1-3.787-4.85v-11.75c0-2.76-2.239-5-5-5h-5.934a4.993 4.993 0 0 1-4.287-2.43l-17.735-29.56a5.005 5.005 0 0 0-4.287-2.42h-44.933c-.275 0-.55-.03-.822-.07l-40.478-6.75a5.663 5.663 0 0 0-.822-.07h-32.818c-.776 0-1.542-.18-2.236-.52l-22.526-11.27a4.997 4.997 0 0 0-6.397 1.7l-10.076 15.12a5 5 0 0 1-3.453 2.17l-43.751 6.25a5.01 5.01 0 0 0-3.453 2.18l-25.742 38.61a5.088 5.088 0 0 0-.742 1.8l-6.495 32.47c-.128.64-.38 1.25-.742 1.79l-12.942 19.42c-.183.27-.392.53-.625.76l-32.598 32.6a5.01 5.01 0 0 0-1.464 3.54v4.75c0 3.42-3.343 5.83-6.581 4.75l-33.594-11.2a5.047 5.047 0 0 1-1.954-1.21l-18.349-18.35a4.984 4.984 0 0 0-3.535-1.46h-22.959a4.997 4.997 0 0 1-4-2l-18.001-24.01a5.008 5.008 0 0 0-3.02-1.9l-31.054-6.21a5.037 5.037 0 0 1-2.555-1.37l-39.39-39.39a5.047 5.047 0 0 0-1.954-1.21l-18.408-6.14a4.91 4.91 0 0 1-1.954-1.2l-18.834-18.84a4.983 4.983 0 0 1-1.315-2.32l-6.413-25.66a5.185 5.185 0 0 0-.379-1.02l-13.36-26.72a5.237 5.237 0 0 1-.272-.66l-6.243-18.73a4.995 4.995 0 0 1 0-3.16l5.649-16.95a5 5 0 0 0-.402-4.06l-25.763-45.09a4.99 4.99 0 0 1-.658-2.48v-17.93c0-.91-.247-1.8-.713-2.58l-19.472-32.45c-.306-.51-.7-.96-1.164-1.33l-32.859-26.29a4.929 4.929 0 0 0-1.911-.95l-24.887-6.22a5.048 5.048 0 0 1-2.629-1.65l-32.208-38.65a5.026 5.026 0 0 1-1.159-3.21v-9.45c0-1.58-.741-3.06-2-4l-25.246-18.94a4.48 4.48 0 0 1-.535-.46l-26.929-26.932a4.97 4.97 0 0 0-.762-.625l-20.235-13.491-20.235-13.491a5.014 5.014 0 0 1-.762-.625l-18.833-18.834a5.002 5.002 0 0 1-1.465-3.536v-22.37a5 5 0 0 0-2.764-4.472l-11-5.501-13.04-6.52a5.015 5.015 0 0 1-1.3-.937L1.465 868.715A4.998 4.998 0 0 1 0 865.18v-13.337a5 5 0 0 1 5.235-4.995l574.701 27.047a5 5 0 0 0 5.233-4.837L612.384 4.913Z" clip-rule="evenodd"/>
  <path fill="#fff" d="M1872.61 732.292c-22.69 0-41.09 18.398-41.09 41.092 0 8.119 2.36 15.643 6.42 22.013.2.311.35.616.55.921l25.5 47.326c1.19 3.44 4.59 6.053 8.44 6.053 3.85 0 7.05-2.613 8.25-6.053l28.44-51.364c2.93-5.653 4.58-12.093 4.58-18.896 0-22.694-18.4-41.092-41.09-41.092Zm-.18 23.298c11.34 0 20.54 9.199 20.54 20.546 0 11.348-9.2 20.546-20.54 20.546-11.35 0-20.55-9.198-20.55-20.546 0-11.347 9.2-20.546 20.55-20.546Zm55.88-144.524c-22.7 0-41.1 18.397-41.1 41.092 0 8.118 2.36 15.643 6.43 22.012.19.311.34.617.55.922l25.49 47.326c1.2 3.44 4.59 6.052 8.44 6.052 3.85 0 7.06-2.612 8.26-6.052l28.43-51.365a40.989 40.989 0 0 0 4.59-18.895c0-22.695-18.4-41.092-41.09-41.092Zm-.19 23.298c11.35 0 20.55 9.199 20.55 20.546s-9.2 20.546-20.55 20.546c-11.34 0-20.54-9.199-20.54-20.546s9.2-20.546 20.54-20.546Zm-183.29 314.178c-22.69 0-41.09 18.397-41.09 41.091 0 8.119 2.36 15.647 6.42 22.017.2.31.35.61.55.92l25.5 47.32c1.2 3.44 4.59 6.06 8.44 6.06 3.85 0 7.06-2.62 8.25-6.06l28.44-51.36c2.93-5.65 4.58-12.094 4.58-18.897 0-22.694-18.39-41.091-41.09-41.091Zm-.18 23.297c11.35 0 20.55 9.199 20.55 20.546 0 11.345-9.2 20.545-20.55 20.545-11.35 0-20.55-9.2-20.55-20.545 0-11.347 9.2-20.546 20.55-20.546Zm-127.6-200.228c-22.69 0-41.09 18.397-41.09 41.092 0 8.118 2.36 15.643 6.42 22.012.19.311.35.616.55.922l25.5 47.326c1.19 3.44 4.59 6.052 8.44 6.052 3.85 0 7.05-2.612 8.25-6.052l28.44-51.365c2.93-5.653 4.58-12.093 4.58-18.895 0-22.695-18.4-41.092-41.09-41.092Zm-.18 23.298c11.34 0 20.54 9.198 20.54 20.546 0 11.347-9.2 20.546-20.54 20.546-11.35 0-20.55-9.199-20.55-20.546 0-11.348 9.2-20.546 20.55-20.546Z"/>
</svg>
