<svg xmlns="http://www.w3.org/2000/svg" width="790" height="726" fill="none" viewBox="0 0 790 726">
  <mask id="a" width="726" height="690" x="31.938" y="17.959" fill="#000" maskUnits="userSpaceOnUse">
    <path fill="#fff" d="M31.938 17.959h726v690h-726z"/>
    <path fill-rule="evenodd" d="M239.311 28.282a5.416 5.416 0 0 1 5.492-5.246l146.363 2.121a5.417 5.417 0 0 1 5.338 5.417v112.732a4.827 4.827 0 0 0 4.828 4.827c1.28 0 2.508.509 3.413 1.414l9.873 9.874a5.417 5.417 0 0 0 5.544 1.309l2.817-.939a5.42 5.42 0 0 1 1.713-.278h2.104c.961 0 1.84-.543 2.27-1.403a2.537 2.537 0 0 1 4.064-.659l5.199 5.2a4.823 4.823 0 0 1 1.414 3.413 4.828 4.828 0 0 0 4.828 4.828h5.672c.582 0 1.16.094 1.713.278l11.107 3.703a5.412 5.412 0 0 0 3.426 0l1.938-.646a5.417 5.417 0 0 1 5.544 1.309l1.319 1.32a5.417 5.417 0 0 0 6.836.676l1.767-1.178a5.421 5.421 0 0 1 3.005-.91h8.046a3.968 3.968 0 0 1 3.968 3.968 3.968 3.968 0 0 0 2.713 3.764l1.986.662a5.421 5.421 0 0 1 3.132 2.717l.489.979c1.562 3.124 5.63 3.975 8.313 1.738l4.695-3.912c1.781-1.484 4.498-.711 5.231 1.488a3.292 3.292 0 0 0 3.123 2.252h.832c.878 0 1.736.259 2.467.746l3.091 2.061a5.415 5.415 0 0 0 5.428.338l2.518-1.259a3.881 3.881 0 0 1 5.339 2.03c1.206 3.015 5.362 3.304 6.973.484l2.37-4.148a5.417 5.417 0 0 1 7.49-1.957l4.497 2.698c1.357.814 3 .995 4.501.495l1.287-.43a5.416 5.416 0 0 1 5.543 1.309l1.28 1.28a5.418 5.418 0 0 0 2.118 1.309l11.648 3.883a5.157 5.157 0 0 0 6.519-3.26l.107-.321a5.418 5.418 0 0 1 4.077-3.599l7.77-1.554c.35-.07.706-.105 1.062-.105h3.136c.583 0 1.161-.094 1.713-.278l11.324-3.775a5.424 5.424 0 0 1 3.027-.117l5.629 1.408a5.416 5.416 0 0 0 3.736-.411l5.304-2.652a5.417 5.417 0 0 1 4.136-.293l10.312 3.437a5.407 5.407 0 0 1 2.117 1.309l5.544 5.544c.252.252.529.479.826.677l5.413 3.609c.638.425 1.359.71 2.115.836l11.704 1.951a5.446 5.446 0 0 1 1.532.498l6.546 3.274a2.835 2.835 0 0 0 3.273-.531 2.835 2.835 0 0 1 2.005-.831h8.595a3.884 3.884 0 0 1 3.885 3.885v31.372c0 .639.518 1.157 1.158 1.157.623 0 1.135.495 1.156 1.118l2.164 62.75a5.415 5.415 0 0 0 1.583 3.643l5.046 5.046c.181.181.349.375.503.58l5.513 7.351a5.419 5.419 0 0 1 1.083 3.25v5.055a5.42 5.42 0 0 0 1.586 3.83l2.161 2.16a2.75 2.75 0 0 1 .805 1.943c0 .729.289 1.427.804 1.943l2.161 2.16a5.42 5.42 0 0 1 1.586 3.83v2.341c0 1.436.571 2.814 1.587 3.83l2.964 2.965.69.69a5.413 5.413 0 0 1 1.586 3.83v3.641c0 .604.24 1.183.667 1.609.889.889.889 2.33 0 3.219a2.276 2.276 0 0 0-.667 1.609v11.834a5.42 5.42 0 0 1-.278 1.713l-1.876 5.629c-.081.243-.179.48-.294.709l-3.807 7.616a5.415 5.415 0 0 0-.572 2.422v4.27a5.42 5.42 0 0 1-.572 2.423l-.493.985a5.42 5.42 0 0 0 0 4.845l2.445 4.889a5.422 5.422 0 0 1 .41 3.736l-1.426 5.704a5.416 5.416 0 0 1-1.425 2.517l-2.869 2.869a5.427 5.427 0 0 0-1.015 1.408l-4.158 8.317-1.406 2.813a3.35 3.35 0 0 0 .209 3.357c1.484 2.227-.112 5.21-2.788 5.21h-1.733c-.728 0-1.443.185-2.078.538l-18.286 10.16a5.415 5.415 0 0 1-2.631.681h-7.241c-.304 0-.608.03-.906.09l-3.307.661c-2.813.563-4.903-2.556-3.311-4.944a3.18 3.18 0 0 0 .375-.768l1.119-3.356a3.723 3.723 0 0 0-5.195-4.506l-2.101 1.051c-.521.26-.996.603-1.408 1.014l-2.247 2.248a4.203 4.203 0 0 1-3.991 1.106c-3.078-.77-5.865 2.018-5.096 5.095l.363 1.452c.142.567.38 1.106.704 1.592l3.764 5.647c.198.297.425.573.677.825l1.412 1.412a5.418 5.418 0 0 1 1.014 6.253l-.137.273c-.26.521-.603.997-1.014 1.408l-7.544 7.544a1.84 1.84 0 0 1-2.124.345c-1.37-.685-2.928.505-2.627 2.007l1.025 5.125a4.394 4.394 0 0 1-1.497 4.239l-11.645 9.705-12.632 8.422a5.422 5.422 0 0 1-2.239.856l-12.402 1.772a4.452 4.452 0 0 0-3.355 2.418 4.457 4.457 0 0 1-3.986 2.464h-7.038a1.588 1.588 0 0 1-1.587-1.587c0-1.268-1.412-2.023-2.467-1.32l-2.278 1.519a3.052 3.052 0 0 1-3.851-.382l-2.783-2.782c-1.363-1.364-3.667-.131-3.289 1.76l.234 1.166c.347 1.739-1.313 3.204-2.995 2.643l-2.23-.743a3.657 3.657 0 0 1-1.435-.888l-2.616-2.615a1.87 1.87 0 0 0-2.996 2.158l3.508 7.017c.286.572.75 1.036 1.323 1.322l2.071 1.036c.786.393.956 1.441.335 2.063-.924.924-.044 2.477 1.223 2.16l2.208-.552a1.918 1.918 0 0 1 2.384 1.861v.7c0 .865-.454 1.667-1.197 2.113L591.693 544a5.374 5.374 0 0 1-6.96-1.251l-2.039-2.549c-1.781-2.226-5.32-1.595-6.222 1.11a3.607 3.607 0 0 0-.185 1.138v10.387c0 .268-.062.534-.182.774-.719 1.438-2.839 1.205-3.228-.354l-.358-1.43a2.276 2.276 0 0 0-3.471-1.342l-9.826 6.552a5.15 5.15 0 0 0-1.753 1.986l-.317.632a4.178 4.178 0 0 0 .783 4.823l1.605 1.605a1.41 1.41 0 0 0 1.779.177c1.282-.855 2.81.672 1.955 1.955l-4.191 6.287a2.92 2.92 0 0 1-2.793 1.278l-14.494-1.812a2.737 2.737 0 0 0-1.204 5.31l3.001 1a5.379 5.379 0 0 1 1.537.806l5.079 3.809a5.415 5.415 0 0 1 1.779 6.345l-6.009 15.025c-.735 1.837-3.108 2.324-4.506.925a2.756 2.756 0 0 0-3.477-.344l-2.965 1.977a2.905 2.905 0 0 1-3.667-.363l-1.683-1.683c-1.611-1.611-4.321-.077-3.768 2.134l.026.105c.175.7-.03 1.441-.541 1.952a2.056 2.056 0 0 0 0 2.906l.294.294c.345.345.784.58 1.263.675l9.884 1.977c.493.099 1.005.03 1.454-.194 1.631-.816 3.506.536 3.248 2.341l-1.462 10.24a4.308 4.308 0 0 1-1.218 2.436 4.301 4.301 0 0 0-1.261 3.044v9.408a2.464 2.464 0 0 0 2.464 2.464c1.204 0 2.232.871 2.431 2.059l1.643 9.859a5.419 5.419 0 0 1-.499 3.313l-.158.317a5.416 5.416 0 0 0 .2 5.209l5.074 8.458c.149.247.278.507.385.775l3.782 9.457a4.304 4.304 0 0 0 2.072 2.251 4.305 4.305 0 0 1 2.25 4.894l-1.074 4.298a5.416 5.416 0 0 1-1.425 2.517l-1.322 1.322a5.419 5.419 0 0 1-5.144 1.425l-4.672-1.168a5.434 5.434 0 0 1-2.517-1.425l-6.455-6.456a5.417 5.417 0 0 0-3.83-1.587h-27.717a5.42 5.42 0 0 1-3.384-1.187l-8.793-7.035a5.414 5.414 0 0 0-2.493-1.113l-10.551-1.759a5.427 5.427 0 0 1-2.94-1.513l-6.288-6.289a5.418 5.418 0 0 0-3.831-1.587h-9.466a4.22 4.22 0 0 1-4.22-4.22 4.22 4.22 0 0 0-2.333-3.774l-.277-.138a4.724 4.724 0 0 1-2.468-3.078l-3.76-15.04a5.422 5.422 0 0 0-.921-1.936l-5.94-7.92a5.45 5.45 0 0 0-.504-.581l-2.692-2.692a5.418 5.418 0 0 1-1.587-3.831v-7.496a5.417 5.417 0 0 0-.909-3.004l-1.899-2.848a5.418 5.418 0 0 1-.338-5.427l.299-.596a5.422 5.422 0 0 0 .571-2.423v-4.67c0-.582-.093-1.16-.277-1.713l-1.289-3.865a5.416 5.416 0 0 0-2.716-3.132l-6.583-3.292a5.353 5.353 0 0 1-.961-.615l-9.682-7.745a5.425 5.425 0 0 1-1.755-2.517l-1.54-4.622a5.434 5.434 0 0 0-.632-1.292l-8.1-12.151a5.41 5.41 0 0 0-1.502-1.502l-5.024-3.35a5.414 5.414 0 0 1-1.503-1.502l-3.481-5.223a5.419 5.419 0 0 1-.702-1.516l-4.044-14.157a5.417 5.417 0 0 0-.875-1.762l-5.7-7.6a5.428 5.428 0 0 1-.805-1.537l-1.72-5.16a5.415 5.415 0 0 0-.805-1.537l-5.217-6.956a5.419 5.419 0 0 1-1.083-3.25v-6.675a5.416 5.416 0 0 0-2.412-4.507l-2.598-1.732a4.082 4.082 0 0 1-1.817-3.396 4.082 4.082 0 0 0-2.056-3.543l-12.189-6.965a3.346 3.346 0 0 1-1.685-2.904 3.344 3.344 0 0 0-2.533-3.244l-3.666-.917a3.834 3.834 0 0 1-2.904-3.72v-.928a2.906 2.906 0 0 0-2.906-2.906 2.904 2.904 0 0 1-2.492-1.411l-4.403-7.338a5.416 5.416 0 0 0-4.645-2.63h-12.415c-.298 0-.596-.025-.89-.074l-12.77-2.128a5.438 5.438 0 0 0-.891-.074h-9.651a5.42 5.42 0 0 1-2.423-.572l-3.682-1.841a5.417 5.417 0 0 0-6.93 1.84l-.555.834a5.419 5.419 0 0 1-3.741 2.357l-11.135 1.591a5.418 5.418 0 0 0-3.741 2.358l-7.165 10.748a5.416 5.416 0 0 0-.805 1.943l-1.855 9.278a5.411 5.411 0 0 1-.805 1.942l-3.66 5.49a5.405 5.405 0 0 1-.676.826l-10.26 10.26a2.525 2.525 0 0 0-.74 1.786 2.526 2.526 0 0 1-3.325 2.397l-9.116-3.039a5.407 5.407 0 0 1-2.117-1.309l-4.337-4.336a5.416 5.416 0 0 0-3.83-1.587h-4.151a5.416 5.416 0 0 1-4.333-2.167l-3.961-5.281a5.413 5.413 0 0 0-3.271-2.061l-7.741-1.549a5.418 5.418 0 0 1-2.768-1.481l-11.59-11.592a5.427 5.427 0 0 0-2.118-1.308l-4.401-1.467a5.414 5.414 0 0 1-2.117-1.309l-4.862-4.862a5.426 5.426 0 0 1-1.425-2.517l-1.768-7.071a5.353 5.353 0 0 0-.41-1.109l-4.113-8.227a5.417 5.417 0 0 1-.294-.71l-1.583-4.749a5.412 5.412 0 0 1 0-3.426l.939-2.817a5.418 5.418 0 0 0-.436-4.401l-7.188-12.579a5.426 5.426 0 0 1-.713-2.688v-3.889c0-.981-.267-1.945-.772-2.786l-5.555-9.259a5.422 5.422 0 0 0-1.261-1.443l-9.695-7.756a5.41 5.41 0 0 0-2.07-1.026l-6.241-1.56a5.422 5.422 0 0 1-2.847-1.787l-9.023-10.829a5.28 5.28 0 0 1-1.224-3.38 5.28 5.28 0 0 0-2.112-4.224l-6.683-5.013a5.478 5.478 0 0 1-.58-.503l-8.451-8.452a5.439 5.439 0 0 0-.826-.677l-6.38-4.254-6.382-4.254a5.439 5.439 0 0 1-.825-.677l-4.862-4.862a5.418 5.418 0 0 1-1.586-3.83v-3.513a5.418 5.418 0 0 0-2.995-4.845l-1.557-.778-3.765-1.883a5.4 5.4 0 0 1-1.408-1.015l-4.838-4.838a4.67 4.67 0 0 1 3.52-7.965l183.055 8.614a5.415 5.415 0 0 0 5.668-5.24l8.763-278.217Z" clip-rule="evenodd"/>
  </mask>
  <path fill="#98252C" fill-rule="evenodd" d="M239.311 28.282a5.416 5.416 0 0 1 5.492-5.246l146.363 2.121a5.417 5.417 0 0 1 5.338 5.417v112.732a4.827 4.827 0 0 0 4.828 4.827c1.28 0 2.508.509 3.413 1.414l9.873 9.874a5.417 5.417 0 0 0 5.544 1.309l2.817-.939a5.42 5.42 0 0 1 1.713-.278h2.104c.961 0 1.84-.543 2.27-1.403a2.537 2.537 0 0 1 4.064-.659l5.199 5.2a4.823 4.823 0 0 1 1.414 3.413 4.828 4.828 0 0 0 4.828 4.828h5.672c.582 0 1.16.094 1.713.278l11.107 3.703a5.412 5.412 0 0 0 3.426 0l1.938-.646a5.417 5.417 0 0 1 5.544 1.309l1.319 1.32a5.417 5.417 0 0 0 6.836.676l1.767-1.178a5.421 5.421 0 0 1 3.005-.91h8.046a3.968 3.968 0 0 1 3.968 3.968 3.968 3.968 0 0 0 2.713 3.764l1.986.662a5.421 5.421 0 0 1 3.132 2.717l.489.979c1.562 3.124 5.63 3.975 8.313 1.738l4.695-3.912c1.781-1.484 4.498-.711 5.231 1.488a3.292 3.292 0 0 0 3.123 2.252h.832c.878 0 1.736.259 2.467.746l3.091 2.061a5.415 5.415 0 0 0 5.428.338l2.518-1.259a3.881 3.881 0 0 1 5.339 2.03c1.206 3.015 5.362 3.304 6.973.484l2.37-4.148a5.417 5.417 0 0 1 7.49-1.957l4.497 2.698c1.357.814 3 .995 4.501.495l1.287-.43a5.416 5.416 0 0 1 5.543 1.309l1.28 1.28a5.418 5.418 0 0 0 2.118 1.309l11.648 3.883a5.157 5.157 0 0 0 6.519-3.26l.107-.321a5.418 5.418 0 0 1 4.077-3.599l7.77-1.554c.35-.07.706-.105 1.062-.105h3.136c.583 0 1.161-.094 1.713-.278l11.324-3.775a5.424 5.424 0 0 1 3.027-.117l5.629 1.408a5.416 5.416 0 0 0 3.736-.411l5.304-2.652a5.417 5.417 0 0 1 4.136-.293l10.312 3.437a5.407 5.407 0 0 1 2.117 1.309l5.544 5.544c.252.252.529.479.826.677l5.413 3.609c.638.425 1.359.71 2.115.836l11.704 1.951a5.446 5.446 0 0 1 1.532.498l6.546 3.274a2.835 2.835 0 0 0 3.273-.531 2.835 2.835 0 0 1 2.005-.831h8.595a3.884 3.884 0 0 1 3.885 3.885v31.372c0 .639.518 1.157 1.158 1.157.623 0 1.135.495 1.156 1.118l2.164 62.75a5.415 5.415 0 0 0 1.583 3.643l5.046 5.046c.181.181.349.375.503.58l5.513 7.351a5.419 5.419 0 0 1 1.083 3.25v5.055a5.42 5.42 0 0 0 1.586 3.83l2.161 2.16a2.75 2.75 0 0 1 .805 1.943c0 .729.289 1.427.804 1.943l2.161 2.16a5.42 5.42 0 0 1 1.586 3.83v2.341c0 1.436.571 2.814 1.587 3.83l2.964 2.965.69.69a5.413 5.413 0 0 1 1.586 3.83v3.641c0 .604.24 1.183.667 1.609.889.889.889 2.33 0 3.219a2.276 2.276 0 0 0-.667 1.609v11.834a5.42 5.42 0 0 1-.278 1.713l-1.876 5.629c-.081.243-.179.48-.294.709l-3.807 7.616a5.415 5.415 0 0 0-.572 2.422v4.27a5.42 5.42 0 0 1-.572 2.423l-.493.985a5.42 5.42 0 0 0 0 4.845l2.445 4.889a5.422 5.422 0 0 1 .41 3.736l-1.426 5.704a5.416 5.416 0 0 1-1.425 2.517l-2.869 2.869a5.427 5.427 0 0 0-1.015 1.408l-4.158 8.317-1.406 2.813a3.35 3.35 0 0 0 .209 3.357c1.484 2.227-.112 5.21-2.788 5.21h-1.733c-.728 0-1.443.185-2.078.538l-18.286 10.16a5.415 5.415 0 0 1-2.631.681h-7.241c-.304 0-.608.03-.906.09l-3.307.661c-2.813.563-4.903-2.556-3.311-4.944a3.18 3.18 0 0 0 .375-.768l1.119-3.356a3.723 3.723 0 0 0-5.195-4.506l-2.101 1.051c-.521.26-.996.603-1.408 1.014l-2.247 2.248a4.203 4.203 0 0 1-3.991 1.106c-3.078-.77-5.865 2.018-5.096 5.095l.363 1.452c.142.567.38 1.106.704 1.592l3.764 5.647c.198.297.425.573.677.825l1.412 1.412a5.418 5.418 0 0 1 1.014 6.253l-.137.273c-.26.521-.603.997-1.014 1.408l-7.544 7.544a1.84 1.84 0 0 1-2.124.345c-1.37-.685-2.928.505-2.627 2.007l1.025 5.125a4.394 4.394 0 0 1-1.497 4.239l-11.645 9.705-12.632 8.422a5.422 5.422 0 0 1-2.239.856l-12.402 1.772a4.452 4.452 0 0 0-3.355 2.418 4.457 4.457 0 0 1-3.986 2.464h-7.038a1.588 1.588 0 0 1-1.587-1.587c0-1.268-1.412-2.023-2.467-1.32l-2.278 1.519a3.052 3.052 0 0 1-3.851-.382l-2.783-2.782c-1.363-1.364-3.667-.131-3.289 1.76l.234 1.166c.347 1.739-1.313 3.204-2.995 2.643l-2.23-.743a3.657 3.657 0 0 1-1.435-.888l-2.616-2.615a1.87 1.87 0 0 0-2.996 2.158l3.508 7.017c.286.572.75 1.036 1.323 1.322l2.071 1.036c.786.393.956 1.441.335 2.063-.924.924-.044 2.477 1.223 2.16l2.208-.552a1.918 1.918 0 0 1 2.384 1.861v.7c0 .865-.454 1.667-1.197 2.113L591.693 544a5.374 5.374 0 0 1-6.96-1.251l-2.039-2.549c-1.781-2.226-5.32-1.595-6.222 1.11a3.607 3.607 0 0 0-.185 1.138v10.387c0 .268-.062.534-.182.774-.719 1.438-2.839 1.205-3.228-.354l-.358-1.43a2.276 2.276 0 0 0-3.471-1.342l-9.826 6.552a5.15 5.15 0 0 0-1.753 1.986l-.317.632a4.178 4.178 0 0 0 .783 4.823l1.605 1.605a1.41 1.41 0 0 0 1.779.177c1.282-.855 2.81.672 1.955 1.955l-4.191 6.287a2.92 2.92 0 0 1-2.793 1.278l-14.494-1.812a2.737 2.737 0 0 0-1.204 5.31l3.001 1a5.379 5.379 0 0 1 1.537.806l5.079 3.809a5.415 5.415 0 0 1 1.779 6.345l-6.009 15.025c-.735 1.837-3.108 2.324-4.506.925a2.756 2.756 0 0 0-3.477-.344l-2.965 1.977a2.905 2.905 0 0 1-3.667-.363l-1.683-1.683c-1.611-1.611-4.321-.077-3.768 2.134l.026.105c.175.7-.03 1.441-.541 1.952a2.056 2.056 0 0 0 0 2.906l.294.294c.345.345.784.58 1.263.675l9.884 1.977c.493.099 1.005.03 1.454-.194 1.631-.816 3.506.536 3.248 2.341l-1.462 10.24a4.308 4.308 0 0 1-1.218 2.436 4.301 4.301 0 0 0-1.261 3.044v9.408a2.464 2.464 0 0 0 2.464 2.464c1.204 0 2.232.871 2.431 2.059l1.643 9.859a5.419 5.419 0 0 1-.499 3.313l-.158.317a5.416 5.416 0 0 0 .2 5.209l5.074 8.458c.149.247.278.507.385.775l3.782 9.457a4.304 4.304 0 0 0 2.072 2.251 4.305 4.305 0 0 1 2.25 4.894l-1.074 4.298a5.416 5.416 0 0 1-1.425 2.517l-1.322 1.322a5.419 5.419 0 0 1-5.144 1.425l-4.672-1.168a5.434 5.434 0 0 1-2.517-1.425l-6.455-6.456a5.417 5.417 0 0 0-3.83-1.587h-27.717a5.42 5.42 0 0 1-3.384-1.187l-8.793-7.035a5.414 5.414 0 0 0-2.493-1.113l-10.551-1.759a5.427 5.427 0 0 1-2.94-1.513l-6.288-6.289a5.418 5.418 0 0 0-3.831-1.587h-9.466a4.22 4.22 0 0 1-4.22-4.22 4.22 4.22 0 0 0-2.333-3.774l-.277-.138a4.724 4.724 0 0 1-2.468-3.078l-3.76-15.04a5.422 5.422 0 0 0-.921-1.936l-5.94-7.92a5.45 5.45 0 0 0-.504-.581l-2.692-2.692a5.418 5.418 0 0 1-1.587-3.831v-7.496a5.417 5.417 0 0 0-.909-3.004l-1.899-2.848a5.418 5.418 0 0 1-.338-5.427l.299-.596a5.422 5.422 0 0 0 .571-2.423v-4.67c0-.582-.093-1.16-.277-1.713l-1.289-3.865a5.416 5.416 0 0 0-2.716-3.132l-6.583-3.292a5.353 5.353 0 0 1-.961-.615l-9.682-7.745a5.425 5.425 0 0 1-1.755-2.517l-1.54-4.622a5.434 5.434 0 0 0-.632-1.292l-8.1-12.151a5.41 5.41 0 0 0-1.502-1.502l-5.024-3.35a5.414 5.414 0 0 1-1.503-1.502l-3.481-5.223a5.419 5.419 0 0 1-.702-1.516l-4.044-14.157a5.417 5.417 0 0 0-.875-1.762l-5.7-7.6a5.428 5.428 0 0 1-.805-1.537l-1.72-5.16a5.415 5.415 0 0 0-.805-1.537l-5.217-6.956a5.419 5.419 0 0 1-1.083-3.25v-6.675a5.416 5.416 0 0 0-2.412-4.507l-2.598-1.732a4.082 4.082 0 0 1-1.817-3.396 4.082 4.082 0 0 0-2.056-3.543l-12.189-6.965a3.346 3.346 0 0 1-1.685-2.904 3.344 3.344 0 0 0-2.533-3.244l-3.666-.917a3.834 3.834 0 0 1-2.904-3.72v-.928a2.906 2.906 0 0 0-2.906-2.906 2.904 2.904 0 0 1-2.492-1.411l-4.403-7.338a5.416 5.416 0 0 0-4.645-2.63h-12.415c-.298 0-.596-.025-.89-.074l-12.77-2.128a5.438 5.438 0 0 0-.891-.074h-9.651a5.42 5.42 0 0 1-2.423-.572l-3.682-1.841a5.417 5.417 0 0 0-6.93 1.84l-.555.834a5.419 5.419 0 0 1-3.741 2.357l-11.135 1.591a5.418 5.418 0 0 0-3.741 2.358l-7.165 10.748a5.416 5.416 0 0 0-.805 1.943l-1.855 9.278a5.411 5.411 0 0 1-.805 1.942l-3.66 5.49a5.405 5.405 0 0 1-.676.826l-10.26 10.26a2.525 2.525 0 0 0-.74 1.786 2.526 2.526 0 0 1-3.325 2.397l-9.116-3.039a5.407 5.407 0 0 1-2.117-1.309l-4.337-4.336a5.416 5.416 0 0 0-3.83-1.587h-4.151a5.416 5.416 0 0 1-4.333-2.167l-3.961-5.281a5.413 5.413 0 0 0-3.271-2.061l-7.741-1.549a5.418 5.418 0 0 1-2.768-1.481l-11.59-11.592a5.427 5.427 0 0 0-2.118-1.308l-4.401-1.467a5.414 5.414 0 0 1-2.117-1.309l-4.862-4.862a5.426 5.426 0 0 1-1.425-2.517l-1.768-7.071a5.353 5.353 0 0 0-.41-1.109l-4.113-8.227a5.417 5.417 0 0 1-.294-.71l-1.583-4.749a5.412 5.412 0 0 1 0-3.426l.939-2.817a5.418 5.418 0 0 0-.436-4.401l-7.188-12.579a5.426 5.426 0 0 1-.713-2.688v-3.889c0-.981-.267-1.945-.772-2.786l-5.555-9.259a5.422 5.422 0 0 0-1.261-1.443l-9.695-7.756a5.41 5.41 0 0 0-2.07-1.026l-6.241-1.56a5.422 5.422 0 0 1-2.847-1.787l-9.023-10.829a5.28 5.28 0 0 1-1.224-3.38 5.28 5.28 0 0 0-2.112-4.224l-6.683-5.013a5.478 5.478 0 0 1-.58-.503l-8.451-8.452a5.439 5.439 0 0 0-.826-.677l-6.38-4.254-6.382-4.254a5.439 5.439 0 0 1-.825-.677l-4.862-4.862a5.418 5.418 0 0 1-1.586-3.83v-3.513a5.418 5.418 0 0 0-2.995-4.845l-1.557-.778-3.765-1.883a5.4 5.4 0 0 1-1.408-1.015l-4.838-4.838a4.67 4.67 0 0 1 3.52-7.965l183.055 8.614a5.415 5.415 0 0 0 5.668-5.24l8.763-278.217Z" clip-rule="evenodd"/>
  <path stroke="#F8F4EA" stroke-linecap="round" stroke-linejoin="round" stroke-width="10" d="M239.311 28.282a5.416 5.416 0 0 1 5.492-5.246l146.363 2.121a5.417 5.417 0 0 1 5.338 5.417v112.732a4.827 4.827 0 0 0 4.828 4.827c1.28 0 2.508.509 3.413 1.414l9.873 9.874a5.417 5.417 0 0 0 5.544 1.309l2.817-.939a5.42 5.42 0 0 1 1.713-.278h2.104c.961 0 1.84-.543 2.27-1.403a2.537 2.537 0 0 1 4.064-.659l5.199 5.2a4.823 4.823 0 0 1 1.414 3.413 4.828 4.828 0 0 0 4.828 4.828h5.672c.582 0 1.16.094 1.713.278l11.107 3.703a5.412 5.412 0 0 0 3.426 0l1.938-.646a5.417 5.417 0 0 1 5.544 1.309l1.319 1.32a5.417 5.417 0 0 0 6.836.676l1.767-1.178a5.421 5.421 0 0 1 3.005-.91h8.046a3.968 3.968 0 0 1 3.968 3.968 3.968 3.968 0 0 0 2.713 3.764l1.986.662a5.421 5.421 0 0 1 3.132 2.717l.489.979c1.562 3.124 5.63 3.975 8.313 1.738l4.695-3.912c1.781-1.484 4.498-.711 5.231 1.488a3.292 3.292 0 0 0 3.123 2.252h.832c.878 0 1.736.259 2.467.746l3.091 2.061a5.415 5.415 0 0 0 5.428.338l2.518-1.259a3.881 3.881 0 0 1 5.339 2.03c1.206 3.015 5.362 3.304 6.973.484l2.37-4.148a5.417 5.417 0 0 1 7.49-1.957l4.497 2.698c1.357.814 3 .995 4.501.495l1.287-.43a5.416 5.416 0 0 1 5.543 1.309l1.28 1.28a5.418 5.418 0 0 0 2.118 1.309l11.648 3.883a5.157 5.157 0 0 0 6.519-3.26l.107-.321a5.418 5.418 0 0 1 4.077-3.599l7.77-1.554c.35-.07.706-.105 1.062-.105h3.136c.583 0 1.161-.094 1.713-.278l11.324-3.775a5.424 5.424 0 0 1 3.027-.117l5.629 1.408a5.416 5.416 0 0 0 3.736-.411l5.304-2.652a5.417 5.417 0 0 1 4.136-.293l10.312 3.437a5.407 5.407 0 0 1 2.117 1.309l5.544 5.544c.252.252.529.479.826.677l5.413 3.609c.638.425 1.359.71 2.115.836l11.704 1.951a5.446 5.446 0 0 1 1.532.498l6.546 3.274a2.835 2.835 0 0 0 3.273-.531 2.835 2.835 0 0 1 2.005-.831h8.595a3.884 3.884 0 0 1 3.885 3.885v31.372c0 .639.518 1.157 1.158 1.157.623 0 1.135.495 1.156 1.118l2.164 62.75a5.415 5.415 0 0 0 1.583 3.643l5.046 5.046c.181.181.349.375.503.58l5.513 7.351a5.419 5.419 0 0 1 1.083 3.25v5.055a5.42 5.42 0 0 0 1.586 3.83l2.161 2.16a2.75 2.75 0 0 1 .805 1.943c0 .729.289 1.427.804 1.943l2.161 2.16a5.42 5.42 0 0 1 1.586 3.83v2.341c0 1.436.571 2.814 1.587 3.83l2.964 2.965.69.69a5.413 5.413 0 0 1 1.586 3.83v3.641c0 .604.24 1.183.667 1.609.889.889.889 2.33 0 3.219a2.276 2.276 0 0 0-.667 1.609v11.834a5.42 5.42 0 0 1-.278 1.713l-1.876 5.629c-.081.243-.179.48-.294.709l-3.807 7.616a5.415 5.415 0 0 0-.572 2.422v4.27a5.42 5.42 0 0 1-.572 2.423l-.493.985a5.42 5.42 0 0 0 0 4.845l2.445 4.889a5.422 5.422 0 0 1 .41 3.736l-1.426 5.704a5.416 5.416 0 0 1-1.425 2.517l-2.869 2.869a5.427 5.427 0 0 0-1.015 1.408l-4.158 8.317-1.406 2.813a3.35 3.35 0 0 0 .209 3.357c1.484 2.227-.112 5.21-2.788 5.21h-1.733c-.728 0-1.443.185-2.078.538l-18.286 10.16a5.415 5.415 0 0 1-2.631.681h-7.241c-.304 0-.608.03-.906.09l-3.307.661c-2.813.563-4.903-2.556-3.311-4.944a3.18 3.18 0 0 0 .375-.768l1.119-3.356a3.723 3.723 0 0 0-5.195-4.506l-2.101 1.051c-.521.26-.996.603-1.408 1.014l-2.247 2.248a4.203 4.203 0 0 1-3.991 1.106c-3.078-.77-5.865 2.018-5.096 5.095l.363 1.452c.142.567.38 1.106.704 1.592l3.764 5.647c.198.297.425.573.677.825l1.412 1.412a5.418 5.418 0 0 1 1.014 6.253l-.137.273c-.26.521-.603.997-1.014 1.408l-7.544 7.544a1.84 1.84 0 0 1-2.124.345c-1.37-.685-2.928.505-2.627 2.007l1.025 5.125a4.394 4.394 0 0 1-1.497 4.239l-11.645 9.705-12.632 8.422a5.422 5.422 0 0 1-2.239.856l-12.402 1.772a4.452 4.452 0 0 0-3.355 2.418 4.457 4.457 0 0 1-3.986 2.464h-7.038a1.588 1.588 0 0 1-1.587-1.587c0-1.268-1.412-2.023-2.467-1.32l-2.278 1.519a3.052 3.052 0 0 1-3.851-.382l-2.783-2.782c-1.363-1.364-3.667-.131-3.289 1.76l.234 1.166c.347 1.739-1.313 3.204-2.995 2.643l-2.23-.743a3.657 3.657 0 0 1-1.435-.888l-2.616-2.615a1.87 1.87 0 0 0-2.996 2.158l3.508 7.017c.286.572.75 1.036 1.323 1.322l2.071 1.036c.786.393.956 1.441.335 2.063-.924.924-.044 2.477 1.223 2.16l2.208-.552a1.918 1.918 0 0 1 2.384 1.861v.7c0 .865-.454 1.667-1.197 2.113L591.693 544a5.374 5.374 0 0 1-6.96-1.251l-2.039-2.549c-1.781-2.226-5.32-1.595-6.222 1.11a3.607 3.607 0 0 0-.185 1.138v10.387c0 .268-.062.534-.182.774-.719 1.438-2.839 1.205-3.228-.354l-.358-1.43a2.276 2.276 0 0 0-3.471-1.342l-9.826 6.552a5.15 5.15 0 0 0-1.753 1.986l-.317.632a4.178 4.178 0 0 0 .783 4.823l1.605 1.605a1.41 1.41 0 0 0 1.779.177c1.282-.855 2.81.672 1.955 1.955l-4.191 6.287a2.92 2.92 0 0 1-2.793 1.278l-14.494-1.812a2.737 2.737 0 0 0-1.204 5.31l3.001 1a5.379 5.379 0 0 1 1.537.806l5.079 3.809a5.415 5.415 0 0 1 1.779 6.345l-6.009 15.025c-.735 1.837-3.108 2.324-4.506.925a2.756 2.756 0 0 0-3.477-.344l-2.965 1.977a2.905 2.905 0 0 1-3.667-.363l-1.683-1.683c-1.611-1.611-4.321-.077-3.768 2.134l.026.105c.175.7-.03 1.441-.541 1.952a2.056 2.056 0 0 0 0 2.906l.294.294c.345.345.784.58 1.263.675l9.884 1.977c.493.099 1.005.03 1.454-.194 1.631-.816 3.506.536 3.248 2.341l-1.462 10.24a4.308 4.308 0 0 1-1.218 2.436 4.301 4.301 0 0 0-1.261 3.044v9.408a2.464 2.464 0 0 0 2.464 2.464c1.204 0 2.232.871 2.431 2.059l1.643 9.859a5.419 5.419 0 0 1-.499 3.313l-.158.317a5.416 5.416 0 0 0 .2 5.209l5.074 8.458c.149.247.278.507.385.775l3.782 9.457a4.304 4.304 0 0 0 2.072 2.251 4.305 4.305 0 0 1 2.25 4.894l-1.074 4.298a5.416 5.416 0 0 1-1.425 2.517l-1.322 1.322a5.419 5.419 0 0 1-5.144 1.425l-4.672-1.168a5.434 5.434 0 0 1-2.517-1.425l-6.455-6.456a5.417 5.417 0 0 0-3.83-1.587h-27.717a5.42 5.42 0 0 1-3.384-1.187l-8.793-7.035a5.414 5.414 0 0 0-2.493-1.113l-10.551-1.759a5.427 5.427 0 0 1-2.94-1.513l-6.288-6.289a5.418 5.418 0 0 0-3.831-1.587h-9.466a4.22 4.22 0 0 1-4.22-4.22 4.22 4.22 0 0 0-2.333-3.774l-.277-.138a4.724 4.724 0 0 1-2.468-3.078l-3.76-15.04a5.422 5.422 0 0 0-.921-1.936l-5.94-7.92a5.45 5.45 0 0 0-.504-.581l-2.692-2.692a5.418 5.418 0 0 1-1.587-3.831v-7.496a5.417 5.417 0 0 0-.909-3.004l-1.899-2.848a5.418 5.418 0 0 1-.338-5.427l.299-.596a5.422 5.422 0 0 0 .571-2.423v-4.67c0-.582-.093-1.16-.277-1.713l-1.289-3.865a5.416 5.416 0 0 0-2.716-3.132l-6.583-3.292a5.353 5.353 0 0 1-.961-.615l-9.682-7.745a5.425 5.425 0 0 1-1.755-2.517l-1.54-4.622a5.434 5.434 0 0 0-.632-1.292l-8.1-12.151a5.41 5.41 0 0 0-1.502-1.502l-5.024-3.35a5.414 5.414 0 0 1-1.503-1.502l-3.481-5.223a5.419 5.419 0 0 1-.702-1.516l-4.044-14.157a5.417 5.417 0 0 0-.875-1.762l-5.7-7.6a5.428 5.428 0 0 1-.805-1.537l-1.72-5.16a5.415 5.415 0 0 0-.805-1.537l-5.217-6.956a5.419 5.419 0 0 1-1.083-3.25v-6.675a5.416 5.416 0 0 0-2.412-4.507l-2.598-1.732a4.082 4.082 0 0 1-1.817-3.396 4.082 4.082 0 0 0-2.056-3.543l-12.189-6.965a3.346 3.346 0 0 1-1.685-2.904 3.344 3.344 0 0 0-2.533-3.244l-3.666-.917a3.834 3.834 0 0 1-2.904-3.72v-.928a2.906 2.906 0 0 0-2.906-2.906 2.904 2.904 0 0 1-2.492-1.411l-4.403-7.338a5.416 5.416 0 0 0-4.645-2.63h-12.415c-.298 0-.596-.025-.89-.074l-12.77-2.128a5.438 5.438 0 0 0-.891-.074h-9.651a5.42 5.42 0 0 1-2.423-.572l-3.682-1.841a5.417 5.417 0 0 0-6.93 1.84l-.555.834a5.419 5.419 0 0 1-3.741 2.357l-11.135 1.591a5.418 5.418 0 0 0-3.741 2.358l-7.165 10.748a5.416 5.416 0 0 0-.805 1.943l-1.855 9.278a5.411 5.411 0 0 1-.805 1.942l-3.66 5.49a5.405 5.405 0 0 1-.676.826l-10.26 10.26a2.525 2.525 0 0 0-.74 1.786 2.526 2.526 0 0 1-3.325 2.397l-9.116-3.039a5.407 5.407 0 0 1-2.117-1.309l-4.337-4.336a5.416 5.416 0 0 0-3.83-1.587h-4.151a5.416 5.416 0 0 1-4.333-2.167l-3.961-5.281a5.413 5.413 0 0 0-3.271-2.061l-7.741-1.549a5.418 5.418 0 0 1-2.768-1.481l-11.59-11.592a5.427 5.427 0 0 0-2.118-1.308l-4.401-1.467a5.414 5.414 0 0 1-2.117-1.309l-4.862-4.862a5.426 5.426 0 0 1-1.425-2.517l-1.768-7.071a5.353 5.353 0 0 0-.41-1.109l-4.113-8.227a5.417 5.417 0 0 1-.294-.71l-1.583-4.749a5.412 5.412 0 0 1 0-3.426l.939-2.817a5.418 5.418 0 0 0-.436-4.401l-7.188-12.579a5.426 5.426 0 0 1-.713-2.688v-3.889c0-.981-.267-1.945-.772-2.786l-5.555-9.259a5.422 5.422 0 0 0-1.261-1.443l-9.695-7.756a5.41 5.41 0 0 0-2.07-1.026l-6.241-1.56a5.422 5.422 0 0 1-2.847-1.787l-9.023-10.829a5.28 5.28 0 0 1-1.224-3.38 5.28 5.28 0 0 0-2.112-4.224l-6.683-5.013a5.478 5.478 0 0 1-.58-.503l-8.451-8.452a5.439 5.439 0 0 0-.826-.677l-6.38-4.254-6.382-4.254a5.439 5.439 0 0 1-.825-.677l-4.862-4.862a5.418 5.418 0 0 1-1.586-3.83v-3.513a5.418 5.418 0 0 0-2.995-4.845l-1.557-.778-3.765-1.883a5.4 5.4 0 0 1-1.408-1.015l-4.838-4.838a4.67 4.67 0 0 1 3.52-7.965l183.055 8.614a5.415 5.415 0 0 0 5.668-5.24l8.763-278.217Z" clip-rule="evenodd" mask="url(#a)"/>
  <circle cx="654.424" cy="282.379" r="9.233" fill="#F8F4EA"/>
  <circle cx="654.424" cy="282.379" r="9.233" fill="#F8F4EA" opacity=".3"/>
  <circle cx="672.174" cy="242.924" r="9.233" fill="#F8F4EA"/>
  <circle cx="672.174" cy="242.924" r="9.233" fill="#F8F4EA" opacity=".3"/>
  <circle cx="612.99" cy="352.414" r="9.233" fill="#F8F4EA"/>
  <circle cx="612.99" cy="352.414" r="9.233" fill="#F8F4EA" opacity=".3"/>
  <circle cx="571.565" cy="295.203" r="9.233" fill="#F8F4EA"/>
  <circle cx="571.565" cy="295.203" r="9.233" fill="#F8F4EA" opacity=".3"/>
</svg>
